<svg width="3000" height="3000" viewBox="0 0 3000 3000" fill="none" xmlns="http://www.w3.org/2000/svg">
<path d="M2258 839H2128.9C2123.4 839 2119 834.5 2119 829.1V704.6C2119 695.3 2111.4 687.7 2102.1 687.7H1490.6C1481.3 687.7 1473.7 695.3 1473.7 704.6V969.6C1473.7 998.9 1484.5 1027.6 1504.1 1050.4C1532.8 1083.8 1558.4 1120.3 1580.2 1158.8C1609.1 1210.1 1631.3 1265.1 1646.2 1322.1C1660.1 1374.9 1667.6 1429.9 1668.6 1485.4V1487.4H2258C2267.3 1487.4 2274.9 1479.8 2274.9 1470.5V855.9C2274.9 846.6 2267.3 839 2258 839ZM1648.1 890.9C1669.3 838.9 1709.3 798 1760.7 775.8C1812.7 753.3 1870.7 752.5 1924 773.7C1950.5 784.2 1974.1 799.4 1994.1 818.9C2014.1 838.3 2029.9 861.3 2041 887.3C2060.9 933.7 2063.7 985.7 2048.9 1033.8C2036.6 1073.6 2038.5 1116.3 2054 1154.1L2054.3 1154.8C2057 1161.4 2063.6 1165.7 2071 1165.8C2079.9 1165.9 2088.6 1168.6 2096 1173.5C2103.6 1178.6 2109.5 1185.8 2113 1194.3C2117.7 1205.7 2117.7 1218.3 2112.9 1229.6C2112.7 1230.1 2112.5 1230.6 2112.2 1231.1C2108.5 1239.2 2108.8 1248.8 2113.1 1257.4C2113.5 1258.3 2113.9 1259.1 2114.2 1259.8L2121.2 1276.9C2128.9 1295.7 2119.9 1317.3 2101.1 1325.1C2088.6 1330.2 2079.1 1340.6 2075 1353.6C2068.6 1373.8 2053.7 1390 2034.2 1398.1L2011.5 1407.4C1992 1415.5 1970 1414.4 1951.1 1404.6C1944.6 1401.1 1937.2 1399.3 1929.8 1399.3C1923.8 1399.3 1918 1400.4 1912.6 1402.7C1908.1 1404.5 1903.4 1405.5 1898.6 1405.5C1892.6 1405.5 1886.8 1404.1 1881.3 1401.2C1873.7 1397.2 1867.6 1390.3 1864.1 1381.7L1857.5 1365.5C1857.1 1364.5 1856.8 1363.7 1856.6 1363C1853.6 1353.8 1847 1346.8 1838.7 1343.6C1838.3 1343.4 1837.9 1343.3 1837.5 1343.1L1837.1 1343C1825.7 1338.3 1816.9 1329.4 1812.2 1318C1807.5 1306.6 1807.5 1294 1812.3 1282.7C1814.6 1277.2 1817.9 1272.3 1822 1268.1C1827.2 1262.8 1828.8 1255.2 1826 1248.6L1825.7 1247.9C1810 1209.8 1781.6 1178.3 1745.7 1159.4C1701.8 1136.3 1667.2 1098.2 1648.2 1052.1C1627 1000.2 1626.9 943 1648.1 890.9Z" fill="#EFAF36"/>
<path d="M2050.8 1594.7C2059.9 1586.3 2071.2 1580.1 2083.4 1576.7C2095.7 1573.5 2108.7 1573.4 2121 1576.2C2122.2 1576.5 2123.4 1576.8 2124.6 1577.2L2125.6 1577.5C2126 1577.6 2126.4 1577.7 2126.9 1577.9C2127.8 1578.2 2128.9 1578.5 2129.7 1578.8L2152.7 1586.8L2183.4 1597.6L2255.6 1622.8C2260.1 1624.4 2265 1623.7 2268.9 1620.9C2272.8 1618.1 2275.1 1613.8 2275.1 1609V1527.2C2275.1 1517.9 2267.5 1510.3 2258.3 1510.3H1668.6L1668.5 1512.2C1667 1539.1 1661.4 1563.9 1652 1586C1645.1 1601.1 1636.6 1614.3 1626.9 1625.4C1616.5 1637.1 1603.4 1647 1589.2 1653.9C1574.9 1660.9 1558.9 1664.9 1543.2 1665.4C1527.5 1666 1511.4 1663.2 1496.5 1657.4L1496.3 1657.3C1491.3 1655.2 1485.6 1655.7 1481.1 1658.7C1476.6 1661.7 1473.9 1666.7 1473.9 1672.1V2293.1C1473.9 2302.4 1481.5 2310 1490.8 2310H2102C2111.3 2310 2118.9 2302.4 2118.9 2293.1V2252.2C2118.9 2246.7 2123.4 2242.3 2128.8 2242.3H2154.3C2160.3 2242.3 2165.3 2237.4 2165.3 2231.3V2211.5C2165.3 2206 2169.8 2201.6 2175.2 2201.6H2258.9C2265.9 2201.6 2272.3 2197.2 2274.7 2190.6L2274.8 2190.3V2099.3C2274.8 2084.6 2265.5 2071.6 2251.7 2066.8L2231.6 2059.8L2225.9 2057.8L2219.3 2055.1C2218.3 2054.7 2217.4 2054.2 2216.4 2053.6L2216.2 2053.5C2215.9 2053.3 2215.5 2053.1 2215.1 2052.9C2212.3 2051.6 2209.7 2049.8 2207.2 2048.1C2197.4 2041.4 2189 2031.8 2182.9 2020.2C2177.3 2009.6 2174.4 1997.2 2174.4 1984.2C2174.6 1961.9 2185 1940.2 2202.3 1926.1L2202.5 1925.9C2205.5 1922.9 2206.9 1918.8 2206.3 1914.7C2205.8 1910.6 2203.5 1907.2 2200 1905.1L2199.4 1904.7C2199.3 1904.6 2199.2 1904.6 2199.1 1904.5C2183.7 1894.4 2172.8 1879.5 2167.6 1861.4C2164.6 1851 2163.8 1839.8 2165.5 1829.2C2168.8 1808.6 2179.6 1790.6 2196.1 1778.6C2198.6 1776.8 2199.9 1773.7 2199.4 1770.6C2198.9 1767.5 2196.9 1765 2193.9 1764L2078.8 1724.3C2075.9 1723.2 2072.9 1722 2070.2 1720.8C2058.8 1715.4 2048.9 1707.2 2041.4 1697.2C2033.9 1686.9 2028.9 1675 2027 1662.9C2025.2 1650.4 2026.3 1637.5 2030.4 1625.7C2034.5 1614 2041.6 1603.3 2050.8 1594.7ZM1980.3 1977.9C1980.2 1996.8 1979.9 2016 1979.7 2034.6L1979.6 2045.3C1979.3 2069.5 1979 2091.6 1978.6 2112.7L1977.2 2179.6C1977.1 2184.1 1973.8 2187.7 1969.6 2187.9C1967.4 2188 1965.4 2187.2 1963.8 2185.8C1962.2 2184.3 1961.3 2182.3 1961.3 2180.2L1959.9 2112.8C1959.5 2091.2 1959.2 2069.2 1958.9 2045.4L1958.8 2037.3C1958.5 2017.9 1958.3 1997.7 1958.2 1978C1958.1 1965.7 1958.1 1952.2 1958.2 1935.7C1958.3 1927.5 1953.2 1920.2 1945.5 1917.7C1914 1907.4 1892.8 1878.2 1892.8 1845C1892.8 1811.5 1914.3 1782.1 1946.3 1772.1C1953.7 1769.8 1958.8 1762.8 1959.1 1754.8L1961.3 1686C1961.4 1681.6 1964.8 1678 1968.9 1677.8C1969 1677.8 1969.2 1677.8 1969.3 1677.8C1971.3 1677.8 1973.2 1678.5 1974.6 1679.9C1976.2 1681.3 1977.1 1683.4 1977.2 1685.5L1979.4 1754.8C1979.7 1762.8 1984.8 1769.8 1992.2 1772.1C2024.2 1782.2 2045.7 1811.5 2045.7 1845C2045.7 1878.1 2024.6 1907.3 1993.1 1917.7C1985.5 1920.2 1980.3 1927.4 1980.4 1935.7C1980.4 1952.1 1980.4 1965.5 1980.3 1977.9ZM1754.5 1900.5C1754.6 1875.7 1754.9 1850.5 1755.2 1828.8C1755.7 1785.6 1756.5 1738.8 1757.6 1685.9C1757.7 1681.4 1761 1677.8 1765.2 1677.6C1765.3 1677.6 1765.5 1677.6 1765.6 1677.6C1767.6 1677.6 1769.5 1678.3 1771 1679.7C1772.6 1681.2 1773.5 1683.2 1773.5 1685.3C1774.7 1736.6 1775.5 1783.5 1776 1828.7C1776.3 1852.2 1776.6 1876.5 1776.7 1900.4C1776.8 1916.6 1776.8 1932.3 1776.7 1947C1776.7 1955.3 1781.8 1962.5 1789.4 1965C1820.9 1975.3 1842.1 2004.5 1842.1 2037.7C1842.1 2071.3 1820.6 2100.6 1788.5 2110.7C1781.1 2113 1775.9 2120 1775.6 2128L1773.6 2179.7C1773.4 2184.1 1770.1 2187.7 1766 2187.8C1763.8 2187.9 1761.8 2187.1 1760.3 2185.7C1758.7 2184.3 1757.8 2182.3 1757.7 2180.2L1755.7 2128C1755.4 2120 1750.2 2113 1742.8 2110.7C1710.8 2100.6 1689.2 2071.3 1689.2 2037.7C1689.2 2004.6 1710.3 1975.4 1741.8 1965C1749.5 1962.5 1754.6 1955.3 1754.5 1947C1754.4 1928.9 1754.4 1914.1 1754.5 1900.5Z" fill="#F23850"/>
<path d="M1094.8 1974.1H1095.6L1095.8 1973.4C1108 1931.6 1132.7 1895.5 1167.2 1869C1200.8 1843.1 1243.2 1827 1286.6 1823.5C1345.5 1818.7 1398.5 1836 1435.9 1872.2C1438.8 1875 1442.9 1875.7 1446.6 1874.2C1450.4 1872.6 1452.7 1869.1 1452.7 1865V1696.3C1452.7 1661.2 1444.3 1626.1 1428.3 1594.8L1423.2 1583.8C1422.3 1581.5 1421.5 1579.1 1420.7 1576.8C1420.3 1575.5 1419.8 1574.1 1419.3 1572.8C1419.1 1572.2 1418.9 1571.6 1418.7 1570.9C1418.3 1569.7 1417.8 1568.5 1417.5 1567.3L1416.1 1561.6C1415.8 1560.4 1415.5 1559.3 1415.2 1558.1C1414.6 1555.6 1413.9 1552.9 1413.4 1550.4L1411.7 1539C1411.6 1538.3 1411.5 1537.5 1411.4 1536.8C1411.2 1535.6 1411 1534.5 1411 1533.3L1410.6 1527.6C1410.2 1518.5 1402.7 1511.4 1393.6 1511.4H669.3C660.6 1511.4 653.5 1518.5 653.5 1527.3V1800.9C653.5 1805.1 655.3 1809.1 658.5 1811.8C661.6 1814.5 665.7 1815.6 669.8 1815C674.3 1814.3 678.9 1813.8 683.4 1813.7C699.9 1813 716.3 1816.1 731 1822.5C745.7 1828.9 759.1 1838.9 769.8 1851.5C778.6 1861.8 788.9 1869.5 800.3 1874.6C811.8 1879.7 824.8 1882.2 837.9 1881.8C850.6 1881.4 863.4 1878.4 876 1872.9C887.8 1867.7 899.1 1860.3 909.6 1851C921.8 1840.1 935 1831.5 948.9 1825.4C964.2 1818.7 979.7 1815.1 995.2 1814.9C1011.3 1814.7 1027.5 1818.1 1041.8 1824.9C1055.5 1831.4 1068.2 1841.2 1078.5 1853.3C1081.4 1856.7 1081.4 1861.7 1078.4 1864.6C1075.2 1867.7 1070.3 1867.7 1067.2 1864.6L1067.1 1864.5C1057 1854.3 1045.9 1846.7 1034.3 1842C1022.3 1837 1009 1834.7 995.9 1835.4C983.1 1836 970.2 1839.2 957.7 1845C946.3 1850.3 935.1 1857.8 924.4 1867.5C912.2 1878.4 899 1887.2 885.2 1893.4C870.1 1900.2 854.5 1904 838.8 1904.6C822.3 1905.3 805.9 1902.2 791.2 1895.8C776.3 1889.3 762.9 1879.3 752.4 1866.8C743.9 1856.7 733.4 1848.7 721.9 1843.7C710.3 1838.6 697.3 1836.1 684.3 1836.5C682.4 1836.6 680.3 1836.7 678.1 1836.9C664.1 1838.3 653.6 1849.9 653.6 1864V1983.6L653.7 1983.8C655 1986.6 657.5 1988.7 660.5 1989.7C663.5 1990.7 666.7 1990.4 669.5 1988.9C673 1987.1 676.1 1985.5 679.1 1984.2C694.6 1977.4 710.1 1973.9 725.4 1973.7C741.5 1973.5 757.6 1976.9 772 1983.6C785.8 1990.1 798.5 1999.9 808.7 2011.9C811.6 2015.3 811.6 2020.3 808.6 2023.2C807.1 2024.7 805 2025.5 802.9 2025.5C800.8 2025.5 798.8 2024.6 797.3 2023.1L797.1 2023C787 2012.7 775.9 2005.1 764.4 2000.4C752.4 1995.3 739.1 1993 725.9 1993.7C712.8 1994.4 699.9 1997.7 687.7 2003.4C683.9 2005.2 678.8 2008.2 672.7 2012.4C661 2020.4 654.1 2033.6 654 2047.9L653.5 2188.8V2188.9C655.6 2195.6 661.7 2200.1 668.7 2200.1H752.1C758.1 2200.1 763 2205 763 2211V2293.6C763 2302.4 770.1 2309.5 778.9 2309.5H1436.8C1445.6 2309.5 1452.7 2302.4 1452.7 2293.6V2207C1452.7 2198.2 1445.6 2191.1 1436.8 2191.1H908.2C902.9 2191.1 898.4 2187.4 897.5 2182.2C896.8 2178.4 880.7 2089.2 934.8 2028C968.9 1989.5 1022.7 1971.3 1094.8 1974.1ZM1099.7 1745.7C1083.2 1746.4 1066.8 1743.3 1052.1 1736.9C1037.5 1730.6 1024 1720.5 1013.3 1707.9C1004.8 1697.9 994.3 1689.9 982.8 1684.8C972.2 1680 960.2 1677.6 948.1 1677.6C947.1 1677.6 946.2 1677.6 945.2 1677.6C932.5 1678 919.7 1681 907.1 1686.6C895.3 1691.8 884 1699.2 873.5 1708.5C861.1 1719.4 847.9 1728 834.2 1734C818.7 1740.8 803.2 1744.3 787.9 1744.5C771.8 1744.8 755.7 1741.3 741.3 1734.6C727.3 1728 714.5 1718 704.2 1705.8C702.8 1704.2 702.2 1702.1 702.3 1700C702.5 1697.9 703.5 1696 705.1 1694.6C708.3 1691.9 713 1692.2 715.9 1695.1L716 1695.2C726.2 1705.6 737.2 1713.2 748.8 1717.9C760.9 1723 774.2 1725.3 787.3 1724.6C800.5 1723.9 813.3 1720.6 825.5 1714.9C837 1709.6 848.2 1702 858.8 1692.4C870.9 1681.5 884.1 1672.7 898 1666.5C913.1 1659.7 928.7 1655.9 944.4 1655.3C960.9 1654.6 977.3 1657.7 992 1664.1C1006.7 1670.5 1020.1 1680.5 1030.8 1693.1C1039.2 1703.2 1049.8 1711.2 1061.3 1716.2C1072.8 1721.3 1085.8 1723.8 1098.9 1723.4C1111.7 1723 1124.5 1720 1137 1714.4C1148.8 1709.2 1160.1 1701.8 1170.6 1692.5C1183.1 1681.6 1196.3 1673 1209.9 1667C1225.4 1660.2 1240.9 1656.7 1256.1 1656.6C1272.3 1656.4 1288.4 1659.8 1302.7 1666.5C1316.6 1673.1 1329.5 1683 1339.8 1695.2C1342.6 1698.6 1342.2 1703.6 1338.8 1706.4C1335.6 1709.1 1330.9 1708.9 1328 1705.9L1327.9 1705.8C1317.7 1695.4 1306.7 1687.8 1295.1 1683.1C1283.1 1678.1 1269.8 1675.8 1256.6 1676.4C1243.4 1677.1 1230.6 1680.4 1218.4 1686.1C1206.8 1691.5 1195.6 1699.1 1185.1 1708.7C1173 1719.6 1159.8 1728.3 1145.9 1734.6C1131 1741.4 1115.4 1745.1 1099.7 1745.7Z" fill="#1D53A5"/>
<path d="M1303.2 1665.4C1288.6 1658.6 1272.3 1655.2 1256.2 1655.4C1240 1655.5 1224.1 1659.5 1209.6 1665.9C1195 1672.3 1181.8 1681.3 1170 1691.6C1159.9 1700.5 1148.7 1708 1136.7 1713.3C1124.7 1718.6 1111.8 1721.8 1099 1722.2C1086.2 1722.6 1073.4 1720.2 1061.9 1715.1C1050.3 1710 1040 1702.1 1031.8 1692.2C1021.2 1679.8 1007.8 1669.5 992.6 1663C977.5 1656.3 960.9 1653.4 944.6 1654.1C928.3 1654.7 912.4 1658.8 897.8 1665.4C883.2 1672 870 1681 858.3 1691.5C848.3 1700.6 837.3 1708.3 825.2 1713.9C813.2 1719.5 800.4 1722.8 787.4 1723.5C774.4 1724.2 761.4 1721.9 749.3 1716.9C737.2 1712 726.2 1704.1 716.8 1694.5L716.7 1694.4C713.4 1691.1 708.2 1690.8 704.6 1693.9C700.8 1697.1 700.4 1702.8 703.6 1706.5C713.7 1718.5 726.5 1728.6 741.1 1735.5C755.7 1742.3 772 1745.7 788.1 1745.5C804.3 1745.4 820.2 1741.4 834.8 1734.9C849.4 1728.5 862.6 1719.6 874.4 1709.2C884.501 1700.3 895.7 1692.8 907.7 1687.5C919.7 1682.2 932.6 1679 945.4 1678.6C958.201 1678.2 971 1680.5 982.5 1685.7C994.1 1690.8 1004.4 1698.7 1012.6 1708.5C1023.2 1720.9 1036.6 1731.2 1051.8 1737.8C1066.9 1744.4 1083.5 1747.3 1099.8 1746.7C1116.1 1746.1 1132 1742 1146.5 1735.4C1161.1 1728.8 1174.3 1719.9 1186 1709.4C1196 1700.3 1207.1 1692.6 1219.1 1687C1231.1 1681.4 1244 1678.1 1256.9 1677.4C1269.9 1676.7 1282.9 1679 1295 1684C1307.1 1688.9 1318 1696.8 1327.5 1706.4L1327.6 1706.5C1330.9 1709.8 1336.2 1710.1 1339.7 1707C1343.5 1703.8 1344 1698.2 1340.8 1694.4C1330.6 1682.5 1317.8 1672.3 1303.2 1665.4Z" fill="black"/>
<path d="M1992.4 1771C1985.3 1768.8 1980.6 1762 1980.3 1754.6L1978.1 1685.3C1977.9 1680.4 1973.8 1676.4 1968.7 1676.6C1963.9 1676.8 1960.3 1681 1960.1 1685.7L1957.9 1754.5C1957.7 1761.9 1952.9 1768.7 1945.8 1770.9C1914.4 1780.8 1891.6 1810.2 1891.6 1844.8C1891.6 1879.1 1914 1908.3 1945 1918.4C1952.3 1920.8 1957 1927.8 1957 1935.4C1956.9 1949.5 1956.9 1963.6 1957 1977.7C1957.1 2000.2 1957.4 2022.7 1957.8 2045.1C1958.1 2067.6 1958.4 2090.1 1958.8 2112.5L1960.2 2179.9C1960.3 2184.9 1964.5 2188.9 1969.6 2188.7C1974.4 2188.5 1978 2184.3 1978.1 2179.4L1979.5 2112.5C1979.9 2090 1980.3 2067.5 1980.5 2045.1C1980.8 2022.6 1981.1 2000.1 1981.2 1977.7C1981.3 1963.6 1981.3 1949.5 1981.2 1935.4C1981.2 1927.7 1986 1920.7 1993.2 1918.4C2024.1 1908.2 2046.5 1879.1 2046.5 1844.8C2046.6 1810.3 2023.8 1780.9 1992.4 1771ZM1969.2 1898.5C1939.7 1898.5 1915.6 1874.5 1915.6 1844.9C1915.6 1816.1 1938.4 1792.7 1966.9 1791.4C1967.8 1791.6 1968.7 1791.7 1969.6 1791.7C1970.2 1791.7 1970.9 1791.6 1971.5 1791.4C2000 1792.6 2022.8 1816.1 2022.8 1844.9C2022.8 1874.5 1998.8 1898.5 1969.2 1898.5Z" fill="black"/>
<path d="M1789.7 1964.1C1782.4 1961.7 1777.7 1954.7 1777.7 1947.1C1777.8 1931.6 1777.8 1916 1777.7 1900.5C1777.6 1876.6 1777.3 1852.7 1777 1828.8C1776.5 1781 1775.6 1733.2 1774.5 1685.4C1774.4 1680.4 1770.2 1676.4 1765.1 1676.7C1760.3 1676.9 1756.7 1681.1 1756.6 1686C1755.5 1733.6 1754.7 1781.3 1754.2 1828.9C1753.9 1852.8 1753.6 1876.7 1753.5 1900.6C1753.4 1916.1 1753.4 1931.7 1753.5 1947.2C1753.6 1954.9 1748.8 1961.9 1741.5 1964.2C1710.6 1974.4 1688.2 2003.5 1688.2 2037.8C1688.2 2072.4 1711.1 2101.8 1742.5 2111.7C1749.6 2113.9 1754.4 2120.6 1754.7 2128.1L1756.7 2180.2C1756.9 2185.1 1761 2189 1766 2188.8C1770.7 2188.6 1774.4 2184.4 1774.6 2179.7L1776.6 2128.1C1776.9 2120.6 1781.7 2114 1788.8 2111.7C1820.2 2101.9 1843.1 2072.4 1843.1 2037.8C1843.1 2003.5 1820.7 1974.3 1789.7 1964.1ZM1768.2 2091.2C1767.2 2091 1766.2 2090.8 1765.1 2090.8C1764.3 2090.8 1763.5 2090.9 1762.8 2091.1C1734.5 2089.6 1712 2066.3 1712 2037.7C1712 2008.1 1736 1984.1 1765.6 1984.1C1795.1 1984.1 1819.2 2008.1 1819.2 2037.7C1819.2 2066.4 1796.6 2089.8 1768.2 2091.2Z" fill="black"/>
<path d="M877.899 321.6L892.999 329.9C911.399 339.9 926.399 355 936.399 373.3L944.699 388.4C946.799 392.2 950.799 394.6 955.199 394.6C959.599 394.6 963.599 392.2 965.699 388.4L973.999 373.3C983.999 354.9 999.099 339.9 1017.4 329.9L1032.5 321.6C1036.3 319.5 1038.7 315.5 1038.7 311.1C1038.7 306.7 1036.3 302.7 1032.5 300.6L1017.4 292.3C998.999 282.3 983.999 267.2 973.999 248.9L965.699 233.8C963.599 230 959.599 227.6 955.199 227.6C950.799 227.6 946.799 230 944.699 233.8L936.399 248.9C926.399 267.3 911.299 282.3 892.999 292.3L877.899 300.6C874.099 302.7 871.699 306.7 871.699 311.1C871.699 315.5 874.099 319.5 877.899 321.6Z" fill="black"/>
<path d="M2484.5 977.3L2499.6 985.6C2518 995.6 2533 1010.7 2543 1029L2551.3 1044.1C2553.4 1047.9 2557.4 1050.3 2561.8 1050.3C2566.2 1050.3 2570.2 1047.9 2572.3 1044.1L2580.6 1029C2590.6 1010.6 2605.7 995.6 2624 985.6L2639.1 977.3C2642.9 975.2 2645.3 971.2 2645.3 966.8C2645.3 962.4 2642.9 958.4 2639.1 956.3L2624 948C2605.6 938 2590.6 922.9 2580.6 904.6L2572.3 889.5C2570.2 885.7 2566.2 883.3 2561.8 883.3C2557.4 883.3 2553.4 885.7 2551.3 889.5L2543 904.6C2533 923 2518 938 2499.6 948L2484.5 956.3C2480.7 958.4 2478.3 962.4 2478.3 966.8C2478.3 971.1 2480.6 975.2 2484.5 977.3Z" fill="black"/>
<path d="M1306 2525.4L1290.9 2517.1C1272.5 2507.1 1257.5 2492 1247.5 2473.7L1239.2 2458.6C1237.1 2454.8 1233.1 2452.4 1228.7 2452.4C1224.3 2452.4 1220.3 2454.8 1218.2 2458.6L1209.9 2473.7C1199.9 2492.1 1184.9 2507.1 1166.5 2517.1L1151.4 2525.4C1147.6 2527.5 1145.2 2531.5 1145.2 2535.9C1145.2 2540.3 1147.6 2544.3 1151.4 2546.4L1166.5 2554.7C1184.9 2564.7 1199.9 2579.8 1209.9 2598.1L1218.2 2613.2C1220.3 2617 1224.3 2619.4 1228.7 2619.4C1233.1 2619.4 1237.1 2617 1239.2 2613.2L1247.5 2598.1C1257.5 2579.7 1272.6 2564.7 1290.9 2554.7L1306 2546.4C1309.8 2544.3 1312.2 2540.3 1312.2 2535.9C1312.2 2531.5 1309.8 2527.5 1306 2525.4Z" fill="black"/>
<path d="M1745.4 1160.3C1781.1 1179.1 1809.3 1210.3 1824.9 1248.3L1825.1 1248.9C1827.7 1255.2 1826.1 1262.4 1821.3 1267.3C1817.1 1271.5 1813.7 1276.6 1811.4 1282.3C1806.5 1293.9 1806.5 1306.7 1811.3 1318.4C1816.1 1330 1825.1 1339.1 1836.7 1343.9C1837.2 1344.1 1837.8 1344.3 1838.3 1344.5C1846.7 1347.7 1852.8 1354.7 1855.7 1363.2C1856 1364 1856.3 1364.9 1856.6 1365.7L1863.3 1381.9C1866.8 1390.3 1872.9 1397.6 1881 1401.9C1886.6 1404.8 1892.7 1406.3 1898.7 1406.3C1903.6 1406.3 1908.5 1405.3 1913.1 1403.4C1918.5 1401.2 1924.2 1400.1 1930 1400.1C1937.2 1400.1 1944.4 1401.8 1950.9 1405.3C1969.5 1415.1 1991.8 1416.6 2012.1 1408.2L2023.4 1403.6L2034.7 1398.9C2055 1390.6 2069.8 1373.8 2076.1 1353.8C2080.1 1341.2 2089.4 1331 2101.6 1326C2120.9 1318 2130.1 1295.9 2122.2 1276.5L2115.2 1259.4C2114.9 1258.6 2114.5 1257.7 2114.1 1256.9C2110.1 1248.9 2109.5 1239.6 2113.2 1231.5C2113.4 1231 2113.7 1230.5 2113.9 1229.9C2118.8 1218.3 2118.8 1205.5 2114 1193.8C2110.3 1184.8 2104.1 1177.6 2096.6 1172.6C2089.1 1167.6 2080.2 1164.8 2071.1 1164.7C2064.2 1164.6 2057.9 1160.7 2055.3 1154.3L2055 1153.6C2039.5 1116 2037.7 1073.6 2049.9 1034C2064.8 985.7 2062 933.4 2042 886.8C2030.8 860.7 2014.8 837.5 1994.8 818.1C1974.9 798.8 1951.1 783.3 1924.3 772.7C1870.8 751.4 1812.5 752.2 1760.2 774.8C1708.5 797.2 1668.4 838.3 1647.1 890.5C1625.8 942.8 1626 1000.4 1647.4 1052.5C1666.5 1098.8 1701.3 1137.1 1745.4 1160.3ZM2100.1 1285.6C2103.1 1292.7 2099.6 1300.9 2092.5 1303.9L1904 1381.5C1900.6 1382.9 1896.7 1382.9 1893.3 1381.5C1889.8 1380.1 1887.1 1377.4 1885.7 1373.9L1878.7 1356.8C1877.3 1353.3 1877.3 1349.5 1878.7 1346.1C1880.1 1342.6 1882.8 1340 1886.3 1338.5L2074.8 1260.9C2076.5 1260.2 2078.3 1259.9 2080.1 1259.9C2081.9 1259.9 2083.7 1260.3 2085.5 1261C2089 1262.4 2091.6 1265.2 2093.1 1268.6L2100.1 1285.6ZM2061.6 1190.2C2064.5 1189 2067.5 1188.5 2070.4 1188.5C2079.5 1188.5 2088.2 1193.9 2091.9 1202.9C2093.1 1205.8 2093.7 1208.7 2093.7 1211.8C2093.7 1214.8 2093.1 1217.9 2091.9 1220.7C2089.5 1226.4 2085.1 1230.9 2079.3 1233.2L1989.4 1270.2L1877.2 1316.4L1863.7 1321.9C1858 1324.3 1851.6 1324.3 1845.9 1321.9C1840.2 1319.5 1835.7 1315 1833.3 1309.3C1830.9 1303.6 1831 1297.2 1833.4 1291.5C1835.8 1285.8 1840.2 1281.4 1846 1279L1849.8 1277.4L1908.6 1253.2L2061.6 1190.2ZM1769.8 796.8C1793.7 786.4 1819.1 781.2 1844.6 781.2C1868.5 781.2 1892.5 785.8 1915.5 794.9C1963 813.8 2000.1 849.8 2020.1 896.2C2030.3 920.1 2035.5 945.6 2035.5 971.2C2035.5 990 2032.7 1008.8 2027.1 1026.9C2013.9 1069.8 2015.3 1115.7 2030.8 1157C2031 1160.9 2030.3 1164.9 2028.5 1168.6C2024.8 1176.2 2017.5 1181.2 2010.2 1185.5L1898.2 1231.6C1891.5 1233.4 1885.1 1236.1 1878.4 1238.5C1859.6 1245.3 1849.2 1237 1839.2 1222.2C1820.6 1186.7 1791.8 1157.6 1756.7 1139C1717.5 1118.3 1686.6 1084.3 1669.7 1043.3C1630.4 948.3 1675.3 837.6 1769.8 796.8Z" fill="black"/>
<path d="M1722.1 1022.6L1775.7 1047.3C1775.8 1047.3 1775.9 1047.4 1776 1047.4C1781.8 1049.9 1788.4 1047.3 1790.9 1041.5L1791.1 1041L1806.6 1005.1C1808.5 1000.7 1813.7 998.5 1818.2 1000.4L1854.4 1015C1860.4 1017.4 1867.2 1014.6 1869.8 1008.7L1885.3 972.8C1887.2 968.3 1892.3 966.2 1896.8 968L1933.1 982.6L1933.7 982.8L1933.9 982.9C1939.7 985.1 1946.3 982.2 1948.5 976.3L1969.4 920.4C1971 915.9 1968.9 910.7 1964.2 908.9C1959.8 907.2 1954.8 909.5 1952.7 913.7L1935.5 948.7C1933.4 952.9 1928.5 954.8 1924.1 953.1L1887 938.1C1881 935.7 1874.1 938.5 1871.6 944.5L1856.1 980.4C1854.2 984.8 1849.1 987 1844.6 985.1L1808.4 970.5C1802.4 968.1 1795.5 970.9 1793 976.8L1777.1 1013.6C1775.3 1017.9 1770.4 1020 1766 1018.5L1728.6 1005.6C1724.1 1004 1718.9 1006.3 1717.2 1011.1C1715.4 1015.7 1717.8 1020.6 1722.1 1022.6Z" fill="black"/>
<path d="M2829.4 1798.8L2829.3 1790C2829.4 1787.1 2828.9 1784.1 2828.6 1781.2L2827.7 1772.5L2825.9 1763.8C2825.3 1760.9 2824.8 1758 2823.9 1755.2C2822.1 1749.6 2820.7 1743.9 2818.3 1738.5C2809.6 1716.7 2796.2 1696.7 2779 1680.7C2770.2 1672.9 2760.9 1665.6 2750.6 1659.9L2742.9 1655.6C2740.3 1654.3 2737.6 1653.2 2734.9 1652C2732.2 1650.9 2729.5 1649.6 2726.9 1648.5L2719.1 1645.7C2698.4 1638.2 2677.9 1631.8 2658.5 1623.8C2648.8 1619.9 2639.4 1615.5 2630.4 1610.6C2621.4 1605.7 2613.1 1600.2 2604.8 1593.9C2588.3 1581.5 2573.5 1567 2559.9 1551C2546.2 1535.1 2534.1 1517.7 2520.4 1500.1C2516.9 1495.7 2513.4 1491.3 2509.5 1487C2505.6 1482.7 2501.4 1478.4 2496.6 1474.5C2491.9 1470.5 2486.5 1466.8 2480.6 1463.9C2474.7 1460.9 2468 1458.9 2461.4 1458.1L2458.9 1457.8L2456.6 1457.6L2451.9 1457.4C2448.8 1457.3 2445.6 1457.6 2442.5 1457.7C2439.4 1458 2436.2 1458.5 2433.1 1459C2430 1459.8 2426.9 1460.4 2423.8 1461.4C2411.7 1465.3 2400.2 1472.5 2391.5 1482.2C2382.7 1491.9 2376.8 1503.9 2373.9 1516C2371 1528.2 2370.7 1540.5 2371.8 1552.3C2374 1575.9 2382 1598.2 2392.7 1618.4C2400.8 1633.4 2410.2 1647.4 2420.5 1660.5L2420.6 1660.7C2426.2 1667.9 2419 1677.9 2410.4 1674.9C2390.3 1667.7 2368.1 1659.9 2368.1 1659.9L2315.9 1641.6C2304.5 1637.6 2296.9 1626.9 2296.9 1614.8V855.8C2296.9 847.6 2303.6 840.9 2311.8 840.9H2348.1C2354.7 840.9 2360 835.6 2360 829V808.1C2360 803.1 2364 799.1 2368.9 799.1H2394.4C2401 799.1 2406.3 793.8 2406.3 787.2V568.2C2406.3 561.6 2401 556.3 2394.4 556.3H2175.3C2168.7 556.3 2163.4 561.6 2163.4 568.2V589.1C2163.4 594.1 2159.4 598.1 2154.5 598.1H2129C2122.4 598.1 2117.1 603.4 2117.1 610V650.9C2117.1 659.1 2110.4 665.8 2102.2 665.8H1464H1463.9C1463.8 665.8 1463.8 665.8 1463.8 665.8H1364C1353.6 665.8 1344 660.1 1338.7 651.2C1324.5 627.4 1304.4 607.4 1279.8 593C1200.5 546.7 1098.5 573.6 1052.2 652.9L1051.9 653.4C1047.6 661.1 1039.4 665.9 1030.6 665.9H779C770.7 665.9 764.1 659.2 764.1 651V568.3C764.1 561.7 758.8 556.4 752.2 556.4H533C526.4 556.4 521.1 561.7 521.1 568.3V589.2C521.1 594.2 517.1 598.2 512.2 598.2H486.7C480.1 598.2 474.8 603.5 474.8 610.1V829.2C474.8 835.8 480.1 841.1 486.7 841.1H615.8C624 841.1 630.7 847.8 630.7 856V1776.7C630.7 1804.2 619 1830.4 598.5 1848.8L597.2 1850C587.2 1859.1 576.2 1866.8 564.1 1872.4C552.1 1878 539.3 1881.3 526.3 1882C513.3 1882.7 500.3 1880.5 488.2 1875.4C476.1 1870.5 465.1 1862.6 455.7 1853L455.6 1852.9C452.2 1849.4 446.5 1849.3 443 1852.8C439.6 1856.2 439.7 1861.8 442.8 1865.5C452.8 1877.3 465.5 1887.3 479.9 1894C494.5 1900.8 510.8 1904.2 526.9 1904C543.1 1903.8 559 1899.8 573.6 1893.4C588.2 1887 601.4 1878 613.2 1867.7L613.4 1867.5C620.1 1861.6 630.7 1866.3 630.7 1875.3V1998C628.2 2012 619.2 2024.2 606 2030.1C605.9 2030.2 605.8 2030.2 605.8 2030.2C593.8 2035.5 580.9 2038.7 568 2039.1C555.2 2039.5 542.4 2037.2 530.9 2032C519.3 2026.9 509 2019 500.8 2009.1C490.2 1996.7 476.8 1986.4 461.6 1979.9C446.5 1973.3 429.8 1970.4 413.6 1971C397.3 1971.6 381.4 1975.7 366.8 1982.3C352.2 1988.9 339 1997.9 327.3 2008.4C317.3 2017.5 306.2 2025.2 294.2 2030.8C282.2 2036.4 269.4 2039.7 256.4 2040.4C243.4 2041.1 230.4 2038.9 218.3 2033.8C206.1 2028.9 195.2 2021 185.8 2011.4L185.7 2011.3C182.3 2007.8 176.6 2007.7 173 2011.2C169.5 2014.6 169.7 2020.2 172.9 2023.8C182.9 2035.6 195.6 2045.6 209.9 2052.4C224.5 2059.2 240.8 2062.6 256.9 2062.4C273.1 2062.3 289 2058.3 303.6 2051.9C318.2 2045.5 331.4 2036.5 343.2 2026.2C353.3 2017.3 364.5 2009.8 376.5 2004.5C388.5 1999.2 401.4 1996 414.2 1995.6C427 1995.2 439.8 1997.6 451.4 2002.7C463 2007.8 473.3 2015.7 481.5 2025.5C492.1 2037.9 505.5 2048.2 520.7 2054.7C535.8 2061.3 552.5 2064.3 568.7 2063.6C585 2063 600.9 2058.9 615.5 2052.3L615.8 2052.2C622.7 2049.1 630.6 2054.1 630.6 2061.7V2188.1C628.8 2194.2 623.1 2198.7 616.4 2198.7H533C526.4 2198.7 521.1 2204.1 521.1 2210.6V2231.5C521.1 2236.5 517.1 2240.5 512.2 2240.5H486.7C480.1 2240.5 474.8 2245.9 474.8 2252.4V2471.5C474.8 2478.1 480.1 2483.4 486.7 2483.4H705.8C712.4 2483.4 717.7 2478.1 717.7 2471.5V2450.6C717.7 2445.7 721.7 2441.7 726.7 2441.7H752.2C758.8 2441.7 764.1 2436.4 764.1 2429.8V2347.1C764.1 2338.9 770.7 2332.2 779 2332.2H1463.4C1463.5 2332.2 1463.6 2332.2 1463.7 2332.2C1463.8 2332.2 1463.9 2332.2 1464 2332.2H2102C2110.2 2332.2 2116.9 2338.9 2116.9 2347.1V2471.6C2116.9 2478.2 2122.2 2483.5 2128.8 2483.5H2347.9C2354.5 2483.5 2359.8 2478.2 2359.8 2471.6V2451.8C2359.8 2446.9 2363.8 2442.9 2368.7 2442.9H2394.2C2400.8 2442.9 2406.1 2437.6 2406.1 2431V2211.9C2406.1 2205.3 2400.8 2200 2394.2 2200H2310.6C2304.2 2200 2298.7 2195.8 2296.6 2190.1V2109.6C2296.6 2097.5 2308.5 2089 2320 2093L2330.6 2096.7L2391.9 2118C2412.3 2125.1 2433.1 2132.3 2454.1 2138.5C2475.1 2144.8 2496.4 2150.4 2518.1 2154.7C2539.8 2159.1 2562 2162.1 2584.6 2162.8C2607.1 2163.4 2630.3 2161.5 2652.7 2154.7C2663.9 2151.2 2674.8 2146.5 2685.1 2140.4C2695.3 2134.3 2704.6 2126.6 2712.8 2118C2729.4 2100.7 2740.4 2079.4 2748 2057.9L2769.3 1996.5L2812 1873.8L2817.3 1858.5L2820 1850.8C2820.4 1849.6 2820.9 1848.2 2821.3 1846.8L2822.5 1842.6L2825 1834.1C2825.6 1831.2 2826.1 1828.3 2826.7 1825.5C2827.2 1822.6 2827.9 1819.8 2828.2 1816.8L2829 1808L2829.4 1803.6C2829.5 1801.8 2829.4 1800.3 2829.4 1798.8ZM2187.2 595.1C2187.2 586.9 2193.9 580.2 2202.1 580.2H2367.5C2375.7 580.2 2382.4 586.9 2382.4 595.1V760.5C2382.4 768.7 2375.7 775.4 2367.5 775.4H2202.1C2193.9 775.4 2187.2 768.7 2187.2 760.5V595.1ZM1475.6 704.6C1475.6 696.4 1482.3 689.7 1490.5 689.7H2102C2110.2 689.7 2116.9 696.4 2116.9 704.6V829C2116.9 835.6 2122.2 840.9 2128.8 840.9H2257.9C2266.1 840.9 2272.8 847.6 2272.8 855.8V1470.5C2272.8 1478.7 2266.2 1485.4 2258 1485.4H1670.5C1669.5 1430.2 1662 1375 1648 1321.6C1633.1 1264.5 1610.8 1209.2 1581.8 1157.8C1560 1119.2 1534.4 1082.7 1505.5 1049C1486.4 1026.8 1475.6 998.7 1475.6 969.5V704.6ZM1094.9 801.1H1095.2C1135.8 801.1 1163 775.5 1187.9 752.1C1201 739.7 1213.6 727.9 1227.6 719.3C1285.3 684.1 1352.9 749.1 1319.3 807.7C1319.2 808 1319 808.2 1318.9 808.5C1297.8 844.7 1262.6 869.4 1220.8 877C1192.5 882.1 1163.6 878.6 1137.5 866.7C1115.8 856.8 1097.4 842.3 1083.5 824.4C1075.8 815 1082.9 801.1 1094.9 801.1ZM559.9 775.4C551.6 775.4 545 768.7 545 760.5V595.1C545 586.9 551.7 580.2 559.9 580.2H725.2C733.4 580.2 740.1 586.9 740.1 595.1V760.5C740.1 768.7 733.4 775.4 725.2 775.4H559.9ZM740.2 2402.7C740.2 2411 733.5 2417.6 725.3 2417.6H559.9C551.6 2417.6 545 2410.9 545 2402.7V2237.3C545 2229.1 551.7 2222.4 559.9 2222.4H639.9C640.8 2222.6 641.8 2222.8 642.8 2222.7C643.7 2222.7 644.5 2222.6 645.3 2222.4H725.2C733.4 2222.4 740.1 2229.1 740.1 2237.3V2402.7H740.2ZM1451.7 2153.3C1451.7 2161.5 1445 2168.2 1436.8 2168.2H918.7C916.4 2144.9 914.9 2084.9 952.1 2043C982.9 2008.3 1033.6 1993 1103.1 1997.4C1108.9 1997.7 1114.1 1993.9 1115.4 1988.3C1138.8 1891.8 1223.3 1851.5 1288.5 1846.2C1290.3 1846 1292.2 1845.9 1294 1845.8C1380 1841.3 1451.7 1911.5 1451.7 1997.7V2153.3ZM1451.7 1865C1451.7 1872.8 1442.2 1877 1436.6 1871.5C1399.7 1835.8 1346.5 1817.7 1286.5 1822.5C1242.9 1826 1200.3 1842.3 1166.5 1868.2C1131.6 1895 1107 1931.1 1094.7 1973.1C1022.3 1970.3 968.3 1988.5 934 2027.3C879.5 2088.8 895.7 2178.5 896.4 2182.3C897.4 2187.9 902.4 2192 908.1 2192H1436.7C1444.9 2192 1451.6 2198.7 1451.6 2206.9V2293C1451.6 2301.2 1444.9 2307.9 1436.7 2307.9H779C770.7 2307.9 764.1 2301.2 764.1 2293V2210.4C764.1 2203.8 758.8 2198.5 752.2 2198.5H668.8C662.1 2198.5 656.5 2194.1 654.6 2188L655.1 2047.3C655.1 2033.5 661.9 2020.5 673.3 2012.7C678.5 2009.2 683.9 2005.8 688.2 2003.8C700.2 1998.2 713.1 1994.9 726 1994.2C739 1993.5 752 1995.7 764.1 2000.8C776.2 2005.7 787.2 2013.6 796.6 2023.2L796.7 2023.3C800.1 2026.8 805.8 2026.9 809.4 2023.4C812.9 2020 812.7 2014.4 809.5 2010.8C799.4 1999 786.8 1989 772.4 1982.2C757.8 1975.4 741.5 1972 725.4 1972.2C709.2 1972.4 693.3 1976.4 678.7 1982.8C675.4 1984.2 672.2 1985.8 669.1 1987.5C663.6 1990.5 657.1 1988 654.6 1982.9V1863.6C654.6 1850.1 664.8 1838.8 678.2 1837.5C680.2 1837.3 682.3 1837.1 684.3 1837.1C697.1 1836.7 709.9 1839.1 721.5 1844.2C733.1 1849.3 743.3 1857.2 751.6 1867.1C762.1 1879.6 775.6 1889.8 790.7 1896.4C805.9 1903.1 822.5 1906 838.8 1905.3C855.1 1904.7 871 1900.6 885.6 1894C900.2 1887.4 913.4 1878.4 925.1 1867.9C935.2 1858.9 946.2 1851.2 958.2 1845.6C970.2 1840 983 1836.7 996 1836.1C1008.9 1835.4 1022 1837.6 1034 1842.6C1046.1 1847.5 1057.1 1855.3 1066.5 1864.9L1066.6 1865C1070 1868.4 1075.6 1868.6 1079.3 1865.1C1082.7 1861.7 1082.6 1856.2 1079.4 1852.5C1069.4 1840.7 1056.8 1830.6 1042.4 1823.8C1027.8 1817 1011.5 1813.5 995.3 1813.7C979.1 1814 963.2 1817.9 948.6 1824.3C934 1830.7 920.7 1839.6 909 1850.1C899 1859 887.7 1866.5 875.7 1871.8C863.7 1877.1 850.8 1880.3 838 1880.7C825.2 1881.1 812.4 1878.8 800.9 1873.6C789.3 1868.5 779.1 1860.6 770.7 1850.8C760.1 1838.4 746.7 1828.1 731.5 1821.6C716.4 1815 699.7 1812 683.5 1812.7C678.9 1812.9 674.3 1813.3 669.8 1814C661.8 1815.3 654.7 1809 654.7 1800.9V1527.3C654.7 1519.1 661.4 1512.4 669.5 1512.4H1329.7C1329.7 1512.4 1329.7 1512.4 1329.8 1512.4H1393.9C1402.4 1512.4 1409.5 1519.1 1409.9 1527.7L1410.3 1533.4C1410.4 1535.3 1410.8 1537.2 1411.1 1539.1L1412.8 1550.5C1413.5 1554.3 1414.6 1558.1 1415.4 1561.8L1416.8 1567.5C1417.4 1569.3 1418.1 1571.2 1418.7 1573.1C1420 1576.8 1421.1 1580.5 1422.6 1584.1L1427.5 1594.8L1427.7 1595.2C1443.6 1626.5 1452 1661.2 1452 1696.3V1865H1451.7ZM1449.3 1583.8L1445.1 1574.8C1443.8 1571.7 1442.9 1568.5 1441.7 1565.4C1441.2 1563.8 1440.6 1562.3 1440.1 1560.7L1438.9 1555.8C1438.1 1552.5 1437.2 1549.3 1436.5 1546L1435 1535.9C1434.8 1534.2 1434.4 1532.6 1434.3 1530.9L1433.9 1525.8L1433.2 1515.6L1433.3 1505.3L1433.6 1483.6L1433.8 1472.4C1433.9 1468.7 1434 1464.9 1433.6 1461.2L1432.3 1438.8L1432.1 1436L1431.7 1433.2L1431 1427.6L1429.5 1416.4C1425 1386.7 1416.7 1357.3 1402.9 1330C1401.3 1326.5 1399.3 1323.3 1397.4 1320C1395.4 1316.7 1393.6 1313.4 1391.4 1310.2L1384.7 1300.8C1382.5 1297.7 1379.8 1294.8 1377.4 1291.9C1376.1 1290.5 1375 1288.9 1373.6 1287.5L1369.5 1283.4C1368.1 1282 1366.8 1280.6 1365.4 1279.3L1361 1275.5C1358.2 1272.9 1355 1270.6 1351.9 1268.2C1348.6 1265.9 1345.6 1263.8 1341.5 1261.6C1337.4 1259.4 1332.2 1260.7 1329.6 1264.9C1327.2 1268.9 1328.5 1274 1332.2 1276.8L1332.6 1277.1C1334.7 1278.7 1337.4 1281.1 1339.9 1283.2C1342.3 1285.5 1344.8 1287.7 1347.1 1290.3L1350.6 1294C1351.8 1295.3 1352.9 1296.7 1354 1298C1356.1 1300.5 1358.3 1303 1360.1 1305.6C1362.1 1308.5 1364.4 1311.1 1366.2 1314.1L1371.8 1322.7C1373.6 1325.6 1375.1 1328.7 1376.9 1331.6C1378.6 1334.6 1380.4 1337.5 1381.7 1340.7C1393.9 1365.4 1401.6 1392.3 1405.7 1419.9L1407 1430.3L1407.7 1435.5L1407.8 1436.4C1409.2 1452.9 1398.2 1481.5 1376.3 1470.3C1367.1 1465.6 1363.2 1452.1 1360.4 1439.8C1358.7 1425.1 1354.9 1410.5 1349.2 1396.8C1335.3 1364.7 1310.8 1337.3 1280.2 1320.3C1264.8 1311.9 1248.1 1306.1 1230.9 1303.1L1224.4 1302.1C1222.3 1301.8 1220.1 1301.4 1217.9 1301.3L1204.8 1300.6H1180.5H1121.3C1109.7 1300.6 1101.2 1289.8 1103.8 1278.5L1122.1 1201C1123.2 1196.2 1120.2 1191.3 1115.2 1190.2C1110.5 1189.2 1105.9 1192.3 1104.6 1196.9L1071.9 1309.5C1071.6 1310.6 1071.4 1311.7 1071.4 1312.8C1071.4 1319.3 1076.7 1324.5 1083.1 1324.5H1180.4H1204.6L1215.7 1325.1C1217.5 1325.1 1219.4 1325.5 1221.2 1325.8L1226.7 1326.6C1241.3 1329.2 1255.5 1334.1 1268.5 1341.2C1294.5 1355.6 1315.3 1378.9 1327.1 1406.1C1332.8 1419.8 1336.2 1434.4 1337.2 1449.2L1337.5 1454.8C1337.6 1456.6 1337.7 1458.4 1337.7 1460.5V1485.4H859.5C851.9 1484.1 844.7 1481.8 838.5 1478.1C833.3 1475 828.8 1471.2 825 1466.5C821.2 1461.8 818.2 1456.3 815.7 1450.4C810.9 1438.5 808.8 1424.9 808.2 1411C807.6 1397.1 808.7 1382.9 810.5 1368.7C814.3 1340.4 821.5 1312.1 830.2 1284.4C839 1256.6 849.5 1229.3 861.1 1202.5C884.3 1148.8 911.9 1096.8 943 1047.1C958.5 1022.3 975.1 998.1 992.7 974.8C1004.8 958.9 1017.4 943.3 1030.8 928.7C1036.3 922.7 1045.6 922.2 1051.7 927.6C1066 940.3 1081.9 951.3 1099.2 959.6C1124.6 972.1 1152.4 979.4 1180.5 981.3C1208.6 983.2 1237 979.8 1263.9 971.3C1284.8 964.7 1305 954.9 1322.8 941.1C1327.7 937.3 1334.4 936.8 1339.8 940C1383 965.7 1422.7 997.5 1457.9 1033.6C1497.7 1074.3 1531.8 1120.4 1559.7 1170C1587.6 1219.6 1609.1 1272.8 1623.5 1327.8C1637.9 1382.8 1645.1 1439.7 1645.2 1496.6C1645.1 1524.3 1640.7 1551.7 1630.3 1576.4C1624.8 1588.5 1617.9 1599.8 1609.3 1609.6C1600.7 1619.4 1590.2 1627.2 1578.8 1632.9C1567.3 1638.5 1554.7 1641.8 1542 1642.3C1529.3 1642.8 1516.4 1640.6 1504.5 1635.9C1492.6 1631.2 1481.5 1624.2 1472.2 1615.1C1462.9 1606.4 1455.3 1595.6 1449.3 1583.8ZM2163.3 2211.6V2231.4C2163.3 2236.4 2159.3 2240.4 2154.4 2240.4H2128.9C2122.3 2240.4 2117 2245.7 2117 2252.3V2293.2C2117 2301.4 2110.3 2308.1 2102.1 2308.1H1490.6C1482.4 2308.1 1475.7 2301.4 1475.7 2293.2V1672.2C1475.7 1662.1 1486 1655.3 1495.3 1659.3L1495.5 1659.4C1510.5 1665.3 1526.8 1668.2 1543.1 1667.6C1559.3 1667 1575.4 1663 1589.9 1655.8C1604.5 1648.7 1617.5 1638.8 1628.2 1626.8C1638.8 1614.8 1647.1 1601.2 1653.6 1586.9C1663.8 1563 1668.8 1537.6 1670.3 1512.4H2239.5C2239.5 1512.4 2239.5 1512.4 2239.6 1512.4H2258.2C2266.4 1512.4 2273 1519.1 2273 1527.3V1609.1C2273 1617.8 2264.4 1623.9 2256.2 1621L2184 1595.8L2153.3 1585L2138 1579.7L2130.3 1577C2129.2 1576.6 2127.6 1576.2 2126.2 1575.7C2124.6 1575.2 2123.1 1574.7 2121.5 1574.4C2108.9 1571.5 2095.6 1571.7 2083 1574.9C2070.6 1578.3 2059 1584.6 2049.5 1593.3C2040.1 1602.1 2032.8 1613.2 2028.5 1625.3C2024.3 1637.5 2023.2 1650.7 2025 1663.4C2027 1676.1 2032.2 1688.2 2039.7 1698.6C2047.4 1708.9 2057.7 1717.3 2069.2 1722.8C2072.1 1724.1 2075.2 1725.3 2078 1726.4L2085.7 1729.1L2101.1 1734.4L2131.8 1745L2193.2 1766.2C2198 1767.8 2199 1774.2 2194.9 1777.2C2178.3 1789.3 2166.9 1807.6 2163.5 1829.1C2161.8 1840.1 2162.5 1851.4 2165.6 1862.2C2171.1 1880.9 2182.6 1896.2 2197.9 1906.4C2198.2 1906.6 2198.5 1906.8 2198.9 1907C2205.3 1910.7 2206.2 1919.5 2201 1924.7L2200.9 1924.8C2183.3 1939.2 2172.5 1961.7 2172.3 1984.5C2172.2 1997.3 2175 2010.1 2181 2021.4C2186.9 2032.7 2195.3 2042.8 2205.9 2050C2208.6 2051.8 2211.2 2053.6 2214.1 2055C2215.5 2055.8 2216.9 2056.6 2218.4 2057.2L2222.8 2059L2225 2059.9L2226.9 2060.6L2230.7 2061.9L2238.4 2064.6L2250.8 2068.9C2263.8 2073.4 2272.6 2085.7 2272.6 2099.5V2190.1C2270.5 2195.8 2265.1 2199.8 2258.7 2199.8H2175C2168.6 2199.6 2163.3 2205 2163.3 2211.6ZM2367.4 2223.5C2375.6 2223.5 2382.3 2230.2 2382.3 2238.4V2403.8C2382.3 2412 2375.6 2418.7 2367.4 2418.7H2352.7C2351.2 2418 2349.6 2417.6 2347.8 2417.6C2346 2417.6 2344.4 2418 2342.9 2418.7H2202C2193.8 2418.7 2187.1 2412 2187.1 2403.8V2238.4C2187.1 2230.2 2193.8 2223.5 2202 2223.5H2367.4ZM2804.6 1802.2L2804.3 1805.9L2803.7 1813.3C2803.5 1815.8 2802.9 1818.2 2802.5 1820.6C2802 1823 2801.6 1825.5 2801.1 1827.9L2799 1835L2798 1838.6C2797.7 1839.8 2797.3 1841 2796.8 1842.3L2794.1 1850L2788.8 1865.3L2746.2 1988.1L2724.9 2049.5C2721.3 2059.1 2717.6 2068.5 2712.6 2077C2707.7 2085.6 2702 2093.8 2695.2 2100.8C2688.5 2107.8 2681 2114.1 2672.6 2119.1C2664.2 2124.1 2655.2 2128 2645.7 2131C2626.7 2136.8 2606.1 2138.7 2585.4 2138.1C2564.7 2137.5 2543.8 2134.7 2523.1 2130.6C2502.3 2126.5 2481.7 2121.1 2461.2 2115C2440.7 2108.9 2420.5 2102.1 2400 2094.9L2338.6 2073.6L2277.2 2052.3L2246.5 2041.6L2238.8 2038.9L2235 2037.6L2233.1 2036.9L2231.6 2036.3L2228.5 2035C2227.4 2034.6 2226.5 2034 2225.5 2033.5C2223.5 2032.5 2221.6 2031.3 2219.8 2030C2212.5 2025.1 2206.6 2018 2202.5 2010.2C2198.3 2002.4 2196.4 1993.4 2196.4 1984.6C2196.6 1966.9 2205.9 1949.3 2220.9 1939.7C2228.2 1934.7 2236.9 1931.8 2245.7 1930.9C2247.9 1930.5 2250.1 1930.7 2252.3 1930.6C2254.5 1930.7 2256.7 1930.9 2258.9 1931.2C2261.1 1931.7 2263.3 1931.9 2265.4 1932.6L2268.6 1933.5L2272.4 1934.8L2333.8 1956C2374.8 1970 2415.9 1983.6 2457.5 1995.9C2462.1 1997.2 2467.2 1994.7 2468.6 1989.9C2470 1985.4 2467.3 1980.6 2462.9 1978.8C2422.8 1962.7 2382.3 1948 2341.6 1933.6L2280.2 1912.2L2276.3 1910.9L2276.1 1910.8L2223.2 1892.4C2204.8 1886 2191.2 1870.7 2187.2 1850.6C2186.3 1846.1 2186 1841.4 2186.4 1836.8C2188.1 1816.5 2199.8 1799.7 2217.3 1791.3C2230.3 1785 2244.9 1784.1 2258.6 1788.7L2315.9 1808.4C2336.4 1815.4 2357 1822.2 2377.6 1828.8C2398.2 1835.5 2418.9 1842.1 2439.6 1848.3C2444.2 1849.7 2449.3 1847.1 2450.8 1842.3C2452.2 1837.8 2449.5 1833 2445 1831.2C2425 1823.3 2404.9 1815.7 2384.7 1808.3C2364.4 1800.7 2344 1793.3 2323.6 1786.1L2200.9 1743.1L2139.5 1721.6L2108.8 1710.9L2093.5 1705.5L2085.8 1702.8C2083.5 1701.9 2081.6 1701.2 2079.6 1700.2C2071.7 1696.3 2064.7 1690.6 2059.5 1683.5C2054.4 1676.3 2050.8 1668 2049.5 1659.3C2048.3 1650.6 2049.1 1641.7 2052 1633.3C2055 1625 2059.9 1617.5 2066.3 1611.5C2072.7 1605.5 2080.7 1601.2 2089.1 1598.8C2097.6 1596.6 2106.6 1596.4 2115.2 1598.3C2116.3 1598.5 2117.3 1598.9 2118.4 1599.2C2119.5 1599.6 2120.4 1599.7 2121.7 1600.2L2144.7 1608.1L2175.4 1618.7L2298.3 1661.1L2359.7 1682.3L2421.2 1703.2C2439.4 1709.4 2457.7 1715.4 2476 1721.4C2478.3 1723.7 2481.4 1724.9 2484.4 1724.9C2485 1724.9 2485.6 1724.9 2486.2 1724.8C2495.4 1727.8 2504.6 1730.8 2513.8 1733.7L2544.8 1743.5C2549.5 1745 2554.7 1742.4 2556.1 1737.5C2557.5 1732.9 2554.7 1728.1 2550.2 1726.4L2520.3 1715C2520.2 1715 2520.1 1714.9 2520 1714.9C2501.6 1707.9 2485.1 1697 2471.5 1682.8C2463.4 1674.3 2454.6 1665 2448.9 1658.1C2435.3 1642 2423 1625 2413.4 1607C2403.8 1588.9 2397.1 1569.7 2395.4 1550C2394.6 1540.3 2394.9 1530.7 2397 1521.8C2399.1 1512.9 2403.2 1504.9 2409 1498.6C2414.8 1492.2 2422.3 1487.5 2430.7 1484.8C2439 1482 2448.6 1481.4 2457.3 1482.5C2473.4 1484.3 2487.3 1499 2500.1 1515.4C2513 1532 2525.6 1550.2 2540.1 1567.2C2554.5 1584.3 2570.8 1600.3 2588.9 1613.9C2597.8 1620.7 2607.6 1627.2 2617.7 1632.6C2627.7 1638.1 2638 1642.7 2648.4 1646.9C2669.1 1655.4 2690 1661.9 2710 1669.1L2717.5 1671.8C2719.8 1672.7 2722.1 1673.8 2724.4 1674.7C2726.6 1675.7 2729 1676.6 2731.2 1677.7L2737.7 1681.3C2746.3 1686.1 2754.2 1692.2 2761.6 1698.7C2776.2 1712.1 2787.4 1729 2794.7 1747.4C2796.8 1751.9 2797.9 1756.8 2799.5 1761.5C2800.3 1763.8 2800.7 1766.3 2801.2 1768.7L2802.7 1776L2803.5 1783.4C2803.7 1785.9 2804.2 1788.3 2804.1 1790.8L2804.2 1798.2C2804.6 1799.7 2804.6 1801 2804.6 1802.2Z" fill="black"/>
<path d="M1418.6 448.1L1441.1 460.4C1469.4 475.9 1492.5 499 1507.9 527.2L1520.2 549.7C1522.3 553.5 1526.3 555.9 1530.7 555.9C1535.1 555.9 1539.1 553.5 1541.2 549.7L1553.5 527.2C1569 498.9 1592 475.9 1620.3 460.4L1642.8 448.1C1646.6 446 1649 442 1649 437.6C1649 433.2 1646.6 429.2 1642.8 427.1L1620.3 414.8C1592.1 399.3 1569 376.2 1553.5 348L1541.2 325.5C1539.1 321.7 1535.1 319.3 1530.7 319.3C1526.3 319.3 1522.3 321.7 1520.2 325.5L1507.9 348C1492.4 376.3 1469.3 399.4 1441.1 414.8L1418.6 427.1C1414.8 429.2 1412.4 433.2 1412.4 437.6C1412.4 442 1414.7 446 1418.6 448.1Z" fill="black"/>
<path d="M182.802 1610.9L205.302 1623.2C233.602 1638.7 256.702 1661.8 272.102 1690L284.402 1712.5C286.502 1716.3 290.502 1718.7 294.902 1718.7C299.302 1718.7 303.302 1716.3 305.402 1712.5L317.702 1690C333.202 1661.7 356.202 1638.7 384.502 1623.2L407.002 1610.9C410.802 1608.8 413.202 1604.8 413.202 1600.4C413.202 1596 410.802 1592 407.002 1589.9L384.502 1577.6C356.302 1562.1 333.202 1539 317.702 1510.8L305.402 1488.3C303.302 1484.5 299.302 1482.1 294.902 1482.1C290.502 1482.1 286.502 1484.5 284.402 1488.3L272.102 1510.8C256.602 1539.1 233.502 1562.2 205.302 1577.6L182.802 1589.9C179.002 1592 176.602 1596 176.602 1600.4C176.602 1604.7 179.002 1608.8 182.802 1610.9Z" fill="black"/>
<path d="M2027.6 2643.6L2005.1 2631.3C1976.9 2615.8 1953.8 2592.7 1938.3 2564.5L1926 2542C1923.9 2538.2 1919.9 2535.8 1915.5 2535.8C1911.1 2535.8 1907.1 2538.2 1905 2542L1892.7 2564.5C1877.2 2592.8 1854.1 2615.9 1825.9 2631.3L1803.4 2643.6C1799.6 2645.7 1797.2 2649.7 1797.2 2654.1C1797.2 2658.5 1799.6 2662.5 1803.4 2664.6L1825.9 2676.9C1854.2 2692.4 1877.3 2715.5 1892.7 2743.7L1905 2766.2C1907.1 2770 1911.1 2772.4 1915.5 2772.4C1919.9 2772.4 1923.9 2770 1926 2766.2L1938.3 2743.7C1953.8 2715.4 1976.8 2692.4 2005.1 2676.9L2027.6 2664.6C2031.4 2662.5 2033.8 2658.5 2033.8 2654.1C2033.8 2649.7 2031.5 2645.7 2027.6 2643.6Z" fill="black"/>
<path d="M399.6 1122.6C420.09 1122.6 436.7 1105.99 436.7 1085.5C436.7 1065.01 420.09 1048.4 399.6 1048.4C379.11 1048.4 362.5 1065.01 362.5 1085.5C362.5 1105.99 379.11 1122.6 399.6 1122.6Z" fill="black"/>
<path d="M653.398 2696.1C679.908 2696.1 701.398 2674.61 701.398 2648.1C701.398 2621.59 679.908 2600.1 653.398 2600.1C626.889 2600.1 605.398 2621.59 605.398 2648.1C605.398 2674.61 626.889 2696.1 653.398 2696.1Z" fill="black"/>
<path d="M2645.2 1396.7C2671.71 1396.7 2693.2 1375.21 2693.2 1348.7C2693.2 1322.19 2671.71 1300.7 2645.2 1300.7C2618.69 1300.7 2597.2 1322.19 2597.2 1348.7C2597.2 1375.21 2618.69 1396.7 2645.2 1396.7Z" fill="black"/>
<path d="M2598.9 2552.3C2619.39 2552.3 2636 2535.69 2636 2515.2C2636 2494.71 2619.39 2478.1 2598.9 2478.1C2578.41 2478.1 2561.8 2494.71 2561.8 2515.2C2561.8 2535.69 2578.41 2552.3 2598.9 2552.3Z" fill="black"/>
<path d="M283.399 2395.8C297.593 2395.8 309.099 2384.29 309.099 2370.1C309.099 2355.91 297.593 2344.4 283.399 2344.4C269.205 2344.4 257.699 2355.91 257.699 2370.1C257.699 2384.29 269.205 2395.8 283.399 2395.8Z" fill="black"/>
<path d="M1605.6 2478.1C1619.79 2478.1 1631.3 2466.59 1631.3 2452.4C1631.3 2438.21 1619.79 2426.7 1605.6 2426.7C1591.4 2426.7 1579.9 2438.21 1579.9 2452.4C1579.9 2466.59 1591.4 2478.1 1605.6 2478.1Z" fill="black"/>
<path d="M258.399 677.799C272.593 677.799 284.099 666.293 284.099 652.099C284.099 637.906 272.593 626.399 258.399 626.399C244.205 626.399 232.699 637.906 232.699 652.099C232.699 666.293 244.205 677.799 258.399 677.799Z" fill="black"/>
<path d="M2598.9 735.099C2613.09 735.099 2624.6 723.593 2624.6 709.399C2624.6 695.206 2613.09 683.699 2598.9 683.699C2584.71 683.699 2573.2 695.206 2573.2 709.399C2573.2 723.593 2584.71 735.099 2598.9 735.099Z" fill="black"/>
<path d="M2187.2 393.7C2207.69 393.7 2224.3 377.09 2224.3 356.6C2224.3 336.11 2207.69 319.5 2187.2 319.5C2166.71 319.5 2150.1 336.11 2150.1 356.6C2150.1 377.09 2166.71 393.7 2187.2 393.7Z" fill="black"/>
</svg>
