<?xml version="1.0" encoding="UTF-8"?>
<svg width="1035px" height="135px" viewBox="0 0 1035 135" version="1.1" xmlns="http://www.w3.org/2000/svg" xmlns:xlink="http://www.w3.org/1999/xlink">
    <title>Logo-Final-Dark-Medium-On-Trans</title>
    <g id="Logo-Final-Dark-Medium-On-Trans" stroke="none" stroke-width="1" fill="none" fill-rule="evenodd">
        <path d="M1021.06838,30 L1021.06838,22.003096 L1024,22.003096 L1024,21 L1017,21 L1017,22.003096 L1019.90171,22.003096 L1019.90171,30 L1021.06838,30 Z M1027.0721,30 L1027.0721,23.0340557 L1030.09091,28.1609907 L1030.88088,28.1609907 L1033.87147,23.0340557 L1033.87147,30 L1035,30 L1035,21 L1033.84326,21 L1030.51411,26.8513932 L1027.15674,21 L1026,21 L1026,30 L1027.0721,30 Z" id="™" fill="#FFFFFF" fill-rule="nonzero"></path>
        <g id="Group">
            <path d="M51,0 L0.0454933802,101 C0.0454933802,90.6831868 0.0454933802,83.3549045 0.0454933802,79.0151531 C0.0454933802,64.4435309 0.0454933802,53.9739937 0.0454933802,47.6065416 C0.0454933802,33.6220783 0.0454933802,23.7138904 0.0454933802,17.8819779 C0.0454933802,14.8231355 0.0454933802,12.8856806 0.0454933802,12.0696133 C0.0454933802,6.20561111 -0.944024528,0 6.3067203,0 C11.1405502,0 26.0383101,0 51,0 Z" id="Triangle" fill="#2359B3"></path>
            <polygon id="Triangle" fill="#FFFFFF" points="109 78.2900657 24 135 51.107491 64.0945535 56.4890282 61.5729652 61.5462933 60"></polygon>
            <polygon id="Rectangle" fill="#03C3A6" points="60.939127 0 131 0 131 47 37 47"></polygon>
            <polygon id="Rectangle" fill="#FD1C57" transform="translate(80.500000, 80.000000) rotate(-180.000000) translate(-80.500000, -80.000000) " points="9 56 74.0787961 66.9318498 152 56 127.903283 104 29.8137226 104"></polygon>
            <path d="M159.69285,2.53670714 C160.90796,4.09195051 161,6.12408848 161,8.32937823 C161,9.7995714 161,41.023112 161,102 L140,54.8035739 L140,0 L154.72176,0.00838309011 C157.225747,0.657103543 158.882777,1.49987823 159.69285,2.53670714 Z" id="Triangle" fill="#F4B81A"></path>
        </g>
        <path d="M252.143951,103 C269.70291,103 283.499234,94.6872428 292,84.2962963 L274.998469,69.7489712 C269.284839,76.5377229 261.341501,80.8326475 252.143951,80.8326475 C235.97856,80.8326475 225.526799,68.5020576 225.526799,52.7078189 C225.526799,34.696845 237.650842,24.1673525 252.004594,24.1673525 C261.620214,24.1673525 269.563553,29.2935528 274.859112,35.5281207 L291.860643,20.9807956 C280.990812,7.81893004 265.940276,2 252.004594,2 C219.3951,2 201,24.5829904 201,52.7078189 C201,85.4046639 223.715161,103 252.143951,103 Z M317.550515,102 L317.550515,67.7690217 C317.550515,57.236413 322.523711,52.2472826 330.121649,52.2472826 C337.719588,52.2472826 341.449485,55.5733696 341.449485,66.5217391 L341.449485,102 L363,102 L363,61.1168478 C363,39.7744565 352.639175,32.9836957 338.686598,32.9836957 C330.397938,32.9836957 323.076289,36.0326087 317.826804,41.9918478 L317.550515,41.8532609 L317.550515,0 L296,0 L296,102 L317.550515,102 Z M399.170213,103 C407.386847,103 413.514507,100.238659 417.970986,94.5779093 L418.249516,94.7159763 L418.249516,101.757396 L439,101.757396 L439,34.2426036 L417.135397,34.2426036 L417.135397,41.2840237 L416.856867,41.4220907 C412.121857,35.8994083 405.297872,33 398.056093,33 C380.508704,33 367,47.3589744 367,68.0690335 C367,88.9171598 380.508704,103 399.170213,103 Z M403.639423,84 C394.995192,84 389,77.6277056 389,68.0692641 C389,58.3722944 395.274038,52 403.639423,52 C411.725962,52 418,58.7878788 418,68.0692641 C418,77.7662338 411.447115,84 403.639423,84 Z M468.83631,103 C478.348214,103 483.244048,101.059613 488,98.4262295 L482.544643,82.4873323 C480.166667,83.5961252 477.369048,84.0119225 475.830357,84.0119225 C471.633929,84.0119225 470.654762,80.8241431 470.654762,76.3889717 L470.654762,51.4411326 L487.160714,51.4411326 L487.160714,33.9776453 L470.654762,33.9776453 L470.654762,10 L448.693452,12.2175857 L448.693452,33.9776453 L441,33.9776453 L441,51.4411326 L448.693452,51.4411326 L448.693452,80.4083458 C448.693452,95.7928465 457.08631,103 468.83631,103 Z M516.023256,102 L516.023256,47.3408451 L516.44186,47.3408451 L536.534884,83.7338028 L551.465116,83.7338028 L571.55814,47.4802817 L571.837209,47.4802817 L571.837209,102 L595,102 L595,3 L571.418605,3 L544.209302,55.5676056 L543.930233,55.5676056 L516.44186,3 L493,3 L493,102 L516.023256,102 Z M632.170213,103 C640.386847,103 646.514507,100.238659 650.970986,94.5779093 L651.249516,94.7159763 L651.249516,101.757396 L672,101.757396 L672,34.2426036 L650.135397,34.2426036 L650.135397,41.2840237 L649.856867,41.4220907 C645.121857,35.8994083 638.297872,33 631.056093,33 C613.508704,33 600,47.3589744 600,68.0690335 C600,88.9171598 613.508704,103 632.170213,103 Z M637.639423,84 C628.995192,84 623,77.6277056 623,68.0692641 C623,58.3722944 629.274038,52 637.639423,52 C645.725962,52 652,58.7878788 652,68.0692641 C652,77.7662338 645.447115,84 637.639423,84 Z M701.775,102 L701.775,67.9156627 C701.775,57.3855422 706.8,52.2590361 714.3375,52.2590361 C721.45625,52.2590361 725.225,55.4457831 725.225,66.6686747 L725.225,102 L747,102 L747,61.4036145 C747,39.9277108 736.670833,33 722.572917,33 C714.616667,33 707.358333,36.0481928 702.054167,42.1445783 L701.775,42.1445783 L701.775,34.246988 L680,34.246988 L680,102 L701.775,102 Z M782.170213,103 C790.386847,103 796.514507,100.238659 800.970986,94.5779093 L801.249516,94.7159763 L801.249516,101.757396 L822,101.757396 L822,34.2426036 L800.135397,34.2426036 L800.135397,41.2840237 L799.856867,41.4220907 C795.121857,35.8994083 788.297872,33 781.056093,33 C763.508704,33 750,47.3589744 750,68.0690335 C750,88.9171598 763.508704,103 782.170213,103 Z M787.639423,84 C778.995192,84 773,77.6277056 773,68.0692641 C773,58.3722944 779.274038,52 787.639423,52 C795.725962,52 802,58.7878788 802,68.0692641 C802,77.7662338 795.447115,84 787.639423,84 Z M861.162791,131 C888.790698,131 898,115.431206 898,93.329078 L898,34.2510638 L876.093023,34.2510638 L876.093023,40.9234043 L875.813953,40.9234043 C870.651163,35.6411348 863.674419,33 856.27907,33 C839.116279,33 826,47.3177305 826,67.4737589 C826,86.7957447 839.116279,100.974468 857.534884,100.974468 C865.488372,100.974468 871.767442,98.1943262 876.372093,93.4680851 L876.651163,93.6070922 L876.651163,99.8624113 C876.651163,106.951773 870.651163,112.790071 858.790698,112.790071 C851.255814,112.790071 843.72093,110.148936 838,106.812766 L833.116279,124.466667 C841.488372,129.053901 850.139535,131 861.162791,131 Z M863.570048,82 C855.304348,82 849,76.2274882 849,67.5687204 C849,58.9099526 855.164251,53 863.570048,53 C871.695652,53 878,58.9099526 878,67.4312796 C878,75.9526066 871.835749,82 863.570048,82 Z M938.454175,103 C953.826884,103 963.244399,97.8915187 968.922607,90.8500986 L956.458248,78.147929 C951.887984,83.2564103 946.209776,85.3274162 940.670061,85.4654832 C932.360489,85.4654832 925.851324,81.4615385 924.466395,73.729783 L970.584521,73.729783 C970.663462,72.9428008 970.7874,71.5726647 970.879389,70.1818939 L970.888951,70.0354451 C970.890524,70.0110323 970.892086,69.9866193 970.893637,69.9622091 L970.902808,69.815805 C970.960003,68.8890966 971,67.9751479 971,67.2406312 C971,47.2209073 957.01222,33 937.900204,33 C917.403259,33 903,47.4970414 903,67.9309665 C903,88.9171598 917.95723,103 938.454175,103 Z M949,61 L924,61 C925.36612,54.0897436 930.284153,50 936.84153,50 C943.262295,50 947.63388,54.2307692 949,61 Z M997.481967,102 L997.481967,71.5180723 C997.481967,62.6506024 1002.71475,56.1385542 1012.90492,56.1385542 C1014.00656,56.1385542 1015.93443,56.2771084 1018,56.4156627 L1018,33 L1017.17377,33 C1009.7377,33 1002.71475,36.7409639 997.757377,43.6686747 L997.481967,43.6686747 L997.481967,34.246988 L976,34.246988 L976,102 L997.481967,102 Z" id="ChatManager" fill="#FFFFFF" fill-rule="nonzero"></path>
    </g>
</svg>