<?xml version="1.0" encoding="UTF-8"?>
<svg width="1209px" height="178px" viewBox="0 0 1209 178" version="1.1" xmlns="http://www.w3.org/2000/svg" xmlns:xlink="http://www.w3.org/1999/xlink">
    <title>full-logo-white-on-dark@3x</title>
    <g id="Page-1" stroke="none" stroke-width="1" fill="none" fill-rule="evenodd">
        <g id="full-logo-white-on-dark" fill-rule="nonzero">
            <g id="Group" transform="translate(211.31, 3.68)" fill="#FFFFFF">
                <path d="M220.42,113.35 L222.3,124.45 L244.61,124.45 L244.61,40.05 L222.3,40.05 L220.42,50.98 L219.43,49.9 C216.04,46.18 211.92,43.29 207.17,41.31 C202.41,39.33 197.12,38.32 191.46,38.32 C183.64,38.32 176.6,40.19 170.55,43.86 C164.5,47.54 159.71,52.76 156.31,59.39 C152.9,66.03 151.18,73.73 151.18,82.26 C151.18,90.79 152.91,98.49 156.31,105.13 C159.71,111.76 164.5,116.98 170.55,120.66 C176.6,124.34 183.64,126.2 191.46,126.2 C202.9,126.2 212.31,122.25 219.43,114.45 L220.42,113.35 Z M213.18,98.47 C209.24,102.59 204.09,104.69 197.89,104.69 C191.68,104.69 186.57,102.57 182.68,98.38 C178.81,94.21 176.84,88.79 176.84,82.26 C176.84,75.73 178.8,70.31 182.68,66.14 C186.57,61.95 191.68,59.83 197.88,59.83 C204.08,59.83 209.22,61.92 213.17,66.05 C217.11,70.17 219.100037,75.62 219.100037,82.27 C219.11,88.9 217.11,94.35 213.18,98.47 Z" id="Shape"></path>
                <rect id="Rectangle" x="365.41" y="40.05" width="25.85" height="84.4"></rect>
                <path d="M583.42,105.07 C586.83,98.43 588.55,90.73 588.55,82.2 C588.55,73.67 586.82,65.97 583.42,59.33 C580.02,52.71 575.2,47.48 569.09,43.8 C562.97,40.12 555.91,38.26 548.09,38.26 C537.78,38.26 529,41.53 521.99,47.98 L520.79,49.08 L520.79,4.21 L494.94,4.21 L494.94,124.4 L517.25,124.4 L519.13,113.3 L520.12,114.38 C527.24,122.18 536.65,126.13 548.09,126.13 C555.92,126.13 562.98,124.26 569.09,120.59 C575.2,116.92 580.02,111.7 583.42,105.07 Z M556.94,98.42 C553,102.54 547.85,104.64 541.65,104.64 C535.44,104.64 530.33,102.52 526.44,98.33 C522.57,94.16 520.6,88.74 520.6,82.21 C520.6,75.68 522.56,70.26 526.44,66.09 C530.33,61.9 535.44,59.78 541.65,59.78 C547.85,59.78 552.99,61.87 556.94,66 C560.88,70.12 562.870037,75.57 562.870037,82.22 C562.88,88.85 560.88,94.31 556.94,98.42 Z" id="Shape"></path>
                <rect id="Rectangle" x="601.52" y="4.31" width="25.85" height="120.19"></rect>
                <path d="M725.99,105.4 C729.73,98.82 731.63,91.05 731.63,82.3 C731.63,73.55 729.73,65.78 725.99,59.2 C722.26,52.64 716.8,47.44 709.77,43.76 C702.72,40.07 694.41,38.2 685.08,38.2 C675.75,38.2 667.47,40.07 660.48,43.76 C653.51,47.44 648.08,52.64 644.35,59.2 C640.61,65.78 638.71,73.55 638.71,82.3 C638.71,91.05 640.61,98.83 644.35,105.4 C648.09,111.97 653.51,117.16 660.48,120.84 C667.47,124.53 675.75,126.4 685.08,126.4 C694.41,126.4 702.72,124.53 709.77,120.83 C716.8,117.17 722.25,111.97 725.99,105.4 Z M700.21,98.42 C696.38,102.61 691.29,104.73 685.09,104.73 C679,104.73 673.97,102.61 670.14,98.42 C666.33,94.25 664.39,88.83 664.39,82.3 C664.39,75.77 666.32,70.35 670.14,66.18 C673.97,61.99 679,59.87 685.09,59.87 C691.29,59.87 696.38,61.99 700.21,66.18 C704.02,70.36 705.96,75.78 705.96,82.3 C705.95,88.83 704.02,94.25 700.21,98.42 Z" id="Shape"></path>
                <path d="M997.11,99.15 C997.11,91.09 994.12,84.74 988.23,80.27 C982.25,75.74 973.4,72.98 961.91,72.06 C957.69,71.58 954.78,70.87 952.98,69.9 C951.04,68.85 950.05,67.29 950.05,65.27 C950.05,60.64 954.5,58.3 963.28,58.3 C971.57,58.3 978.86,60.09 984.99,63.61 L994.4,46.57 C990.4,43.91 985.63,41.78 980.19,40.26 C974.49,38.66 968.41,37.85 962.12,37.85 C951.09,37.85 942.23,40.35 935.77,45.27 C929.38,50.14 926.14,56.82 926.14,65.1 C926.14,72.7 929.13,78.94 935.03,83.64 C941,88.4 949.18,91.09 959.34,91.66 C964.11,92.02 967.43,92.72 969.52,93.82 C971.74,94.99 972.87,96.78 972.87,99.15 C972.87,103.66 969.03,105.95 961.46,105.95 C956.25,105.95 950.95,105.24 945.69,103.84 C940.68,102.51 936.19,100.63 932.32,98.23 L923.06,115.77 C933.46,123.05 945.82,126.75 959.81,126.75 C971.5,126.75 980.75,124.25 987.32,119.33 C993.82,114.46 997.11,107.67 997.11,99.15 Z" id="Path"></path>
                <path d="M129.08,47.48 C122.99,41.28 114.51,38.14 103.88,38.14 C91.43,38.14 81.68,42.55 74.91,51.24 L74.27,52.05 L73.73,51.17 C71.26,47.13 67.84,43.92 63.58,41.61 C59.3,39.3 54.39,38.13 48.98,38.13 C44.24,38.13 39.76,39.1 35.64,41.02 C31.53,42.94 27.96,45.73 25.03,49.34 L24.03,50.58 L22.31,40.05 L0,40.05 L0,124.45 L25.85,124.45 L25.85,78.25 L25.85,75.1 C25.85,66.69 32.67,59.88 41.07,59.88 C49.47,59.88 56.29,66.7 56.29,75.1 L56.29,76.69 L56.29,124.45 L81.96,124.45 L81.96,75.1 C81.96,66.69 88.78,59.88 97.18,59.88 C105.59,59.88 112.4,66.7 112.4,75.1 L112.4,76.57 C112.4,76.61 112.41,76.64 112.41,76.68 L112.41,124.44 L138.26,124.44 L138.26,73.2 C138.26,62.34 135.17,53.69 129.08,47.48 Z" id="Path"></path>
                <circle id="Oval" cx="378.15" cy="15.07" r="15.07"></circle>
                <path d="M470.34,97.51 C465.35,102.24 459.29,104.65 452.33,104.65 C440.57,104.65 429.66,96.95 429.66,82.22 C429.66,65.93 442.44,59.79 452.33,59.79 C458.74,59.79 464.42,61.91 469.24,66.08 L481.81,49.17 C477.95,45.88 473.63,43.29 468.92,41.46 C463.24,39.24 457.19,38.12 450.94,38.12 C441.84,38.12 433.71,39.99 426.78,43.68 C419.86,47.36 414.41,52.59 410.56,59.22 C406.7,65.85 404.75,73.65 404.75,82.4 C404.75,91.27 406.68,99.1 410.47,105.67 C414.26,112.23 419.71,117.37 426.68,120.94 C433.67,124.52 442.01,126.34 451.46,126.34 C463.44,126.34 474.02,122.36 482.97,114.52 L470.34,97.51 Z" id="Path"></path>
                <path d="M808.65,97.95 C803.66,102.68 797.6,105.09 790.64,105.09 C778.88,105.09 767.97,97.39 767.97,82.66 C767.97,66.37 780.75,60.23 790.64,60.23 C797.05,60.23 802.73,62.35 807.55,66.52 L820.12,49.61 C816.26,46.32 811.94,43.73 807.23,41.9 C801.55,39.68 795.5,38.56 789.25,38.56 C780.15,38.56 772.02,40.43 765.09,44.12 C758.17,47.8 752.72,53.03 748.87,59.66 C745.01,66.29 743.06,74.09 743.06,82.84 C743.06,91.71 744.99,99.54 748.78,106.11 C752.57,112.67 758.02,117.81 764.99,121.38 C771.98,124.96 780.32,126.78 789.77,126.78 C801.75,126.78 812.33,122.8 821.28,114.96 L808.65,97.95 Z" id="Path"></path>
                <polygon id="Path" points="888.39 80.05 917.51 40.05 888.2 40.05 859.04 81.42 890.1 124.45 921.96 124.45"></polygon>
                <polygon id="Path" points="860.41 74.06 860.41 65.27 860.41 4.31 834.74 4.31 834.74 124.5 860.41 124.5 860.41 96.37 860.41 89.06"></polygon>
                <path d="M333.72,111.65 L332.52,111.1 L333.64,110.4 C339.07,107 343.35,102.62 346.34,97.36 C349.33,92.1 350.85,86.29 350.85,80.08 C350.85,72.74 349.49,64.41 345.65,58.13 C344.88,56.88 344.01,55.72 343.12,54.57 L352.37,43.27 L335.53,29.47 L325.68,41.49 C319.55,38.99 312.67,37.71 305.17,37.71 C305.11,37.71 305.05,37.71 305,37.71 C304.94,37.71 304.88,37.71 304.83,37.71 C295.84,37.71 287.73,39.53 280.75,43.1 C273.78,46.67 268.26,51.72 264.35,58.13 C260.44,64.53 258.46,71.92 258.46,80.08 C258.46,88.6 260.38,96.16 264.18,102.56 C267.97,108.96 273.43,113.98 280.39,117.49 C287.38,121.01 295.66,122.8 305,122.8 C311.26,122.8 316.17,124.04 319.58,126.5 C323.06,129 324.83,132.62 324.83,137.25 C324.83,141.76 322.92,145.43 319.15,148.17 C315.45,150.86 310.57,152.22 304.66,152.22 C298.02,152.22 292.86,150.58 289.32,147.34 C285.91,144.22 284.22,139.84 284.29,134.32 L259.44,134.32 C259.37,135.18 259.34,136.33 259.34,137.77 C259.34,144.89 261.2,151.24 264.86,156.65 C268.53,162.07 273.83,166.31 280.62,169.25 C287.45,172.21 295.88,173.65 305.01,173.65 C314.37,173.65 322.35,172.24 329.41,169.33 C336.43,166.44 341.94,162.26 345.78,156.89 C349.61,151.53 351.55,145.27 351.55,138.28 C351.55,132.32 349.98,126.99 346.9,122.44 C343.8,117.88 339.37,114.25 333.72,111.65 Z M319.94,95.35 C316.11,99.18 311.03,101.12 304.84,101.12 C298.64,101.12 293.56,99.15 289.74,95.26 C285.91,91.38 283.98,86.27 283.98,80.08 C283.98,73.77 285.92,68.66 289.75,64.89 C293.35,61.35 298.06,59.47 303.75,59.25 L303.75,59.26 C304.17,59.24 304.59,59.22 305.02,59.21 C311.25,59.25 316.3,61.15 320.03,64.89 C323.8,68.66 325.71,73.77 325.71,80.08 C325.71,86.39 323.76,91.52 319.94,95.35 Z" id="Shape"></path>
            </g>
            <g id="Group" transform="translate(86, 0)">
                <polygon id="Path" fill="#F982C3" points="54.52 86.01 86 54.53 31.48 0 11.88 74.78"></polygon>
                <polygon id="Path" fill="#EF56A3" points="43.18 43.15 31.48 0 0 31.48 11.88 74.78"></polygon>
                <polygon id="Path" fill="#EA2880" points="86 54.53 74.48 11.53 31.48 0 43.18 43.15"></polygon>
            </g>
            <g id="Group" transform="translate(-0, 0)">
                <polygon id="Path" fill="#FFD878" points="31.47 86.01 0 54.53 54.52 0 74.12 74.78"></polygon>
                <polygon id="Path" fill="#F9C33E" points="42.82 43.15 54.52 0 86 31.48 74.12 74.78"></polygon>
                <polygon id="Path" fill="#F9AD03" points="0 54.53 11.52 11.53 54.52 0 42.82 43.15"></polygon>
            </g>
            <g id="Group" transform="translate(-0, 86.01)">
                <polygon id="Path" fill="#7DF4D0" points="31.47 0 0 31.48 54.52 86 74.12 11.22"></polygon>
                <polygon id="Path" fill="#47DDB2" points="42.82 42.85 54.52 86 86 54.52 74.12 11.22"></polygon>
                <polygon id="Path" fill="#37BC9B" points="0 31.48 11.52 74.48 54.52 86 42.82 42.85"></polygon>
            </g>
            <polygon id="Path" fill="#5BD9FC" points="140.52 86.01 172 117.49 117.48 172.01 97.88 97.23"></polygon>
            <polygon id="Path" fill="#30C4F2" points="129.18 128.86 117.48 172.01 86 140.53 97.88 97.23"></polygon>
            <polygon id="Path" fill="#1FAAE8" points="172 117.49 160.48 160.49 117.48 172.01 129.18 128.86"></polygon>
        </g>
    </g>
</svg>