<svg width="2567" height="2479" viewBox="0 0 2567 2479" fill="none" xmlns="http://www.w3.org/2000/svg">
<path d="M2214.5 598.929C2203.74 590.421 2190.95 596.13 2174.37 615.815L2125.97 671.02L2155.65 634.537L2200.33 579.616C2203.02 575.986 2204.93 571.838 2205.93 567.433C2206.36 565.457 2206.58 563.441 2206.59 561.418C2206.74 558.106 2206.09 554.806 2204.7 551.795C2203.31 548.785 2201.22 546.152 2198.6 544.117C2196.77 542.773 2194.7 541.78 2192.5 541.186C2189.53 540.398 2186.41 540.263 2183.38 540.793C2176.54 542.059 2170.35 545.671 2165.88 551.007C2165.27 551.707 2164.7 552.451 2164.13 553.194L2096.33 637.359L2123.65 598.645L2162.08 544.139C2164.34 540.902 2165.89 537.214 2166.6 533.326C2167.31 529.438 2167.18 525.442 2166.21 521.611C2165.33 518.354 2163.69 515.355 2161.42 512.862C2160.42 511.776 2159.3 510.814 2158.07 509.997C2147.82 503.063 2132.99 507.131 2124.94 519.052L2075.73 585.784C2066.17 598.492 2065.42 605.469 2070.3 584.953C2077.69 553.697 2082.48 537.731 2063.48 509.712C2039.26 474.038 1982.31 510.193 2011.9 518.767C2062.43 533.4 2027.21 603.085 1992.72 591.208C1981.52 587.359 1985 575.11 1989.81 560.915C1977.69 557.372 1964.57 556.103 1952.12 553.041C1941.58 583.094 1932.44 620.014 1925.18 636.615C1924.26 638.693 1924.43 641.165 1922.82 642.783C1910.94 654.594 1897.47 664.174 1885.63 675.351C1932.61 723.47 1976.77 776.379 2020.3 827.036C2104.51 753.085 2172.9 687.053 2199.19 650.57C2216.12 627.254 2229.49 610.718 2214.5 598.929Z" fill="#03C3A6"/>
<path d="M2029.73 497.332C2033.36 497.365 2036.97 497.887 2040.47 498.885C2045.13 500.036 2049.49 502.167 2053.26 505.135C2057.03 508.103 2060.13 511.841 2062.34 516.098C2072.16 534.493 2068.6 562.315 2062.01 582.196C2057.4 596.151 2056.57 598.666 2059.56 602.822C2060.39 603.959 2061.47 604.884 2062.72 605.523C2063.97 606.161 2065.35 606.495 2066.76 606.497C2071.7 606.497 2073.82 603.5 2077.69 598.054C2079.07 596.107 2080.76 593.679 2082.81 590.989L2132.02 524.235L2132.24 523.929C2133.81 521.429 2135.96 519.345 2138.5 517.852C2141.04 516.36 2143.91 515.503 2146.85 515.355C2149.12 515.323 2151.34 515.979 2153.22 517.236C2153.9 517.689 2154.51 518.225 2155.06 518.832C2156.38 520.272 2157.32 522.015 2157.81 523.907C2158.45 526.517 2158.53 529.234 2158.03 531.875C2157.53 534.516 2156.47 537.02 2154.93 539.217L2116.54 593.636L2089.31 632.35C2087.97 634.207 2087.42 636.512 2087.76 638.773C2088.11 641.033 2089.33 643.069 2091.15 644.444C2092.98 645.819 2095.27 646.425 2097.54 646.13C2099.81 645.836 2101.87 644.666 2103.28 642.87L2170.96 558.684C2171.05 558.591 2171.13 558.489 2171.2 558.378C2171.61 557.809 2172.07 557.262 2172.53 556.737C2175.65 552.966 2179.98 550.386 2184.78 549.432C2185.58 549.297 2186.4 549.231 2187.21 549.235C2188.25 549.228 2189.29 549.361 2190.29 549.629C2191.46 549.931 2192.56 550.451 2193.53 551.16C2195 552.405 2196.17 553.976 2196.92 555.75C2197.68 557.523 2198.02 559.449 2197.9 561.374C2197.9 562.712 2197.76 564.045 2197.49 565.355C2197.48 565.435 2197.48 565.516 2197.49 565.595C2196.75 568.749 2195.39 571.723 2193.49 574.344L2149 629.025L2119.23 665.574C2118.18 666.856 2117.52 668.41 2117.32 670.053C2117.12 671.697 2117.39 673.364 2118.1 674.859C2118.81 676.355 2119.93 677.619 2121.33 678.503C2122.73 679.388 2124.35 679.857 2126.01 679.856C2129.97 679.856 2129.97 679.856 2140.16 668.264L2156.83 649.279L2181.08 621.676L2181.22 621.545C2194.1 606.234 2201.25 604.047 2204.36 604.047C2206.16 604.087 2207.9 604.778 2209.23 605.994C2212.32 608.421 2213.41 610.565 2211.42 616.164C2208.91 622.945 2202.67 631.672 2195.26 641.799L2192.24 645.473C2169.47 677.122 2106.65 743.089 2021.44 814.787C1988.85 776.969 1942.85 724.432 1895.87 675.766L1901.56 671.173C1915.6 659.821 1930.1 648.098 1933.71 636.046C1936.36 627.122 1939.02 617.105 1941.87 606.497C1946.35 589.677 1951.01 572.288 1956.19 556.847C1969.08 518.526 1977.83 516.58 1979.44 516.58C1980.11 516.601 1980.77 516.765 1981.37 517.061C1992.44 522.026 1991.23 532.524 1984.01 555.709C1979.82 569.204 1976.21 580.862 1981.65 589.699C1983.05 591.887 1984.92 593.737 1987.12 595.114C1989.32 596.491 1991.8 597.361 1994.38 597.66C1995.83 597.901 1997.29 598.025 1998.76 598.032C2021.09 598.032 2041.39 569.97 2042.33 547.004C2043.03 529.856 2032.99 518.351 2016.08 516.973C2010.85 516.536 2008.25 514.786 2008.38 511.505C2008.75 505.49 2016.25 497.332 2029.73 497.332ZM2029.73 488.583C1998.49 488.583 1988.17 523.426 2015.49 525.766C2052.19 528.762 2026.43 589.349 1998.8 589.349C1997.8 589.347 1996.79 589.26 1995.8 589.086C1968.57 584.712 2021.44 525.504 1984.87 509.143C1983.15 508.335 1981.28 507.91 1979.38 507.896C1966.74 507.896 1956.57 528.15 1947.84 554.134C1939.24 579.703 1932.02 610.827 1925.24 633.596C1921.31 646.851 1894.93 664.218 1883.1 675.285C1930.08 723.513 1976.86 776.466 2020.39 827.101C2103.5 757.809 2172.95 687.249 2199.28 650.657C2216.06 627.341 2229.42 610.805 2214.44 599.016C2211.56 596.583 2207.93 595.229 2204.16 595.189C2195.65 595.189 2185.92 602.122 2174.3 615.902L2125.97 671.02L2155.65 634.537L2200.33 579.616C2203.02 575.986 2204.93 571.837 2205.93 567.433C2206.36 565.457 2206.58 563.44 2206.59 561.418C2206.74 558.106 2206.09 554.805 2204.7 551.795C2203.31 548.784 2201.22 546.151 2198.6 544.117C2196.77 542.773 2194.7 541.779 2192.5 541.186C2190.78 540.718 2189 540.482 2187.21 540.486C2185.96 540.48 2184.7 540.583 2183.47 540.792C2176.63 542.059 2170.44 545.671 2165.97 551.007C2165.36 551.706 2164.77 552.45 2164.22 553.194L2096.42 637.358L2123.74 598.644L2162.16 544.139C2164.43 540.901 2165.98 537.213 2166.69 533.325C2167.4 529.438 2167.27 525.442 2166.3 521.61C2165.42 518.354 2163.78 515.354 2161.51 512.861C2160.51 511.775 2159.39 510.813 2158.16 509.996C2154.83 507.757 2150.91 506.575 2146.9 506.606C2142.52 506.751 2138.24 507.96 2134.43 510.128C2130.62 512.296 2127.39 515.359 2125.03 519.051L2075.81 585.784C2070.63 592.673 2067.52 597.748 2066.82 597.748C2066.12 597.748 2067.35 594.139 2070.39 584.952C2081.46 551.553 2083.34 501.706 2042.76 490.442C2038.49 489.233 2034.08 488.608 2029.64 488.583H2029.73Z" fill="black"/>
<path d="M2029.4 819.293L1897.75 664.24C1897.75 664.24 1577.67 932.679 1565.64 942.455L1169.6 757.963C1145.43 746.702 1119.14 740.701 1092.48 740.355C1007.44 739.196 821.261 738.496 821.261 738.496C763.715 926.62 776.948 1367.26 776.948 1367.26L1224.63 1272.75C1224.63 1272.75 1197.01 1143.46 1168.88 1008.9L1406.39 1109.52C1533.07 1162.01 1621.59 1153.83 1719.16 1081.32L2029.4 819.293Z" fill="white"/>
<path d="M1896.72 676.532L2017.02 818.286L1713.69 1074.45C1658.51 1115.42 1606.98 1134.52 1551.53 1134.52C1509.98 1134.52 1463.52 1123.58 1409.8 1101.47L1172.33 1000.94C1171.26 1000.47 1170.1 1000.24 1168.92 1000.24C1167.62 1000.24 1166.33 1000.52 1165.16 1001.07C1163.98 1001.63 1162.94 1002.43 1162.11 1003.44C1161.29 1004.45 1160.7 1005.62 1160.38 1006.89C1160.07 1008.15 1160.04 1009.47 1160.3 1010.74C1184.01 1124.1 1207.61 1234.95 1214.24 1266.06L785.544 1356.56C784.056 1289.5 778.326 918.724 827.823 747.223C861.659 747.354 1017.43 748.054 1092.48 749.061C1117.92 749.357 1143 755.076 1166.06 765.837L1562.08 950.351C1563.56 951.044 1565.22 951.305 1566.84 951.104C1568.47 950.903 1570.01 950.248 1571.28 949.214C1582.26 940.203 1849.5 716.121 1896.72 676.532ZM1897.75 664.24C1897.75 664.24 1577.67 932.679 1565.64 942.455L1169.6 757.963C1145.43 746.702 1119.14 740.701 1092.48 740.355C1007.44 739.196 821.261 738.496 821.261 738.496C763.715 926.62 776.948 1367.26 776.948 1367.26L1224.63 1272.75C1224.63 1272.75 1197.01 1143.46 1168.88 1008.9L1406.39 1109.52C1460.5 1131.91 1507.66 1143.27 1551.53 1143.27C1610.35 1143.27 1663.26 1122.86 1719.12 1081.32L2029.4 819.293L1897.75 664.24Z" fill="black"/>
<path d="M1071.37 971.633C1071.37 973.996 1071.52 975.089 1071.87 975.089C1072.22 975.089 1072.6 974.171 1073.16 972.421L1071.37 971.633Z" fill="black"/>
<path d="M795.977 1351.95C811.615 1295.85 1225.61 1272.42 1285.54 1261.46C1499.02 1222.44 1791.78 1220.87 2134.56 1396.79L2379.95 1335.79L2148.87 1673.47C2148.87 1673.47 2105.47 1626.12 2005.6 1585.24C1821.13 1509.71 1477.65 1456.8 1268.99 1565.66C1392.48 1728.46 1462.14 1976.27 1533.09 2276.8L1747.44 2410.98L1350.68 2478.11C1350.68 2478.11 1236.16 1970.28 947.792 1693.73C797.573 1549.67 782.044 1401.91 795.977 1351.95Z" fill="#DCDCDC"/>
<path d="M2379.95 1335.76L2148.87 1673.47C2148.87 1673.47 2072.79 1623.17 2005.6 1585.24L2136.18 1396.39L2379.95 1335.76Z" fill="#03C3A6"/>
<path d="M2359.74 1349.76L2146.48 1661.4C2126.93 1648.65 2070.72 1612.43 2018.22 1582.29L2141.5 1404.03L2359.74 1349.76ZM2379.95 1335.72L2136.18 1396.33L2005.67 1585.22C2072.86 1623.23 2148.93 1673.45 2148.93 1673.45L2379.95 1335.76V1335.72Z" fill="black"/>
<path d="M1533.1 2276.77L1747.44 2410.96L1350.68 2478.09C1350.68 2478.09 1325.92 2394.45 1301.53 2317.3C1301.49 2317.3 1532.68 2275.07 1533.1 2276.77Z" fill="#03C3A6"/>
<path d="M1530.8 2285.7L1723.27 2406.17L1356.83 2468.16C1350.55 2447.07 1331.8 2384.45 1312.84 2324.13C1395.8 2308.99 1512.08 2288.08 1530.86 2285.7H1530.8ZM1532.72 2276.73C1523.6 2276.73 1301.42 2317.3 1301.42 2317.3C1325.81 2394.45 1350.57 2478.09 1350.57 2478.09L1747.33 2410.96L1532.99 2276.77C1532.99 2276.77 1532.88 2276.77 1532.68 2276.77L1532.72 2276.73Z" fill="black"/>
<path d="M791.1 1360.33C789.94 1360.44 788.783 1360.08 787.885 1359.34C786.987 1358.6 786.42 1357.53 786.31 1356.37C786.2 1355.21 786.555 1354.05 787.297 1353.15C788.04 1352.25 789.108 1351.69 790.269 1351.58L1220.61 1268.46L1160.7 1008.18C1160.44 1007.05 1160.64 1005.86 1161.26 1004.88C1161.88 1003.9 1162.86 1003.2 1163.99 1002.94C1165.12 1002.68 1166.31 1002.89 1167.29 1003.5C1168.27 1004.12 1168.97 1005.1 1169.23 1006.23L1230.14 1270.89C1230.28 1271.46 1230.29 1272.05 1230.19 1272.63C1230.09 1273.21 1229.87 1273.76 1229.55 1274.26C1229.23 1274.75 1228.81 1275.17 1228.32 1275.5C1227.84 1275.83 1227.29 1276.05 1226.71 1276.16L791.931 1360.24C791.658 1360.3 791.379 1360.33 791.1 1360.33Z" fill="black"/>
<path d="M1218.61 1240.4L909.625 1340.51C916.777 1337.82 1225.88 1271.92 1225.88 1271.92L1218.61 1240.4Z" fill="black"/>
<path d="M1583.05 933.466L1534.21 972.18L1583.05 933.466Z" fill="#03C3A6"/>
<path d="M1534.21 976.554C1533.3 976.555 1532.41 976.272 1531.67 975.745C1530.93 975.218 1530.37 974.474 1530.08 973.615C1529.78 972.756 1529.75 971.826 1530.01 970.953C1530.26 970.08 1530.78 969.309 1531.5 968.746L1580.34 930.032C1580.79 929.676 1581.31 929.412 1581.86 929.255C1582.41 929.099 1582.99 929.053 1583.56 929.12C1584.13 929.187 1584.68 929.365 1585.19 929.646C1585.69 929.926 1586.13 930.303 1586.49 930.753C1586.84 931.204 1587.11 931.721 1587.26 932.274C1587.42 932.827 1587.46 933.405 1587.4 933.976C1587.33 934.547 1587.15 935.099 1586.87 935.6C1586.59 936.102 1586.21 936.543 1585.76 936.9L1536.92 975.614C1536.15 976.223 1535.19 976.555 1534.21 976.554Z" fill="black"/>
<path d="M974.237 778.632C1038.04 778.632 1089.77 726.908 1089.77 663.103C1089.77 599.298 1038.04 547.573 974.237 547.573C910.431 547.573 858.707 599.298 858.707 663.103C858.707 726.908 910.431 778.632 974.237 778.632Z" fill="#03C3A6"/>
<path d="M974.258 547.551V556.3C998.791 556.307 1022.57 564.763 1041.61 580.244C1060.64 595.725 1073.76 617.287 1078.76 641.305C1083.76 665.323 1080.34 690.331 1069.08 712.123C1057.81 733.916 1039.38 751.164 1016.89 760.966C994.401 770.769 969.222 772.529 945.587 765.949C921.953 759.37 901.305 744.852 887.116 724.839C872.926 704.825 866.061 680.536 867.675 656.056C869.289 631.576 879.283 608.398 895.977 590.42C905.963 579.637 918.074 571.039 931.546 565.167C945.019 559.294 959.562 556.275 974.258 556.3V547.551ZM974.258 547.551C947.346 547.547 921.277 556.938 900.551 574.104C879.824 591.269 865.741 615.132 860.731 641.573C855.721 668.015 860.099 695.376 873.11 718.934C886.12 742.491 906.947 760.768 931.995 770.609C957.043 780.45 984.741 781.237 1010.31 772.836C1035.87 764.434 1057.71 747.37 1072.03 724.59C1086.36 701.809 1092.29 674.741 1088.79 648.058C1085.29 621.375 1072.58 596.75 1052.87 578.435C1031.52 558.56 1003.43 547.523 974.258 547.551Z" fill="black"/>
<path d="M1006.45 679.726C1005.42 679.735 1004.42 679.379 1003.62 678.721C1002.83 678.062 1002.29 677.144 1002.11 676.128C1001.93 675.112 1002.11 674.064 1002.62 673.17C1003.14 672.275 1003.95 671.591 1004.92 671.239L1033.07 660.784C1021.46 656.082 1005.01 645.605 993.987 622.464C993.723 621.944 993.566 621.376 993.525 620.794C993.484 620.212 993.56 619.627 993.748 619.075C993.936 618.523 994.233 618.014 994.621 617.578C995.009 617.142 995.48 616.789 996.007 616.538C996.534 616.287 997.105 616.144 997.688 616.117C998.271 616.09 998.853 616.18 999.401 616.382C999.948 616.584 1000.45 616.893 1000.88 617.291C1001.3 617.69 1001.64 618.169 1001.88 618.702C1017.94 652.407 1046.44 655.688 1047.64 655.885C1048.62 655.987 1049.54 656.417 1050.24 657.104C1050.95 657.792 1051.4 658.697 1051.52 659.674C1051.65 660.651 1051.44 661.641 1050.94 662.486C1050.43 663.33 1049.65 663.979 1048.73 664.328L1007.98 679.638C1007.48 679.751 1006.97 679.78 1006.45 679.726Z" fill="black"/>
<path d="M880.409 729.466C894.344 724.523 900.318 705.51 893.751 686.998C887.185 668.486 870.566 657.487 856.631 662.43C842.696 667.372 836.722 686.386 843.289 704.898C849.855 723.409 866.474 734.409 880.409 729.466Z" fill="#03C3A6"/>
<path d="M863.585 669.927C872.99 669.927 882.767 679.594 886.332 692.433C888.65 700.81 887.95 709.319 884.429 715.181C883.557 716.753 882.371 718.129 880.945 719.224C879.519 720.319 877.883 721.109 876.139 721.545C875.271 721.739 874.383 721.835 873.493 721.83C864.088 721.83 854.311 712.162 850.746 699.323C848.427 690.946 849.127 682.438 852.67 676.576C853.54 675.006 854.722 673.631 856.144 672.537C857.567 671.442 859.198 670.65 860.938 670.211C861.807 670.017 862.695 669.922 863.585 669.927ZM863.585 661.178C862.063 661.174 860.545 661.336 859.057 661.659C844.578 664.852 837.185 682.766 842.325 701.663C847.005 718.593 860.348 730.579 873.493 730.579C875.015 730.582 876.533 730.421 878.02 730.097C892.522 726.904 899.893 708.991 894.775 690.093C890.072 673.164 876.73 661.178 863.585 661.178Z" fill="black"/>
<path d="M889.569 584.471C879.976 594.788 872.355 606.775 867.084 619.839L1031.67 562.971C1009.04 549.981 982.674 545.036 956.871 548.94C931.069 552.844 907.347 565.367 889.569 584.471Z" fill="black"/>
<path d="M870.343 710.15C869.376 710.147 868.438 709.824 867.674 709.232C855.295 699.63 857.394 687.119 860.216 681.826C860.761 680.799 861.692 680.031 862.803 679.69C863.915 679.35 865.116 679.465 866.143 680.01C867.17 680.555 867.938 681.486 868.278 682.598C868.619 683.709 868.504 684.911 867.959 685.938C867.477 686.878 863.584 695.08 873.033 702.298C873.763 702.855 874.299 703.627 874.566 704.506C874.832 705.385 874.815 706.325 874.518 707.194C874.22 708.062 873.657 708.815 872.908 709.346C872.158 709.877 871.261 710.158 870.343 710.15Z" fill="black"/>
<path d="M969.261 652.609C972.647 651.46 973.297 644.353 970.712 636.734C968.127 629.116 963.287 623.871 959.901 625.02C956.515 626.168 955.865 633.276 958.45 640.894C961.035 648.513 965.875 653.758 969.261 652.609Z" fill="black"/>
<path d="M1040.75 628.365C1044.13 627.216 1044.78 620.109 1042.2 612.49C1039.62 604.872 1034.77 599.627 1031.39 600.775C1028 601.924 1027.35 609.032 1029.94 616.65C1032.52 624.269 1037.36 629.514 1040.75 628.365Z" fill="black"/>
<path d="M1237.71 1060.81L1174.89 1154.57L898.208 1212.62L1083.71 937.359L1237.71 1060.81Z" fill="#03C3A6"/>
<path d="M1085.65 950.133L1225.96 1062.6L1169.6 1146.74L917.521 1199.63L1085.65 950.133ZM1083.71 937.359L898.208 1212.62L1174.89 1154.57L1237.71 1060.81L1083.71 937.359Z" fill="black"/>
<path d="M1015.03 1038.37L879.616 1240.4L909.625 910.96C933.925 687.031 720.058 687.031 704.66 876.03C704.66 876.03 695.036 1044.77 679.244 1290.42C661.746 1562.4 876.97 1560.46 954.551 1456.65C1004.14 1390.31 1179.84 1147.22 1179.84 1147.22L1015.03 1038.37Z" fill="white"/>
<path d="M815.356 738.278V747.027C836.2 747.027 855.929 756.213 870.89 772.902C896.721 801.686 907.395 850.373 900.942 909.975V910.129L870.912 1239.57L867.806 1273.71L886.9 1245.28L1017.46 1050.5L1167.28 1149.56C1137.47 1190.82 991.669 1392.35 947.53 1451.4C933.08 1470.21 914.548 1485.5 893.331 1496.11C872.114 1506.72 848.765 1512.37 825.045 1512.64C800.198 1512.64 764.306 1506.08 734.472 1474.15C698.798 1436.11 682.722 1372.75 687.994 1290.95C703.435 1050.61 713.016 881.695 713.387 876.62C716.69 836.397 729.485 802.648 750.417 778.982C768.637 758.379 791.712 747.027 815.356 747.027V738.278ZM815.356 738.278C764.918 738.278 712.031 785.456 704.66 876.073C704.66 876.073 695.036 1044.82 679.245 1290.47C668.462 1457.83 745.846 1521.48 825.024 1521.48C874.521 1521.48 924.696 1496.63 954.551 1456.72C1004.14 1390.38 1179.84 1147.29 1179.84 1147.29L1015.14 1038.41L879.617 1240.4L909.626 910.96C922.29 794.227 870.255 738.322 815.356 738.322V738.278Z" fill="black"/>
<path d="M1724.7 995.19C1731.91 995.19 1737.75 989.344 1737.75 982.132C1737.75 974.92 1731.91 969.074 1724.7 969.074C1717.48 969.074 1711.64 974.92 1711.64 982.132C1711.64 989.344 1717.48 995.19 1724.7 995.19Z" fill="white"/>
<path d="M835.872 1318.48C835.01 1318.48 834.167 1318.23 833.444 1317.76C832.479 1317.12 831.808 1316.12 831.578 1314.99C831.348 1313.85 831.579 1312.67 832.219 1311.7L885.565 1231.41C886.209 1230.44 887.21 1229.77 888.349 1229.55C889.487 1229.32 890.669 1229.55 891.635 1230.2C892.601 1230.84 893.271 1231.84 893.499 1232.98C893.727 1234.12 893.493 1235.3 892.849 1236.27L839.502 1316.54C839.104 1317.14 838.564 1317.63 837.93 1317.96C837.297 1318.3 836.59 1318.48 835.872 1318.48Z" fill="black"/>
<path d="M1217.87 1481.3C1217.54 1480.82 1217.11 1480.41 1216.62 1480.1C1216.12 1479.78 1215.57 1479.57 1214.99 1479.47C1214.42 1479.38 1213.83 1479.4 1213.26 1479.53C1212.69 1479.67 1212.15 1479.92 1211.68 1480.26C1211.21 1480.61 1210.81 1481.05 1210.51 1481.55C1210.21 1482.06 1210.02 1482.61 1209.94 1483.19C1209.86 1483.77 1209.9 1484.36 1210.05 1484.93C1210.2 1485.5 1210.47 1486.02 1210.83 1486.49L1269.6 1566.3L1277.41 1562.16L1217.87 1481.3Z" fill="white"/>
<path d="M1016.78 986.507C1015.65 986.507 1014.56 986.071 1013.74 985.288C1012.93 984.505 1012.45 983.437 1012.4 982.307L1004.11 775.155C1004.07 773.994 1004.48 772.863 1005.27 772.01C1006.06 771.157 1007.15 770.651 1008.31 770.605C1009.47 770.559 1010.6 770.975 1011.46 771.763C1012.31 772.55 1012.82 773.644 1012.86 774.805L1021.15 981.957C1021.18 982.532 1021.09 983.105 1020.89 983.645C1020.69 984.185 1020.39 984.68 1020 985.103C1019.61 985.525 1019.14 985.867 1018.61 986.108C1018.09 986.348 1017.53 986.484 1016.95 986.507H1016.78Z" fill="black"/>
<path d="M983.641 837.053C980.613 837.053 977.652 836.155 975.135 834.473C972.617 832.791 970.654 830.4 969.495 827.602C968.337 824.804 968.034 821.726 968.624 818.756C969.215 815.786 970.673 813.058 972.815 810.917C974.956 808.775 977.684 807.317 980.654 806.726C983.624 806.136 986.702 806.439 989.5 807.598C992.298 808.756 994.689 810.719 996.371 813.237C998.053 815.754 998.951 818.715 998.951 821.743C998.951 825.803 997.338 829.698 994.467 832.569C991.596 835.44 987.701 837.053 983.641 837.053ZM983.641 815.356C982.343 815.356 981.074 815.741 979.995 816.462C978.916 817.183 978.075 818.208 977.579 819.407C977.082 820.606 976.952 821.925 977.205 823.198C977.458 824.471 978.083 825.64 979.001 826.558C979.919 827.475 981.088 828.1 982.361 828.353C983.633 828.607 984.953 828.477 986.152 827.98C987.351 827.483 988.376 826.642 989.097 825.563C989.818 824.484 990.202 823.216 990.202 821.918C990.202 820.177 989.511 818.508 988.281 817.278C987.05 816.047 985.381 815.356 983.641 815.356Z" fill="black"/>
<path d="M983.641 923.383C980.613 923.383 977.652 922.485 975.135 920.803C972.617 919.12 970.654 916.729 969.495 913.931C968.337 911.134 968.034 908.055 968.624 905.085C969.215 902.115 970.673 899.387 972.815 897.246C974.956 895.105 977.684 893.647 980.654 893.056C983.624 892.465 986.702 892.768 989.5 893.927C992.298 895.086 994.689 897.048 996.371 899.566C998.053 902.084 998.951 905.044 998.951 908.072C998.951 912.133 997.338 916.027 994.467 918.899C991.596 921.77 987.701 923.383 983.641 923.383ZM983.641 901.664C982.343 901.664 981.074 902.049 979.995 902.77C978.916 903.491 978.075 904.515 977.579 905.714C977.082 906.913 976.952 908.233 977.205 909.506C977.458 910.778 978.083 911.948 979.001 912.865C979.919 913.783 981.088 914.408 982.361 914.661C983.633 914.914 984.953 914.784 986.152 914.288C987.351 913.791 988.376 912.95 989.097 911.871C989.818 910.792 990.202 909.523 990.202 908.225C990.202 906.485 989.511 904.816 988.281 903.586C987.05 902.355 985.381 901.664 983.641 901.664Z" fill="black"/>
<path d="M1482.31 2455.58L1416.95 2410.13L1339.61 2421.55L1338.32 2412.89L1419.12 2400.97L1487.29 2448.41L1482.31 2455.58Z" fill="black"/>
<path d="M1484.78 2317.9C1483.62 2317.99 1482.47 2317.62 1481.58 2316.86C1480.7 2316.11 1480.15 2315.03 1480.06 2313.87C1479.96 2312.71 1480.33 2311.56 1481.09 2310.68C1481.84 2309.79 1482.92 2309.24 1484.08 2309.15L1531.39 2301.36C1532.55 2301.17 1533.74 2301.45 1534.69 2302.14C1535.64 2302.83 1536.29 2303.86 1536.48 2305.02C1536.66 2306.18 1536.38 2307.37 1535.7 2308.33C1535.01 2309.28 1533.97 2309.92 1532.81 2310.11L1485.5 2317.87L1484.78 2317.9Z" fill="white"/>
<path d="M1495.17 2345.17C1494.01 2345.26 1492.86 2344.89 1491.97 2344.14C1491.09 2343.38 1490.54 2342.31 1490.44 2341.15C1490.35 2339.99 1490.72 2338.84 1491.48 2337.95C1492.23 2337.06 1493.31 2336.51 1494.47 2336.42L1541.76 2328.66C1542.92 2328.47 1544.1 2328.75 1545.06 2329.44C1546.01 2330.12 1546.65 2331.16 1546.84 2332.32C1547.03 2333.48 1546.75 2334.67 1546.06 2335.62C1545.38 2336.58 1544.34 2337.22 1543.18 2337.41L1495.89 2345.17H1495.17Z" fill="white"/>
<path d="M1525.37 2243.74L1290.8 2286.58L1292.37 2295.18L1526.94 2252.34L1525.37 2243.74Z" fill="white"/>
<path d="M2103.68 1638.04L2096.53 1633.03L2143.35 1566.14L2224.68 1549.19L2226.47 1557.77L2148.54 1574L2103.68 1638.04Z" fill="black"/>
<path d="M2124.96 1462.71C2124.09 1462.71 2123.23 1462.45 2122.51 1461.97C2122.03 1461.64 2121.63 1461.23 2121.31 1460.75C2120.99 1460.27 2120.78 1459.73 2120.67 1459.17C2120.56 1458.6 2120.57 1458.02 2120.68 1457.46C2120.8 1456.9 2121.03 1456.36 2121.35 1455.89L2148.19 1416.17C2148.51 1415.69 2148.92 1415.28 2149.4 1414.96C2149.88 1414.65 2150.42 1414.43 2150.98 1414.32C2151.55 1414.21 2152.13 1414.21 2152.69 1414.32C2153.26 1414.44 2153.79 1414.66 2154.27 1414.98C2154.74 1415.31 2155.15 1415.72 2155.47 1416.2C2155.79 1416.68 2156.01 1417.22 2156.12 1417.78C2156.23 1418.34 2156.22 1418.93 2156.11 1419.49C2156 1420.05 2155.77 1420.59 2155.45 1421.06L2128.59 1460.79C2128.19 1461.38 2127.65 1461.86 2127.01 1462.2C2126.38 1462.54 2125.68 1462.71 2124.96 1462.71Z" fill="white"/>
<path d="M2151.91 1473.91C2151.03 1473.91 2150.18 1473.65 2149.46 1473.17C2148.98 1472.84 2148.57 1472.43 2148.26 1471.95C2147.94 1471.47 2147.72 1470.93 2147.62 1470.37C2147.51 1469.8 2147.51 1469.22 2147.63 1468.66C2147.75 1468.09 2147.97 1467.56 2148.3 1467.08L2175.13 1427.36C2175.79 1426.4 2176.79 1425.74 2177.93 1425.53C2179.07 1425.31 2180.25 1425.55 2181.21 1426.21C2182.17 1426.86 2182.84 1427.87 2183.05 1429.01C2183.27 1430.15 2183.03 1431.33 2182.37 1432.29L2155.54 1471.98C2155.14 1472.58 2154.59 1473.06 2153.96 1473.4C2153.33 1473.73 2152.62 1473.91 2151.91 1473.91Z" fill="white"/>
<path d="M2102.22 1380.63L1968.49 1569.86L1975.63 1574.91L2109.36 1385.68L2102.22 1380.63Z" fill="white"/>
<path d="M1106.5 539.895C1101.49 567.064 1104.65 595.107 1115.58 620.478C1126.52 645.849 1144.73 667.409 1167.91 682.431C1191.1 697.453 1218.21 705.263 1245.84 704.872C1273.46 704.481 1300.35 695.908 1323.1 680.236C1345.85 664.564 1363.44 642.498 1373.65 616.828C1383.86 591.157 1386.23 563.036 1380.45 536.02C1374.68 509.004 1361.03 484.307 1341.22 465.051C1321.41 445.796 1296.33 432.848 1269.16 427.843C1251.12 424.518 1232.61 424.779 1214.67 428.611C1196.73 432.442 1179.73 439.77 1164.62 450.175C1149.51 460.581 1136.61 473.86 1126.63 489.254C1116.66 504.648 1109.82 521.856 1106.5 539.895Z" fill="white"/>
<path d="M1206.13 1095.08C1198.15 1094.51 1190.73 1090.8 1185.49 1084.77C1180.25 1078.73 1177.63 1070.86 1178.19 1062.88L1199.61 762.118L1259.76 766.493L1238.34 1067.24C1237.76 1075.2 1234.03 1082.6 1227.99 1087.82C1221.95 1093.04 1214.09 1095.65 1206.13 1095.08Z" fill="black"/>
<path d="M1100.66 538.802C1095.44 567.123 1098.73 596.356 1110.13 622.805C1121.52 649.253 1140.5 671.729 1164.67 687.389C1188.84 703.05 1217.11 711.193 1245.9 710.787C1274.7 710.381 1302.73 701.446 1326.44 685.11C1350.16 668.775 1368.5 645.773 1379.14 619.014C1389.79 592.255 1392.26 562.941 1386.24 534.778C1380.22 506.616 1365.99 480.869 1345.34 460.796C1324.69 440.722 1298.56 427.222 1270.23 422.004C1232.26 415.007 1193.06 423.381 1161.26 445.285C1129.46 467.188 1107.66 500.827 1100.66 538.802ZM1377.15 589.743C1372.3 616.128 1359.73 640.483 1341.04 659.726C1322.35 678.969 1298.37 692.236 1272.14 697.848C1245.9 703.459 1218.59 701.164 1193.67 691.252C1168.74 681.34 1147.31 664.257 1132.09 642.163C1116.87 620.07 1108.55 593.959 1108.18 567.135C1107.8 540.31 1115.39 513.977 1129.98 491.467C1144.58 468.957 1165.52 451.282 1190.16 440.677C1214.81 430.072 1242.04 427.014 1268.42 431.89C1303.76 438.423 1335.06 458.718 1355.45 488.316C1375.84 517.914 1383.64 554.394 1377.15 589.743Z" fill="black"/>
<path d="M1244.18 715.224C1234.96 715.214 1225.76 714.365 1216.69 712.687C1179 705.643 1145.47 684.348 1123.08 653.228C1100.68 622.107 1091.13 583.553 1096.42 545.577C1101.71 507.601 1121.43 473.123 1151.48 449.307C1181.53 425.491 1219.6 414.168 1257.78 417.692C1295.96 421.215 1331.31 439.314 1356.5 468.227C1381.68 497.14 1394.75 534.644 1393 572.947C1391.25 611.249 1374.81 647.405 1347.1 673.901C1319.38 700.398 1282.53 715.197 1244.18 715.224ZM1243.55 423.929C1207.19 423.97 1172.24 438.024 1145.97 463.169C1119.7 488.314 1104.13 522.615 1102.49 558.943C1100.86 595.271 1113.29 630.831 1137.2 658.23C1161.11 685.63 1194.66 702.762 1230.87 706.066C1267.08 709.369 1303.18 698.589 1331.65 675.967C1360.12 653.346 1378.78 620.622 1383.75 584.598C1388.71 548.574 1379.61 512.022 1358.32 482.539C1337.03 453.057 1305.2 432.911 1269.45 426.291C1260.9 424.726 1252.24 423.935 1243.55 423.929ZM1244.16 705.141C1235.56 705.135 1226.97 704.344 1218.51 702.779C1183.33 696.213 1152.04 676.346 1131.13 647.308C1110.22 618.269 1101.3 582.29 1106.23 546.848C1111.16 511.406 1129.56 479.226 1157.59 456.993C1185.63 434.761 1221.16 424.187 1256.79 427.468C1292.42 430.748 1325.42 447.632 1348.93 474.61C1372.44 501.588 1384.65 536.586 1383.02 572.333C1381.4 608.079 1366.06 641.824 1340.2 666.557C1314.34 691.29 1279.95 705.108 1244.16 705.141ZM1243.57 433.924C1218.64 433.966 1194.24 441.108 1173.22 454.514C1152.2 467.921 1135.43 487.038 1124.88 509.627C1114.33 532.216 1110.44 557.342 1113.65 582.066C1116.86 606.789 1127.05 630.086 1143.02 649.229C1158.99 668.373 1180.09 682.571 1203.83 690.161C1227.58 697.752 1253 698.421 1277.11 692.091C1301.23 685.76 1323.04 672.691 1339.99 654.415C1356.95 636.138 1368.35 613.41 1372.86 588.89C1379.14 554.681 1371.59 519.378 1351.86 490.735C1332.13 462.092 1301.83 442.454 1267.63 436.134C1259.69 434.696 1251.64 433.979 1243.57 433.99V433.924Z" fill="black"/>
<path d="M1224.35 711.663L1220.2 769.937L1235.47 771.024L1239.62 712.75L1224.35 711.663Z" fill="black"/>
<path d="M1091.89 908.575C1131.63 865.881 1248.03 853.085 1248.03 853.085C1262.82 850.154 1280.06 849.433 1282.88 864.021C1284.06 870.08 1278.35 877.538 1275.75 882.678C1281.84 882.924 1287.66 885.235 1292.26 889.23C1296.86 893.226 1299.97 898.668 1301.06 904.663C1302.16 910.657 1301.18 916.846 1298.3 922.212C1295.41 927.578 1290.78 931.801 1285.17 934.188C1289.83 937.25 1298.73 942.937 1300.79 948.58C1305.89 962.556 1291.1 973.448 1276.93 978.61L1255.54 989.765C1260.76 990.093 1271.02 995.255 1273.03 999.608C1278.59 1011.88 1266.82 1024.32 1254.38 1029.94L1202.85 1053.04C1149.54 1074.91 1111.42 1047.07 1098.45 1027.14C1072.66 987.578 1056.7 946.392 1091.89 908.575Z" fill="#03C3A6"/>
<path d="M1219.21 1005.86C1218.19 1005.87 1217.2 1005.51 1216.41 1004.86C1215.63 1004.22 1215.09 1003.31 1214.9 1002.31C1214.71 1001.31 1214.87 1000.28 1215.36 999.382C1215.85 998.489 1216.64 997.795 1217.59 997.421L1282.64 971.633C1287.6 969.956 1291.92 966.786 1295.02 962.556C1296.31 960.783 1297.15 958.713 1297.44 956.535C1297.73 954.356 1297.47 952.14 1296.68 950.089C1292.98 939.896 1281.37 937.25 1272.22 940.575L1202.54 965.05C1201.46 965.391 1200.28 965.298 1199.27 964.791C1198.25 964.284 1197.48 963.403 1197.1 962.333C1196.72 961.263 1196.77 960.088 1197.25 959.056C1197.72 958.025 1198.57 957.217 1199.63 956.804L1269.27 932.329C1284.23 926.882 1299.89 933.357 1304.9 947.092C1306.14 950.443 1306.54 954.043 1306.09 957.585C1305.63 961.128 1304.32 964.506 1302.28 967.434C1298.2 973.188 1292.41 977.518 1285.74 979.813L1220.82 1005.56C1220.31 1005.76 1219.76 1005.86 1219.21 1005.86Z" fill="black"/>
<path d="M1259.43 944.796C1258.41 944.796 1257.41 944.438 1256.63 943.783C1255.84 943.128 1255.31 942.218 1255.12 941.211C1254.94 940.204 1255.11 939.165 1255.62 938.273C1256.12 937.381 1256.92 936.694 1257.88 936.331L1282.46 926.904L1282.88 926.751C1291.73 924.324 1299.61 916.165 1296.77 905.82C1296.16 903.603 1295.1 901.538 1293.64 899.76C1292.19 897.981 1290.37 896.528 1288.32 895.496C1283.98 893.317 1278.97 892.856 1274.3 894.205L1189.83 919.665C1188.73 919.968 1187.55 919.828 1186.55 919.275C1185.55 918.722 1184.81 917.799 1184.48 916.705C1184.15 915.611 1184.27 914.431 1184.8 913.419C1185.32 912.406 1186.23 911.641 1187.32 911.288L1272.01 885.806C1278.8 883.849 1286.09 884.529 1292.41 887.709C1295.55 889.286 1298.32 891.507 1300.54 894.229C1302.76 896.95 1304.38 900.11 1305.3 903.501C1309.04 917.106 1300.35 930.951 1285.61 935.128L1261.2 944.512C1260.64 944.728 1260.03 944.825 1259.43 944.796Z" fill="black"/>
<path d="M1171.02 1063.39C1133.84 1063.39 1101.86 1042.15 1084.36 1016.84C1059.25 980.513 1061.7 936.966 1090.6 905.863C1136.66 856.301 1247.11 848.361 1251.8 848.055C1271.96 845.999 1283.38 851.401 1287.58 865.071C1288.44 867.847 1288.68 870.774 1288.31 873.655C1287.93 876.535 1286.94 879.299 1285.39 881.76C1280.69 889.656 1270.76 895.977 1259.45 898.317L1189.83 919.665C1188.72 920.004 1187.52 919.888 1186.49 919.343C1185.47 918.797 1184.7 917.867 1184.36 916.756C1184.02 915.645 1184.14 914.445 1184.69 913.419C1185.23 912.394 1186.16 911.627 1187.27 911.288L1257.26 889.875H1257.68C1266.6 888.081 1274.59 883.182 1278.04 877.386C1278.94 875.966 1279.52 874.368 1279.74 872.703C1279.96 871.037 1279.81 869.343 1279.31 867.74C1277.12 860.894 1272.51 854.835 1252.6 856.804C1251.36 856.804 1140.79 864.853 1097.09 911.878C1065.55 945.802 1073.6 985.807 1091.65 1011.92C1113.06 1042.87 1158.07 1067.24 1206.39 1047.62L1256.39 1022.31C1263.43 1019.16 1268.09 1015.07 1269.73 1010.72C1270.27 1009.22 1270.49 1007.62 1270.39 1006.03C1270.28 1004.43 1269.84 1002.88 1269.1 1001.47C1263.5 989.175 1247.01 995.824 1243.75 997.289L1222.07 1006.37C1221.54 1006.63 1220.95 1006.78 1220.36 1006.81C1219.76 1006.84 1219.17 1006.75 1218.61 1006.54C1218.05 1006.33 1217.54 1006.01 1217.11 1005.6C1216.68 1005.19 1216.34 1004.69 1216.11 1004.14C1215.88 1003.59 1215.76 1003 1215.77 1002.4C1215.77 1001.81 1215.9 1001.22 1216.14 1000.67C1216.38 1000.13 1216.73 999.638 1217.17 999.233C1217.6 998.828 1218.12 998.516 1218.68 998.318L1240.18 989.262C1256.72 981.826 1271.2 985.172 1276.97 997.836C1278.2 1000.3 1278.9 1002.99 1279.05 1005.73C1279.2 1008.48 1278.78 1011.22 1277.82 1013.8C1275.33 1020.36 1269.07 1026.12 1260.06 1030.21L1210.09 1055.49L1209.78 1055.64C1197.49 1060.72 1184.32 1063.35 1171.02 1063.39Z" fill="black"/>
<path d="M185.215 1328.46C82.9179 1328.46 0 1383.55 0 1451.51C0 1473.38 8.57396 1493.79 23.5346 1511.55L22.9659 1511.27C70.1445 1578.61 170.801 1659.78 170.801 1659.78C170.801 1659.78 148.382 1603.48 150.897 1572.44C162.331 1573.89 173.843 1574.62 185.368 1574.63C287.665 1574.63 370.582 1519.53 370.582 1451.56C370.582 1383.58 287.511 1328.46 185.215 1328.46Z" fill="#DCDCDC"/>
<path d="M1581.5 8.98899C1657.18 5.29257 1720.52 43.066 1722.97 93.3505C1723.76 109.492 1718.16 124.934 1707.66 138.604L1708.05 138.386C1675.59 189.917 1604.05 253.609 1604.05 253.609C1604.05 253.609 1618.62 211.177 1615.71 188.254C1607.29 189.715 1598.8 190.665 1590.27 191.098C1514.59 194.772 1451.25 156.999 1448.8 106.714C1446.35 56.43 1505.82 12.7073 1581.5 8.98899Z" fill="white"/>
<path d="M1591.69 8.74892C1662.78 8.74892 1720.63 45.3632 1722.92 93.3729C1723.71 109.515 1718.11 124.956 1707.61 138.627L1708.01 138.408C1675.55 189.939 1604.01 253.631 1604.01 253.631C1604.01 253.631 1618.57 211.199 1615.66 188.277C1607.25 189.738 1598.75 190.687 1590.23 191.12C1586.81 191.273 1583.4 191.361 1580.03 191.361C1508.95 191.361 1450.99 154.768 1448.8 106.737C1446.35 56.4305 1505.67 12.6859 1581.39 9.01139C1584.91 8.83642 1588.32 8.74892 1591.69 8.74892ZM1591.69 0C1588.17 0 1584.6 6.01327e-06 1581.08 0.262474C1542.76 2.14349 1507.13 13.8889 1480.71 33.3553C1453.24 53.609 1438.85 79.8339 1440.18 107.174C1441.45 133.224 1457.02 157.109 1483.93 174.432C1509.78 190.989 1543.92 200.11 1580.16 200.11C1583.69 200.11 1587.25 200.11 1590.77 199.847C1596.26 199.585 1601.71 199.104 1607.31 198.404C1606.41 216.273 1599.08 241.273 1595.83 250.897C1595.2 252.727 1595.19 254.714 1595.81 256.546C1596.44 258.379 1597.65 259.953 1599.26 261.024C1600.87 262.09 1602.79 262.594 1604.72 262.455C1606.64 262.317 1608.47 261.544 1609.91 260.259C1612.86 257.634 1682.55 195.342 1715.36 143.417C1715.64 143.014 1715.89 142.582 1716.08 142.126C1727.02 126.816 1732.51 109.974 1731.67 93.0667C1730.41 67.0167 1714.83 43.1322 1687.93 25.8093C1662.08 9.25199 1627.93 0.109368 1591.69 0.109368V0Z" fill="#03C3A6"/>
<path d="M1652.63 108.464C1659.89 108.464 1665.77 102.579 1665.77 95.3191C1665.77 88.0592 1659.89 82.1738 1652.63 82.1738C1645.37 82.1738 1639.48 88.0592 1639.48 95.3191C1639.48 102.579 1645.37 108.464 1652.63 108.464Z" fill="#03C3A6"/>
<path d="M1524.24 114.721C1531.5 114.721 1537.38 108.835 1537.38 101.575C1537.38 94.3155 1531.5 88.4302 1524.24 88.4302C1516.98 88.4302 1511.09 94.3155 1511.09 101.575C1511.09 108.835 1516.98 114.721 1524.24 114.721Z" fill="#03C3A6"/>
<path d="M1588.43 111.592C1595.69 111.592 1601.58 105.707 1601.58 98.447C1601.58 91.1871 1595.69 85.3018 1588.43 85.3018C1581.17 85.3018 1575.29 91.1871 1575.29 98.447C1575.29 105.707 1581.17 111.592 1588.43 111.592Z" fill="#03C3A6"/>
<path d="M1920.08 1980.65L1931.63 2043.05L2119.4 2007.05C2129.77 2005.06 2139.59 2010.39 2141.28 2018.92L2169.56 2166.34C2171.18 2174.87 2164.05 2183.47 2153.68 2185.46L1919.64 2230.34C1909.28 2232.33 1899.46 2226.99 1897.77 2218.46L1871.53 2081.83C1867.44 2060.61 1874.06 2055.08 1920.08 1980.65Z" fill="#DCDCDC"/>
<path d="M1917.74 2105.19C1916.58 2105.3 1915.42 2104.94 1914.53 2104.2C1913.63 2103.46 1913.06 2102.39 1912.95 2101.23C1912.84 2100.07 1913.2 2098.91 1913.94 2098.01C1914.68 2097.11 1915.75 2096.55 1916.91 2096.44L2095.83 2062.12C2096.97 2061.9 2098.15 2062.15 2099.11 2062.8C2100.06 2063.45 2100.73 2064.46 2100.94 2065.6C2101.16 2066.74 2100.92 2067.92 2100.26 2068.88C2099.61 2069.84 2098.61 2070.5 2097.47 2070.72L1918.57 2105.03L1917.74 2105.19Z" fill="white"/>
<path d="M1924.74 2141.82C1924.17 2141.88 1923.59 2141.82 1923.04 2141.65C1922.48 2141.48 1921.97 2141.2 1921.53 2140.83C1920.63 2140.08 1920.07 2139.01 1919.96 2137.85C1919.85 2136.69 1920.21 2135.54 1920.96 2134.64C1921.7 2133.75 1922.77 2133.18 1923.93 2133.08L2102.82 2098.76C2103.96 2098.54 2105.15 2098.78 2106.11 2099.43C2107.07 2100.08 2107.73 2101.08 2107.95 2102.22C2108.17 2103.36 2107.93 2104.54 2107.28 2105.51C2106.63 2106.47 2105.63 2107.13 2104.49 2107.35L1925.57 2141.67C1925.3 2141.74 1925.02 2141.8 1924.74 2141.82Z" fill="white"/>
<path d="M1931.78 2178.46C1931.21 2178.51 1930.63 2178.45 1930.08 2178.28C1929.53 2178.11 1929.02 2177.83 1928.57 2177.46C1927.68 2176.72 1927.11 2175.65 1927.01 2174.49C1926.9 2173.33 1927.26 2172.17 1928 2171.28C1928.74 2170.38 1929.81 2169.82 1930.97 2169.71L2025.79 2151.51C2026.93 2151.29 2028.11 2151.53 2029.07 2152.18C2030.04 2152.83 2030.7 2153.84 2030.92 2154.98C2031.14 2156.12 2030.9 2157.3 2030.25 2158.26C2029.6 2159.22 2028.59 2159.89 2027.45 2160.11L1932.62 2178.28C1932.35 2178.38 1932.07 2178.43 1931.78 2178.46Z" fill="white"/>
<path d="M2537.06 958.247H2287.89C2273.89 958.247 2262.54 969.597 2262.54 983.597V1128.96C2262.54 1142.96 2273.89 1154.31 2287.89 1154.31H2537.06C2551.06 1154.31 2562.41 1142.96 2562.41 1128.96V983.597C2562.41 969.597 2551.06 958.247 2537.06 958.247Z" fill="white"/>
<path d="M2537.16 1158.66H2287.82C2279.94 1158.66 2272.39 1155.53 2266.82 1149.96C2261.24 1144.39 2258.11 1136.84 2258.1 1128.96V983.575C2258.11 975.697 2261.24 968.146 2266.82 962.577C2272.39 957.009 2279.94 953.878 2287.82 953.873H2537.16C2545.04 953.878 2552.6 957.009 2558.17 962.577C2563.74 968.146 2566.88 975.697 2566.89 983.575V1128.96C2566.88 1136.84 2563.74 1144.39 2558.17 1149.96C2552.6 1155.53 2545.04 1158.66 2537.16 1158.66ZM2287.82 962.621C2282.26 962.627 2276.93 964.836 2273 968.764C2269.07 972.691 2266.86 978.018 2266.84 983.575V1128.96C2266.86 1134.52 2269.07 1139.84 2273 1143.77C2276.93 1147.7 2282.26 1149.91 2287.82 1149.91H2537.16C2542.72 1149.91 2548.05 1147.7 2551.98 1143.77C2555.91 1139.84 2558.13 1134.52 2558.14 1128.96V983.575C2558.13 978.018 2555.91 972.691 2551.98 968.764C2548.05 964.836 2542.72 962.627 2537.16 962.621H2287.82Z" fill="black"/>
<path d="M2472.14 1016.84H2352.83C2351.67 1016.84 2350.55 1016.38 2349.73 1015.56C2348.91 1014.74 2348.45 1013.63 2348.45 1012.47C2348.45 1011.31 2348.91 1010.2 2349.73 1009.38C2350.55 1008.56 2351.67 1008.09 2352.83 1008.09H2472.14C2473.3 1008.09 2474.41 1008.56 2475.23 1009.38C2476.05 1010.2 2476.51 1011.31 2476.51 1012.47C2476.51 1013.63 2476.05 1014.74 2475.23 1015.56C2474.41 1016.38 2473.3 1016.84 2472.14 1016.84Z" fill="#03C3A6"/>
<path d="M2514.72 1073.67H2310.24C2309.08 1073.67 2307.97 1073.21 2307.15 1072.39C2306.33 1071.57 2305.87 1070.45 2305.87 1069.29C2305.87 1068.13 2306.33 1067.02 2307.15 1066.2C2307.97 1065.38 2309.08 1064.92 2310.24 1064.92H2514.72C2515.88 1064.92 2517 1065.38 2517.82 1066.2C2518.64 1067.02 2519.1 1068.13 2519.1 1069.29C2519.1 1070.45 2518.64 1071.57 2517.82 1072.39C2517 1073.21 2515.88 1073.67 2514.72 1073.67Z" fill="#03C3A6"/>
<path d="M2514.72 1108.9H2310.24C2309.08 1108.9 2307.97 1108.44 2307.15 1107.62C2306.33 1106.8 2305.87 1105.69 2305.87 1104.53C2305.87 1103.37 2306.33 1102.26 2307.15 1101.44C2307.97 1100.62 2309.08 1100.15 2310.24 1100.15H2514.72C2515.88 1100.15 2517 1100.62 2517.82 1101.44C2518.64 1102.26 2519.1 1103.37 2519.1 1104.53C2519.1 1105.69 2518.64 1106.8 2517.82 1107.62C2517 1108.44 2515.88 1108.9 2514.72 1108.9Z" fill="#03C3A6"/>
<path d="M903.27 385.81L1111.44 369.975L1091.3 105.188L883.128 121.024L903.27 385.81Z" fill="#03C3A6"/>
<path d="M949.979 166.776C948.819 166.82 947.689 166.4 946.838 165.611C945.987 164.821 945.484 163.726 945.441 162.566C945.397 161.405 945.816 160.275 946.606 159.424C947.395 158.573 948.491 158.071 949.651 158.027L1031.15 151.815C1032.31 151.725 1033.46 152.1 1034.34 152.857C1035.22 153.614 1035.77 154.691 1035.86 155.851C1035.95 157.011 1035.58 158.159 1034.82 159.043C1034.06 159.927 1032.99 160.474 1031.83 160.564L950.329 166.754L949.979 166.776Z" fill="white"/>
<path d="M926.664 244.489C925.504 244.532 924.374 244.113 923.523 243.324C922.672 242.534 922.169 241.439 922.126 240.278C922.082 239.118 922.501 237.988 923.291 237.137C924.081 236.286 925.176 235.783 926.336 235.74L1065.97 225.11C1067.13 225.023 1068.28 225.4 1069.16 226.159C1070.04 226.918 1070.58 227.996 1070.67 229.156C1070.76 230.317 1070.38 231.464 1069.62 232.346C1068.86 233.228 1067.79 233.772 1066.62 233.859L926.992 244.489H926.664Z" fill="white"/>
<path d="M929.113 276.793C927.953 276.837 926.823 276.418 925.972 275.628C925.121 274.839 924.618 273.743 924.574 272.583C924.531 271.423 924.95 270.293 925.74 269.442C926.529 268.591 927.625 268.088 928.785 268.045L1068.42 257.436C1069.58 257.347 1070.73 257.721 1071.61 258.478C1072.49 259.235 1073.04 260.312 1073.13 261.472C1073.22 262.632 1072.85 263.78 1072.09 264.664C1071.33 265.548 1070.26 266.095 1069.1 266.185L929.55 276.772L929.113 276.793Z" fill="white"/>
<path d="M931.563 309.077C930.403 309.121 929.273 308.702 928.422 307.912C927.571 307.122 927.068 306.027 927.025 304.867C926.981 303.707 927.4 302.577 928.19 301.726C928.979 300.874 930.075 300.372 931.235 300.328L1070.89 289.698C1072.05 289.611 1073.2 289.989 1074.08 290.748C1074.96 291.506 1075.51 292.585 1075.59 293.745C1075.68 294.905 1075.3 296.052 1074.54 296.934C1073.78 297.816 1072.71 298.36 1071.55 298.447L931.913 309.077H931.563Z" fill="white"/>
<path d="M933.926 341.448C932.766 341.489 931.637 341.067 930.788 340.275C929.939 339.484 929.439 338.387 929.398 337.227C929.358 336.067 929.78 334.938 930.571 334.089C931.363 333.24 932.459 332.74 933.62 332.699L1073.25 322.091C1074.41 322.004 1075.56 322.382 1076.44 323.141C1077.32 323.9 1077.87 324.978 1077.95 326.138C1078.04 327.298 1077.66 328.445 1076.91 329.327C1076.15 330.209 1075.07 330.753 1073.91 330.84L934.363 341.448H933.926Z" fill="white"/>
<path d="M913.344 71.6093L999.827 229.134L813.147 331.605L688.19 103.98L804.77 39.9819L913.344 71.6093Z" fill="#DCDCDC"/>
<path d="M913.344 71.6093L843.243 110.083L804.77 39.9819L913.344 71.6093Z" fill="#DCDCDC"/>
<path d="M843.243 114.458C842.828 114.464 842.415 114.405 842.018 114.283C841.46 114.111 840.943 113.828 840.495 113.453C840.048 113.077 839.681 112.616 839.415 112.096L800.92 41.9951C800.644 41.491 800.471 40.9376 800.409 40.3663C800.347 39.7951 800.398 39.2172 800.56 38.6658C800.886 37.5522 801.641 36.6137 802.659 36.0568C803.677 35.4999 804.874 35.3702 805.988 35.6963C807.102 36.0224 808.04 36.7776 808.597 37.7956L844.971 104.069L911.244 67.6732C912.262 67.1134 913.461 66.981 914.576 67.305C915.692 67.6291 916.633 68.3831 917.193 69.4011C917.753 70.4192 917.885 71.6179 917.561 72.7336C917.237 73.8493 916.483 74.7906 915.465 75.3504L845.343 113.977C844.694 114.31 843.972 114.475 843.243 114.458Z" fill="white"/>
<path d="M830.207 277.428C829.231 277.444 828.278 277.133 827.499 276.544C826.72 275.956 826.161 275.124 825.909 274.181C825.658 273.238 825.729 272.238 826.111 271.34C826.494 270.442 827.165 269.698 828.019 269.226L946.13 204.353C947.148 203.793 948.347 203.66 949.462 203.984C950.578 204.308 951.519 205.062 952.079 206.08C952.639 207.099 952.771 208.297 952.447 209.413C952.123 210.529 951.369 211.47 950.351 212.03L832.241 276.881C831.62 277.231 830.92 277.42 830.207 277.428Z" fill="white"/>
<path d="M810.325 241.185C809.349 241.201 808.396 240.89 807.617 240.302C806.839 239.713 806.279 238.882 806.028 237.939C805.776 236.996 805.847 235.996 806.23 235.098C806.612 234.2 807.283 233.456 808.138 232.983L926.248 168.132C926.752 167.827 927.313 167.628 927.896 167.545C928.479 167.462 929.073 167.498 929.642 167.65C930.211 167.803 930.743 168.068 931.207 168.432C931.671 168.795 932.057 169.248 932.341 169.764C932.625 170.279 932.803 170.847 932.862 171.433C932.922 172.019 932.863 172.611 932.688 173.174C932.513 173.736 932.226 174.258 931.845 174.707C931.464 175.156 930.996 175.523 930.469 175.787L812.359 240.66C811.73 240.99 811.034 241.17 810.325 241.185Z" fill="white"/>
<path d="M788.474 201.466C787.491 201.491 786.528 201.184 785.74 200.595C784.953 200.005 784.387 199.167 784.134 198.217C783.881 197.266 783.956 196.258 784.347 195.356C784.737 194.453 785.421 193.708 786.287 193.242L904.397 128.39C904.901 128.115 905.455 127.941 906.026 127.879C906.597 127.817 907.175 127.868 907.726 128.03C908.278 128.191 908.792 128.46 909.24 128.82C909.687 129.18 910.06 129.625 910.335 130.129C910.611 130.633 910.785 131.187 910.847 131.758C910.909 132.329 910.857 132.907 910.696 133.458C910.534 134.01 910.266 134.524 909.906 134.972C909.546 135.419 909.101 135.792 908.597 136.067L790.486 200.919C789.871 201.266 789.18 201.454 788.474 201.466Z" fill="white"/>
<path d="M767.325 2062.99L601.467 1998.84L613.672 1967.3C617.215 1958.14 611.638 1947.38 601.292 1943.38L518.352 1911.27C507.985 1907.24 496.633 1911.46 493.09 1920.61L413.496 2126.21C409.953 2135.37 415.531 2146.13 425.876 2150.13L693.527 2253.7C703.873 2257.7 715.225 2253.48 718.768 2244.34L779.704 2086.86C783.248 2077.76 777.692 2067 767.325 2062.99Z" fill="#03C3A6"/>
<path d="M510.303 1918.44C511.974 1918.44 513.631 1918.76 515.181 1919.38L598.295 1951.49C604.07 1953.68 607.438 1959.5 605.667 1964.09L593.462 1995.65C592.627 1997.81 592.686 2000.22 593.626 2002.34C594.565 2004.46 596.307 2006.12 598.471 2006.96L764.263 2071.11C767.161 2072.2 769.569 2074.29 771.043 2077.02C771.606 2078.03 771.949 2079.15 772.051 2080.3C772.153 2081.45 772.01 2082.61 771.633 2083.71L710.697 2241.19C709.893 2242.88 708.598 2244.28 706.983 2245.22C705.368 2246.16 703.506 2246.59 701.642 2246.46C699.971 2246.46 698.316 2246.14 696.765 2245.52L429.135 2141.98C423.361 2139.79 419.971 2133.97 421.742 2129.38L501.336 1923.78C502.127 1922.1 503.404 1920.69 505.002 1919.74C506.6 1918.79 508.447 1918.33 510.303 1918.44ZM510.303 1909.69C506.664 1909.56 503.07 1910.53 499.996 1912.48C496.922 1914.44 494.514 1917.28 493.09 1920.63L413.496 2126.23C409.953 2135.39 415.531 2146.15 425.876 2150.16L693.527 2253.72C696.087 2254.72 698.809 2255.23 701.555 2255.23C705.194 2255.37 708.788 2254.39 711.862 2252.44C714.936 2250.49 717.344 2247.65 718.768 2244.3L779.704 2086.81C783.248 2077.65 777.692 2066.89 767.325 2062.89L601.467 1998.84L613.672 1967.3C617.215 1958.14 611.638 1947.38 601.292 1943.38L518.352 1911.27C515.79 1910.25 513.059 1909.74 510.303 1909.74V1909.69Z" fill="black"/>
<path d="M2170.85 420.014L2014.99 367.52L2024.98 337.862C2027.89 329.244 2022.29 319.533 2012.56 316.252L1934.52 290.005C1924.78 286.724 1914.46 291.077 1911.55 299.673L1846.35 493.024C1843.44 501.62 1849.04 511.353 1858.77 514.634L2110.31 599.476C2120.04 602.757 2130.36 598.404 2133.27 589.809L2183.21 441.733C2186.16 433.006 2180.65 423.295 2170.85 420.014Z" fill="#DCDCDC"/>
<path d="M1984.93 509.056C1973.21 502.801 1962.14 524.914 1952.26 553.042C1964.7 556.104 1977.82 557.416 1989.94 560.916C1996.33 542.084 2005.08 519.774 1984.93 509.056Z" fill="#03C3A6"/>
<path d="M1990.36 565.334L1982 562.797L1982.31 561.769C1986.9 546.655 1992.61 527.867 1988.06 520.015C1987.52 519.104 1986.79 518.322 1985.92 517.725C1985.05 517.127 1984.05 516.73 1983.01 516.559C1973.47 514.372 1962.89 530.688 1955.43 559.101L1946.96 556.913C1956.15 521.918 1969.64 504.573 1984.96 508.072C1987.17 508.507 1989.27 509.409 1991.11 510.717C1992.95 512.026 1994.49 513.712 1995.63 515.662C2002.19 526.795 1996.28 545.89 1990.69 564.372L1990.36 565.334Z" fill="black"/>
<path d="M292.433 1416.56H78.0844C76.9242 1416.56 75.8116 1416.1 74.9912 1415.28C74.1708 1414.46 73.71 1413.35 73.71 1412.19C73.71 1411.02 74.1708 1409.91 74.9912 1409.09C75.8116 1408.27 76.9242 1407.81 78.0844 1407.81H292.433C293.593 1407.81 294.706 1408.27 295.526 1409.09C296.347 1409.91 296.807 1411.02 296.807 1412.19C296.807 1413.35 296.347 1414.46 295.526 1415.28C294.706 1416.1 293.593 1416.56 292.433 1416.56Z" fill="white"/>
<path d="M292.433 1457.26H78.0844C76.9242 1457.26 75.8116 1456.8 74.9912 1455.98C74.1708 1455.16 73.71 1454.05 73.71 1452.89C73.71 1451.73 74.1708 1450.62 74.9912 1449.8C75.8116 1448.98 76.9242 1448.52 78.0844 1448.52H292.433C293.593 1448.52 294.706 1448.98 295.526 1449.8C296.347 1450.62 296.807 1451.73 296.807 1452.89C296.807 1454.05 296.347 1455.16 295.526 1455.98C294.706 1456.8 293.593 1457.26 292.433 1457.26Z" fill="white"/>
<path d="M292.433 1497.97H78.0844C76.9242 1497.97 75.8116 1497.51 74.9912 1496.69C74.1708 1495.87 73.71 1494.75 73.71 1493.59C73.71 1492.43 74.1708 1491.32 74.9912 1490.5C75.8116 1489.68 76.9242 1489.22 78.0844 1489.22H292.433C293.593 1489.22 294.706 1489.68 295.526 1490.5C296.347 1491.32 296.807 1492.43 296.807 1493.59C296.807 1494.75 296.347 1495.87 295.526 1496.69C294.706 1497.51 293.593 1497.97 292.433 1497.97Z" fill="white"/>
<path d="M898.208 982.131L879.617 1240.36L909.626 1195.67L898.208 982.131Z" fill="black"/>
</svg>
