<svg width="2661" height="2517" viewBox="0 0 2661 2517" fill="none" xmlns="http://www.w3.org/2000/svg">
<path d="M1638.22 1432.73H1022.59C979.545 1432.73 944.65 1467.62 944.65 1510.67V2126.3C944.65 2169.35 979.545 2204.24 1022.59 2204.24H1638.22C1681.27 2204.24 1716.16 2169.35 1716.16 2126.3V1510.67C1716.16 1467.62 1681.27 1432.73 1638.22 1432.73Z" fill="#03C3A6"/>
<path d="M1638.22 2208.15H1022.57C1000.87 2208.12 980.06 2199.49 964.716 2184.14C949.371 2168.79 940.742 2147.99 940.721 2126.28V1510.67C940.758 1488.98 949.394 1468.18 964.737 1452.85C980.079 1437.51 1000.88 1428.89 1022.57 1428.86H1638.22C1659.93 1428.86 1680.76 1437.48 1696.12 1452.81C1711.48 1468.15 1720.13 1488.96 1720.17 1510.67V2126.28C1720.15 2148 1711.51 2168.83 1696.14 2184.18C1680.77 2199.53 1659.94 2208.15 1638.22 2208.15ZM1022.57 1436.64C1002.95 1436.68 984.146 1444.5 970.276 1458.37C956.405 1472.24 948.596 1491.05 948.559 1510.67V2126.28C948.596 2145.9 956.405 2164.71 970.276 2178.58C984.146 2192.46 1002.95 2200.27 1022.57 2200.31H1638.22C1657.83 2200.25 1676.61 2192.43 1690.46 2178.55C1704.32 2164.68 1712.12 2145.89 1712.15 2126.28V1510.67C1712.12 1491.05 1704.31 1472.24 1690.44 1458.37C1676.56 1444.5 1657.76 1436.68 1638.14 1436.64H1022.57Z" fill="black"/>
<path d="M1614.27 2148.07H1046.62C1034.5 2148.06 1022.88 2143.23 1014.32 2134.66C1005.75 2126.09 1000.93 2114.47 1000.92 2102.35V1534.6C1000.96 1522.51 1005.79 1510.91 1014.36 1502.37C1022.92 1493.82 1034.52 1489.02 1046.62 1489H1614.27C1626.38 1489 1637.99 1493.8 1646.57 1502.35C1655.15 1510.9 1659.99 1522.49 1660.03 1534.6V2102.41C1660.01 2114.53 1655.17 2126.14 1646.59 2134.7C1638.01 2143.27 1626.39 2148.07 1614.27 2148.07ZM1046.62 1496.74C1036.58 1496.75 1026.96 1500.74 1019.86 1507.84C1012.76 1514.94 1008.77 1524.57 1008.76 1534.6V2102.41C1008.77 2112.45 1012.76 2122.08 1019.86 2129.18C1026.96 2136.28 1036.58 2140.28 1046.62 2140.3H1614.27C1624.31 2140.29 1633.94 2136.29 1641.04 2129.19C1648.15 2122.08 1652.14 2112.45 1652.15 2102.41V1534.6C1652.14 1524.56 1648.15 1514.93 1641.04 1507.83C1633.94 1500.73 1624.31 1496.74 1614.27 1496.74H1046.62Z" fill="black"/>
<path d="M1005.03 1533.58H944.509C943.922 1533.72 943.312 1533.72 942.725 1533.58C942.138 1533.45 941.589 1533.18 941.118 1532.81C940.648 1532.43 940.268 1531.95 940.006 1531.41C939.745 1530.87 939.609 1530.28 939.609 1529.67C939.609 1529.07 939.745 1528.48 940.006 1527.93C940.268 1527.39 940.648 1526.91 941.118 1526.54C941.589 1526.16 942.138 1525.9 942.725 1525.76C943.312 1525.63 943.922 1525.63 944.509 1525.76H1005.03C1005.62 1525.63 1006.23 1525.63 1006.81 1525.76C1007.4 1525.9 1007.95 1526.16 1008.42 1526.54C1008.89 1526.91 1009.27 1527.39 1009.53 1527.93C1009.79 1528.48 1009.93 1529.07 1009.93 1529.67C1009.93 1530.28 1009.79 1530.87 1009.53 1531.41C1009.27 1531.95 1008.89 1532.43 1008.42 1532.81C1007.95 1533.18 1007.4 1533.45 1006.81 1533.58C1006.23 1533.72 1005.62 1533.72 1005.03 1533.58Z" fill="black"/>
<path d="M1041.45 1497.02C1040.41 1496.99 1039.41 1496.56 1038.68 1495.81C1037.95 1495.06 1037.54 1494.05 1037.54 1493.01V1432.73C1037.42 1432.15 1037.42 1431.54 1037.56 1430.96C1037.7 1430.38 1037.97 1429.83 1038.34 1429.37C1038.72 1428.9 1039.19 1428.52 1039.73 1428.27C1040.27 1428.01 1040.86 1427.88 1041.46 1427.88C1042.06 1427.88 1042.65 1428.01 1043.19 1428.27C1043.73 1428.52 1044.21 1428.9 1044.58 1429.37C1044.96 1429.83 1045.22 1430.38 1045.36 1430.96C1045.5 1431.54 1045.51 1432.15 1045.38 1432.73V1493.13C1045.35 1494.16 1044.93 1495.13 1044.19 1495.86C1043.46 1496.58 1042.48 1497 1041.45 1497.02Z" fill="black"/>
<path d="M1005.03 2114.44H944.509C943.613 2114.24 942.811 2113.75 942.235 2113.04C941.66 2112.32 941.346 2111.43 941.346 2110.52C941.346 2109.6 941.66 2108.71 942.235 2108C942.811 2107.29 943.613 2106.79 944.509 2106.6H1005.03C1005.61 2106.47 1006.22 2106.48 1006.8 2106.62C1007.38 2106.75 1007.93 2107.02 1008.39 2107.4C1008.86 2107.77 1009.23 2108.25 1009.49 2108.79C1009.75 2109.33 1009.88 2109.92 1009.88 2110.52C1009.88 2111.12 1009.75 2111.71 1009.49 2112.25C1009.23 2112.79 1008.86 2113.26 1008.39 2113.64C1007.93 2114.01 1007.38 2114.28 1006.8 2114.42C1006.22 2114.56 1005.61 2114.56 1005.03 2114.44Z" fill="black"/>
<path d="M1041.45 2208.15C1040.41 2208.13 1039.41 2207.69 1038.68 2206.94C1037.95 2206.19 1037.54 2205.19 1037.54 2204.14V2146.95C1037.42 2146.37 1037.42 2145.76 1037.56 2145.18C1037.7 2144.6 1037.97 2144.05 1038.34 2143.59C1038.72 2143.12 1039.19 2142.75 1039.73 2142.49C1040.27 2142.23 1040.86 2142.1 1041.46 2142.1C1042.06 2142.1 1042.65 2142.23 1043.19 2142.49C1043.73 2142.75 1044.21 2143.12 1044.58 2143.59C1044.96 2144.05 1045.22 2144.6 1045.36 2145.18C1045.5 2145.76 1045.51 2146.37 1045.38 2146.95V2204.14C1045.38 2205.19 1044.97 2206.2 1044.24 2206.95C1043.5 2207.7 1042.5 2208.13 1041.45 2208.15Z" fill="black"/>
<path d="M1716.16 1533.58H1655.64C1655.06 1533.72 1654.45 1533.72 1653.86 1533.58C1653.27 1533.45 1652.72 1533.18 1652.25 1532.81C1651.78 1532.43 1651.4 1531.95 1651.14 1531.41C1650.88 1530.87 1650.74 1530.28 1650.74 1529.67C1650.74 1529.07 1650.88 1528.48 1651.14 1527.93C1651.4 1527.39 1651.78 1526.91 1652.25 1526.54C1652.72 1526.16 1653.27 1525.9 1653.86 1525.76C1654.45 1525.63 1655.06 1525.63 1655.64 1525.76H1716.16C1716.75 1525.63 1717.36 1525.63 1717.95 1525.76C1718.53 1525.9 1719.08 1526.16 1719.55 1526.54C1720.02 1526.91 1720.4 1527.39 1720.66 1527.93C1720.93 1528.48 1721.06 1529.07 1721.06 1529.67C1721.06 1530.28 1720.93 1530.87 1720.66 1531.41C1720.4 1531.95 1720.02 1532.43 1719.55 1532.81C1719.08 1533.18 1718.53 1533.45 1717.95 1533.58C1717.36 1533.72 1716.75 1533.72 1716.16 1533.58Z" fill="black"/>
<path d="M1619.22 1497.02C1618.16 1497.02 1617.14 1496.6 1616.38 1495.84C1615.63 1495.09 1615.21 1494.07 1615.21 1493.01V1432.73C1615.08 1432.15 1615.09 1431.54 1615.23 1430.96C1615.37 1430.38 1615.63 1429.83 1616.01 1429.37C1616.38 1428.9 1616.86 1428.52 1617.4 1428.27C1617.94 1428.01 1618.53 1427.88 1619.13 1427.88C1619.73 1427.88 1620.32 1428.01 1620.86 1428.27C1621.4 1428.52 1621.87 1428.9 1622.25 1429.37C1622.62 1429.83 1622.89 1430.38 1623.03 1430.96C1623.17 1431.54 1623.17 1432.15 1623.05 1432.73V1493.13C1623.02 1494.14 1622.61 1495.1 1621.9 1495.83C1621.19 1496.55 1620.23 1496.97 1619.22 1497.02Z" fill="black"/>
<path d="M1716.16 2114.44H1655.64C1655.06 2114.56 1654.45 2114.56 1653.87 2114.42C1653.29 2114.28 1652.74 2114.01 1652.28 2113.64C1651.81 2113.26 1651.44 2112.79 1651.18 2112.25C1650.92 2111.71 1650.79 2111.12 1650.79 2110.52C1650.79 2109.92 1650.92 2109.33 1651.18 2108.79C1651.44 2108.25 1651.81 2107.77 1652.28 2107.4C1652.74 2107.02 1653.29 2106.75 1653.87 2106.62C1654.45 2106.48 1655.06 2106.47 1655.64 2106.6H1716.16C1717.06 2106.79 1717.86 2107.29 1718.43 2108C1719.01 2108.71 1719.32 2109.6 1719.32 2110.52C1719.32 2111.43 1719.01 2112.32 1718.43 2113.04C1717.86 2113.75 1717.06 2114.24 1716.16 2114.44Z" fill="black"/>
<path d="M1619.22 2208.15C1618.16 2208.15 1617.14 2207.73 1616.38 2206.98C1615.63 2206.23 1615.21 2205.21 1615.21 2204.14V2146.95C1615.08 2146.37 1615.09 2145.76 1615.23 2145.18C1615.37 2144.6 1615.63 2144.05 1616.01 2143.59C1616.38 2143.12 1616.86 2142.75 1617.4 2142.49C1617.94 2142.23 1618.53 2142.1 1619.13 2142.1C1619.73 2142.1 1620.32 2142.23 1620.86 2142.49C1621.4 2142.75 1621.87 2143.12 1622.25 2143.59C1622.62 2144.05 1622.89 2144.6 1623.03 2145.18C1623.17 2145.76 1623.17 2146.37 1623.05 2146.95V2204.14C1623.05 2205.17 1622.65 2206.17 1621.94 2206.91C1621.22 2207.66 1620.25 2208.1 1619.22 2208.15Z" fill="black"/>
<path d="M1329.99 1842.11C1317.05 1842.14 1304.47 1837.74 1294.37 1829.64L1121.98 1690.92C1121.39 1690.21 1121.07 1689.32 1121.06 1688.39C1121.06 1687.47 1121.37 1686.57 1121.95 1685.85C1122.53 1685.14 1123.34 1684.64 1124.24 1684.45C1125.15 1684.26 1126.09 1684.39 1126.91 1684.81L1299.3 1823.55C1308.03 1830.51 1318.86 1834.3 1330.02 1834.3C1341.19 1834.3 1352.02 1830.51 1360.75 1823.55L1533.14 1684.81C1533.96 1684.39 1534.9 1684.26 1535.81 1684.45C1536.71 1684.64 1537.52 1685.14 1538.1 1685.85C1538.68 1686.57 1538.99 1687.47 1538.99 1688.39C1538.98 1689.32 1538.66 1690.21 1538.07 1690.92L1365.68 1829.64C1355.56 1837.76 1342.96 1842.16 1329.99 1842.11V1842.11Z" fill="#03C3A6"/>
<path d="M1124.5 1953C1123.7 1952.95 1122.94 1952.65 1122.31 1952.16C1121.67 1951.66 1121.21 1950.99 1120.96 1950.22C1120.72 1949.46 1120.71 1948.64 1120.94 1947.87C1121.16 1947.1 1121.62 1946.42 1122.24 1945.91L1294.63 1823.41C1295.03 1822.97 1295.53 1822.62 1296.08 1822.4C1296.64 1822.17 1297.23 1822.07 1297.83 1822.11C1298.43 1822.14 1299.01 1822.31 1299.53 1822.6C1300.05 1822.89 1300.5 1823.29 1300.85 1823.77C1301.2 1824.26 1301.44 1824.82 1301.54 1825.4C1301.65 1825.99 1301.62 1826.6 1301.46 1827.17C1301.3 1827.75 1301.02 1828.28 1300.63 1828.73C1300.24 1829.18 1299.75 1829.54 1299.2 1829.78L1126.81 1952.28C1126.14 1952.77 1125.33 1953.02 1124.5 1953V1953Z" fill="#03C3A6"/>
<path d="M1535.51 1953.01C1534.69 1953.01 1533.9 1952.76 1533.24 1952.28L1360.85 1829.78C1360.3 1829.55 1359.8 1829.19 1359.41 1828.74C1359.01 1828.29 1358.72 1827.76 1358.56 1827.18C1358.4 1826.6 1358.37 1826 1358.47 1825.4C1358.58 1824.81 1358.81 1824.25 1359.16 1823.77C1359.51 1823.28 1359.96 1822.88 1360.49 1822.59C1361.01 1822.3 1361.59 1822.13 1362.19 1822.09C1362.79 1822.06 1363.39 1822.16 1363.94 1822.39C1364.5 1822.61 1364.99 1822.96 1365.4 1823.41L1537.79 1945.91C1538.41 1946.42 1538.87 1947.1 1539.09 1947.87C1539.32 1948.64 1539.31 1949.46 1539.07 1950.23C1538.82 1950.99 1538.35 1951.66 1537.72 1952.16C1537.09 1952.65 1536.33 1952.95 1535.53 1953.01H1535.51Z" fill="#03C3A6"/>
<path d="M1648.01 2011.86L1587.15 2107.84C1586.36 2109.48 1585.62 2111.09 1584.88 2112.67C1569.2 2146.72 1561.09 2183.76 1561.13 2221.24L1558.86 2359.56L1381.25 2355.79L1378.23 2185.7C1374.06 2128.47 1362.75 2083.18 1347.66 2043.37C1334.31 2008.13 1377.72 1995.66 1386.91 2026.15C1390.23 2037.1 1407.09 2071.36 1407.09 2071.36L1437.52 1933.84C1441.43 1919.47 1453.14 1914.16 1462.34 1916.56L1463.74 1916.94C1472.92 1919.37 1478.84 1930.59 1477.41 1939.79L1466.37 2037.24L1501.51 1923.82C1506.16 1911.93 1517.55 1905.25 1527.35 1908.44L1528.75 1908.8C1539.84 1912.21 1543.39 1924.56 1541.18 1934.86L1515.9 2043.67L1565.32 1951.1C1573.73 1935.06 1584 1929.05 1595.14 1934.56C1605.17 1939.43 1608.55 1949.08 1601.94 1965.99L1561.85 2058.07L1614.71 1998.13C1624.57 1986.8 1631.75 1983.47 1640.53 1987.1L1641.87 1987.66C1649.85 1992.62 1653.84 2001.9 1648.01 2011.86Z" fill="white"/>
<path d="M1522.22 1915.48C1523.12 1915.48 1524.02 1915.62 1524.88 1915.9L1525.28 1916.02L1526.53 1916.34C1533.74 1918.67 1534.54 1927.63 1533.46 1933.16L1508.26 2041.89C1507.84 2043.74 1508.09 2045.69 1508.99 2047.36C1509.88 2049.04 1511.36 2050.34 1513.14 2051.01C1514.02 2051.33 1514.96 2051.5 1515.9 2051.51C1517.32 2051.51 1518.71 2051.12 1519.93 2050.39C1521.15 2049.66 1522.15 2048.61 1522.82 2047.36L1572.25 1954.77C1575.06 1949.42 1580.77 1940.44 1587.23 1940.44C1588.78 1940.47 1590.3 1940.87 1591.68 1941.6C1594.76 1943.12 1601.2 1946.27 1594.7 1963.01L1554.61 2054.94C1553.87 2056.65 1553.77 2058.57 1554.31 2060.35C1554.86 2062.13 1556.02 2063.65 1557.59 2064.66C1559.16 2065.66 1561.04 2066.07 1562.88 2065.81C1564.73 2065.55 1566.42 2064.65 1567.66 2063.26L1620.56 2003.28C1628.16 1994.56 1631.85 1993.54 1633.97 1993.54C1635.18 1993.57 1636.38 1993.85 1637.48 1994.34L1638.16 1994.64C1640.83 1996.43 1645.34 2000.65 1641.27 2007.77L1580.45 2103.63C1580.29 2103.91 1580.11 2104.21 1579.97 2104.51L1577.7 2109.4C1561.61 2144.47 1553.26 2182.6 1553.23 2221.18L1551.1 2351.6L1388.89 2348.15L1386 2185.6C1386.01 2185.45 1386.01 2185.31 1386 2185.16C1382.15 2132.32 1372.27 2086.39 1354.95 2040.63C1352.13 2033.19 1352.27 2026.59 1355.37 2022.16C1356.54 2020.48 1358.11 2019.11 1359.93 2018.17C1361.75 2017.22 1363.77 2016.74 1365.82 2016.75C1372.09 2016.75 1377.14 2021.14 1379.37 2028.46C1382.86 2039.9 1399.41 2073.44 1400.02 2074.87C1400.66 2076.18 1401.66 2077.29 1402.91 2078.06C1404.15 2078.83 1405.59 2079.24 1407.05 2079.24C1407.36 2079.26 1407.67 2079.26 1407.97 2079.24C1409.58 2079.05 1411.09 2078.38 1412.29 2077.3C1413.5 2076.22 1414.33 2074.8 1414.69 2073.22L1445.08 1935.85C1447.52 1927.09 1453.48 1923.96 1457.87 1923.96C1458.68 1923.96 1459.49 1924.06 1460.27 1924.26L1461.68 1924.64C1466.49 1925.9 1470.5 1933.02 1469.7 1938.67C1469.7 1938.79 1469.7 1938.89 1469.7 1938.99L1458.63 2036.44C1458.41 2038.38 1458.93 2040.33 1460.07 2041.91C1461.21 2043.49 1462.9 2044.59 1464.8 2045C1465.34 2045.11 1465.88 2045.16 1466.43 2045.16C1468.1 2045.16 1469.73 2044.63 1471.08 2043.64C1472.42 2042.64 1473.42 2041.24 1473.91 2039.64L1508.97 1926.52C1511.45 1919.99 1516.92 1915.48 1522.22 1915.48ZM1522.22 1907.64C1513.8 1907.64 1505.32 1913.94 1501.45 1923.82L1466.31 2037.24L1477.35 1939.8C1478.78 1930.59 1472.86 1919.37 1463.68 1916.94L1462.28 1916.56C1460.84 1916.19 1459.36 1916.01 1457.87 1916C1449.65 1916 1440.77 1921.69 1437.46 1933.84L1407.05 2071.4C1407.05 2071.4 1390.19 2037.14 1386.87 2026.19C1383.26 2014.17 1374.44 2008.91 1365.82 2008.91C1352.41 2008.91 1339.48 2021.94 1347.62 2043.41C1362.71 2083.22 1374.02 2128.51 1378.19 2185.74L1381.21 2355.83L1558.82 2359.6L1561.09 2221.28C1561.05 2183.8 1569.16 2146.76 1584.84 2112.71C1585.58 2111.13 1586.32 2109.52 1587.11 2107.88L1648.01 2011.86C1653.88 2001.84 1649.89 1992.62 1641.87 1987.67L1640.53 1987.1C1638.48 1986.21 1636.27 1985.74 1634.03 1985.7C1627.9 1985.7 1622.01 1989.71 1614.71 1998.13L1561.81 2058.07L1601.9 1966.1C1608.51 1949.18 1605.03 1939.53 1595.1 1934.66C1592.62 1933.38 1589.88 1932.69 1587.09 1932.66C1579.07 1932.66 1571.55 1939.05 1565.18 1951.16L1515.9 2043.67L1541.12 1934.86C1543.32 1924.56 1539.78 1912.21 1528.69 1908.8L1527.29 1908.42C1525.65 1907.89 1523.94 1907.62 1522.22 1907.62V1907.64Z" fill="black"/>
<path d="M1561.08 2267.83H1378.18V2516.52H1561.08V2267.83Z" fill="#DCDCDC"/>
<path d="M1561.08 2393.04H1377.6V2400.88H1561.08V2393.04Z" fill="white"/>
<path d="M1523.42 2324.7C1533.68 2324.7 1542 2316.38 1542 2306.12C1542 2295.85 1533.68 2287.53 1523.42 2287.53C1513.16 2287.53 1504.84 2295.85 1504.84 2306.12C1504.84 2316.38 1513.16 2324.7 1523.42 2324.7Z" fill="white"/>
<path d="M1523.42 2374.35C1533.68 2374.35 1542 2366.03 1542 2355.77C1542 2345.51 1533.68 2337.19 1523.42 2337.19C1513.16 2337.19 1504.84 2345.51 1504.84 2355.77C1504.84 2366.03 1513.16 2374.35 1523.42 2374.35Z" fill="white"/>
<path d="M456.809 903.735C628.246 903.735 767.222 764.758 767.222 593.322C767.222 421.886 628.246 282.909 456.809 282.909C285.373 282.909 146.396 421.886 146.396 593.322C146.396 764.758 285.373 903.735 456.809 903.735Z" fill="white"/>
<path d="M2203.2 903.735C2374.64 903.735 2513.61 764.758 2513.61 593.322C2513.61 421.886 2374.64 282.909 2203.2 282.909C2031.76 282.909 1892.79 421.886 1892.79 593.322C1892.79 764.758 2031.76 903.735 2203.2 903.735Z" fill="white"/>
<path d="M272.405 1654C420.681 1654 540.882 1533.8 540.882 1385.52C540.882 1237.25 420.681 1117.05 272.405 1117.05C124.13 1117.05 3.92871 1237.25 3.92871 1385.52C3.92871 1533.8 124.13 1654 272.405 1654Z" fill="white"/>
<path d="M2387.6 1654C2535.88 1654 2656.08 1533.8 2656.08 1385.52C2656.08 1237.25 2535.88 1117.05 2387.6 1117.05C2239.33 1117.05 2119.13 1237.25 2119.13 1385.52C2119.13 1533.8 2239.33 1654 2387.6 1654Z" fill="white"/>
<path d="M1336.39 624.735C1507.82 624.735 1646.8 485.758 1646.8 314.322C1646.8 142.886 1507.82 3.90918 1336.39 3.90918C1164.95 3.90918 1025.98 142.886 1025.98 314.322C1025.98 485.758 1164.95 624.735 1336.39 624.735Z" fill="white"/>
<path d="M1346.19 1263.1C1345.52 1263.1 1344.85 1262.93 1344.27 1262.6C1343.68 1262.27 1343.19 1261.79 1342.84 1261.22C1342.49 1260.64 1342.29 1259.98 1342.27 1259.31C1342.25 1258.63 1342.41 1257.96 1342.72 1257.37C1391.72 1164.5 1364.27 1132.72 1335.21 1099C1315.52 1076.21 1295.12 1052.66 1295.12 1010.42C1295.12 980.853 1309.15 958.702 1322.64 937.273C1342.32 906.082 1362.73 873.828 1342.44 815.874C1342.33 814.966 1342.53 814.046 1343.02 813.268C1343.5 812.491 1344.24 811.902 1345.1 811.6C1345.96 811.297 1346.91 811.3 1347.77 811.607C1348.63 811.915 1349.36 812.508 1349.84 813.288C1371.33 874.81 1349.94 908.688 1329.25 941.443C1315.72 962.892 1302.95 983.119 1302.95 1010.42C1302.95 1049.73 1322.34 1072.18 1341.04 1093.87C1370.55 1127.95 1401.06 1163.37 1349.56 1260.96C1349.24 1261.58 1348.75 1262.1 1348.16 1262.48C1347.57 1262.85 1346.89 1263.07 1346.19 1263.1Z" fill="#03C3A6"/>
<path d="M1110.55 1289.5C1109.72 1289.49 1108.91 1289.22 1108.24 1288.73C1107.57 1288.24 1107.06 1287.55 1106.8 1286.76C1080.02 1200.56 1045.72 1198.21 1006.01 1195.39C979.95 1193.52 953.128 1191.62 927.189 1165.76C909.027 1147.72 903.975 1125.55 899.124 1104.18C892.088 1073.29 884.811 1041.35 837.322 1018.56C836.742 1018.42 836.201 1018.15 835.738 1017.77C835.275 1017.4 834.902 1016.92 834.647 1016.38C834.391 1015.84 834.259 1015.25 834.26 1014.66C834.261 1014.06 834.395 1013.47 834.653 1012.93C834.911 1012.39 835.285 1011.92 835.749 1011.55C836.214 1011.17 836.756 1010.9 837.336 1010.77C837.917 1010.63 838.521 1010.62 839.104 1010.74C839.688 1010.87 840.237 1011.12 840.71 1011.48C891.607 1035.92 899.325 1069.74 906.862 1102.43C911.693 1123.66 916.263 1143.71 932.822 1160.21C956.696 1184 982.095 1185.8 1006.67 1187.57C1045.68 1190.35 1086.01 1193.22 1114.4 1284.43C1114.68 1285.42 1114.57 1286.48 1114.08 1287.39C1113.6 1288.3 1112.79 1289 1111.81 1289.32C1111.41 1289.46 1110.98 1289.52 1110.55 1289.5V1289.5Z" fill="#03C3A6"/>
<path d="M717.869 1519.65C699.246 1519.65 685.434 1510.93 672.084 1502.51C652.338 1490.04 633.696 1478.27 598.755 1490.48C597.847 1490.59 596.927 1490.39 596.149 1489.91C595.372 1489.43 594.783 1488.69 594.48 1487.83C594.178 1486.96 594.181 1486.02 594.488 1485.16C594.796 1484.3 595.389 1483.56 596.169 1483.09C634.678 1469.63 656.769 1483.57 676.354 1495.87C689.323 1504.07 701.592 1511.91 717.949 1511.91C741.543 1511.91 754.533 1500.71 768.265 1488.86C789.654 1470.38 811.765 1451.27 872.684 1483.41C873.391 1483.99 873.875 1484.81 874.053 1485.71C874.231 1486.61 874.094 1487.55 873.664 1488.36C873.234 1489.18 872.537 1489.82 871.691 1490.18C870.845 1490.54 869.9 1490.6 869.016 1490.34C812.887 1460.69 794.565 1476.49 773.396 1494.77C759.725 1506.38 744.37 1519.65 717.869 1519.65Z" fill="#03C3A6"/>
<path d="M1588.03 1289.02C1587.16 1288.94 1586.34 1288.57 1585.7 1287.98C1585.05 1287.38 1584.62 1286.6 1584.47 1285.74C1584.31 1284.88 1584.44 1283.99 1584.84 1283.21C1585.24 1282.43 1585.88 1281.8 1586.66 1281.42C1671.28 1250.23 1671.96 1215.85 1672.74 1176.06C1673.26 1150 1673.8 1123.06 1698.28 1095.88C1715.42 1076.79 1737.25 1070.62 1758.42 1064.67C1788.91 1056.05 1820.42 1047.13 1840.75 998.514C1840.86 997.927 1841.1 997.373 1841.45 996.891C1841.8 996.409 1842.26 996.013 1842.79 995.73C1843.31 995.447 1843.89 995.285 1844.49 995.256C1845.09 995.227 1845.68 995.331 1846.23 995.561C1846.78 995.792 1847.28 996.142 1847.67 996.587C1848.07 997.032 1848.37 997.561 1848.53 998.134C1848.7 998.707 1848.74 999.31 1848.64 999.899C1848.55 1000.49 1848.32 1001.05 1847.98 1001.54C1826.19 1053.66 1792.84 1063.06 1760.56 1072.18C1739.59 1078.2 1719.81 1083.69 1704.17 1101.09C1681.66 1126.15 1681.14 1151.61 1680.66 1176.24C1679.88 1215.33 1679.08 1255.76 1589.45 1288.8C1588.99 1288.96 1588.51 1289.03 1588.03 1289.02V1289.02Z" fill="#03C3A6"/>
<path d="M1841.55 1521.61C1827.74 1521.61 1810.42 1517.4 1787.57 1506.48C1786.98 1506.34 1786.43 1506.08 1785.97 1505.7C1785.5 1505.33 1785.12 1504.85 1784.86 1504.31C1784.6 1503.77 1784.47 1503.17 1784.47 1502.57C1784.47 1501.97 1784.6 1501.38 1784.86 1500.84C1785.12 1500.3 1785.5 1499.82 1785.97 1499.45C1786.44 1499.07 1786.98 1498.81 1787.57 1498.67C1788.15 1498.53 1788.76 1498.53 1789.35 1498.66C1789.93 1498.79 1790.48 1499.05 1790.95 1499.42C1848.3 1526.83 1865.97 1510.31 1886.41 1491.18C1899.5 1478.94 1914.34 1465.12 1940.86 1464C1959.46 1463.22 1973.63 1471.42 1987.32 1479.32C2007.55 1491 2026.67 1502.03 2061.13 1488.44C2062.04 1488.28 2062.97 1488.44 2063.78 1488.9C2064.58 1489.35 2065.2 1490.06 2065.54 1490.91C2065.88 1491.77 2065.91 1492.72 2065.63 1493.59C2065.36 1494.47 2064.79 1495.23 2064.02 1495.73C2025.93 1510.71 2003.38 1497.64 1983.4 1486.11C1970.08 1478.44 1957.52 1471.18 1941.18 1471.82C1917.56 1472.76 1905.1 1484.49 1891.76 1496.9C1878.43 1509.31 1865.34 1521.61 1841.55 1521.61Z" fill="#03C3A6"/>
<path d="M2171.85 454.484C2168.44 447.847 2166.54 440.535 2166.29 433.077C2166.05 425.618 2167.46 418.198 2170.43 411.351C2173.4 404.504 2177.85 398.401 2183.46 393.481C2189.07 388.561 2195.7 384.947 2202.88 382.9L2221.78 377.507C2228.66 375.547 2235.87 375.07 2242.94 376.107C2250.01 377.145 2256.78 379.673 2262.8 383.524C2268.83 387.375 2273.96 392.462 2277.87 398.447C2281.77 404.432 2284.37 411.179 2285.47 418.241L2286.31 423.613C2287.44 430.809 2286.99 438.163 2285 445.17C2283.02 452.177 2279.54 458.67 2274.8 464.204C2270.07 469.737 2264.19 474.18 2257.57 477.225C2250.96 480.271 2243.76 481.847 2236.48 481.847H2216.73C2207.46 481.849 2198.36 479.296 2190.45 474.469C2182.53 469.642 2176.09 462.728 2171.85 454.484Z" fill="black"/>
<path d="M2181.77 1557.88C2207.52 1588.63 2239.83 1613.22 2276.32 1629.84C2312.82 1646.47 2352.58 1654.7 2392.68 1653.95C2432.77 1653.19 2472.19 1643.46 2508.04 1625.47C2543.88 1607.49 2575.24 1581.7 2599.81 1550C2583.97 1484.23 2496.77 1433.91 2391.55 1433.91C2282.18 1433.91 2192.25 1488.28 2181.77 1557.88Z" fill="#DCDCDC"/>
<path d="M1970.75 798.894C2000.2 832.236 2036.49 858.853 2077.13 876.943C2117.78 895.033 2161.84 904.172 2206.32 903.74C2250.81 903.309 2294.69 893.317 2334.97 874.442C2375.26 855.567 2411.02 828.25 2439.82 794.344C2424.61 718.81 2325.56 660.517 2205.69 660.517C2083.31 660.517 1982.77 721.236 1970.75 798.894Z" fill="#03C3A6"/>
<path d="M2203.28 907.665C2158.74 907.627 2114.72 898.137 2074.12 879.822C2033.53 861.507 1997.28 834.785 1967.78 801.421C1967.4 800.985 1967.12 800.473 1966.96 799.92C1966.79 799.366 1966.75 798.784 1966.84 798.213C1979.41 717.428 2082.08 656.508 2205.66 656.508C2325.6 656.508 2427.92 715.403 2443.65 793.502C2443.76 794.083 2443.74 794.681 2443.59 795.253C2443.44 795.824 2443.17 796.356 2442.79 796.81C2413.3 831.561 2376.61 859.478 2335.25 878.621C2293.89 897.764 2248.85 907.674 2203.28 907.665ZM1974.75 797.692C2003.83 830.194 2039.51 856.116 2079.4 873.727C2119.3 891.337 2162.49 900.229 2206.1 899.81C2249.7 899.391 2292.72 889.669 2332.27 871.295C2371.82 852.921 2406.99 826.317 2435.43 793.262C2419.18 719.693 2320.85 664.426 2205.52 664.426C2147.39 664.426 2091.66 678.458 2048.72 703.917C2007.27 728.553 1981.07 761.79 1974.75 797.692Z" fill="black"/>
<path d="M1607.73 465.168C1558.32 400.72 1456.23 356.398 1338.29 356.398C1218.6 356.398 1115.22 402.043 1066.67 468.055C1093.95 515.893 1133.46 555.616 1181.14 583.152C1228.83 610.687 1282.99 625.044 1338.06 624.75C1393.12 624.456 1447.12 609.522 1494.51 581.48C1541.91 553.437 1580.99 513.295 1607.75 465.168H1607.73Z" fill="white"/>
<path d="M1336.39 628.663C1280.93 628.576 1226.48 613.861 1178.52 586.004C1130.57 558.146 1090.81 518.132 1063.26 469.999L1062 467.773L1063.5 465.769C1088.14 432.272 1126.45 403.987 1174.28 383.921C1223.21 363.434 1279.92 352.589 1338.29 352.589C1454.26 352.589 1558.8 394.826 1610.92 462.842L1612.5 464.847L1611.24 467.092C1583.97 516.058 1544.11 556.852 1495.79 585.256C1447.47 613.661 1392.44 628.646 1336.39 628.663ZM1071.34 468.295C1098.45 514.926 1137.37 553.581 1184.19 580.358C1231.01 607.135 1284.07 621.085 1338 620.8C1391.94 620.515 1444.85 606.006 1491.38 578.737C1537.92 551.467 1576.43 512.403 1603.04 465.488C1551.78 400.599 1450.71 360.407 1338.29 360.407C1225.52 360.407 1121.14 402.684 1071.34 468.315V468.295Z" fill="black"/>
<path d="M456.809 903.757C500.794 903.79 544.281 894.453 584.376 876.369C624.471 858.285 660.254 831.868 689.343 798.876C677.316 721.158 576.665 660.559 454.384 660.559C334.468 660.559 235.441 718.873 220.246 794.426C249.364 828.745 285.613 856.305 326.468 875.186C367.323 894.068 411.802 903.818 456.809 903.757Z" fill="#DCDCDC"/>
<path d="M456.809 907.665C455.769 907.666 454.77 907.262 454.022 906.541C453.274 905.819 452.836 904.835 452.799 903.796L450.454 696.099C450.453 695.06 450.857 694.061 451.578 693.313C452.3 692.565 453.284 692.126 454.323 692.09C455.366 692.089 456.368 692.495 457.116 693.221C457.865 693.947 458.301 694.936 458.332 695.979L460.718 903.656C460.718 904.695 460.315 905.694 459.593 906.442C458.872 907.19 457.888 907.629 456.849 907.665H456.809Z" fill="white"/>
<path d="M63.9062 1554.65C89.1785 1585.8 121.111 1610.9 157.357 1628.09C193.603 1645.28 233.241 1654.12 273.356 1653.98C313.472 1653.84 353.044 1644.7 389.166 1627.25C425.287 1609.8 457.039 1584.48 482.087 1553.15C468.355 1485.83 380.052 1433.89 273.147 1433.89C165.459 1433.91 76.6355 1486.61 63.9062 1554.65Z" fill="white"/>
<path d="M272.405 1657.93C231.856 1658 191.807 1648.98 155.2 1631.54C118.592 1614.1 86.3559 1588.69 60.8594 1557.16L59.7168 1555.75L60.0576 1553.97C73.2679 1483.33 164.878 1430.04 273.147 1430.04C380.213 1430.04 471.603 1482.66 485.936 1552.32L486.297 1554.13L485.154 1555.55C459.702 1587.55 427.346 1613.38 390.505 1631.11C353.663 1648.83 313.29 1658 272.405 1657.93ZM68.096 1553.69C93.0199 1583.97 124.363 1608.33 159.858 1625.01C195.352 1641.69 234.111 1650.27 273.329 1650.13C312.547 1649.99 351.244 1641.14 386.62 1624.21C421.997 1607.28 453.167 1582.7 477.877 1552.24C463.143 1486.93 375.642 1437.98 273.147 1437.98C169.529 1437.84 81.8677 1487.48 68.096 1553.61V1553.69Z" fill="black"/>
<path d="M456.81 907.664C283.471 907.664 142.548 766.66 142.548 593.322C142.548 419.984 283.552 279 456.89 279C630.228 279 771.212 420.004 771.212 593.322C771.212 766.64 630.128 907.664 456.81 907.664ZM456.81 286.838C287.801 286.838 150.306 424.334 150.306 593.322C150.306 762.31 287.801 899.826 456.81 899.826C625.818 899.826 763.294 762.33 763.294 593.322C763.294 424.314 625.798 286.838 456.81 286.838Z" fill="black"/>
<path d="M2352.64 1533.58H2352.4C2351.65 1533.53 2350.94 1533.26 2350.33 1532.82C2349.72 1532.38 2349.25 1531.77 2348.98 1531.08L2314.42 1441.59C2314.2 1441.01 2314.12 1440.38 2314.18 1439.76C2314.25 1439.14 2314.46 1438.55 2314.8 1438.02C2315.14 1437.51 2315.6 1437.08 2316.14 1436.77C2316.68 1436.47 2317.28 1436.29 2317.9 1436.26L2456.96 1430C2457.61 1429.98 2458.25 1430.12 2458.83 1430.39C2459.42 1430.67 2459.92 1431.09 2460.31 1431.61C2460.68 1432.13 2460.92 1432.74 2461.01 1433.38C2461.1 1434.02 2461.03 1434.67 2460.81 1435.28L2425.63 1531.1C2425.34 1531.78 2424.86 1532.38 2424.25 1532.81C2423.64 1533.24 2422.92 1533.49 2422.17 1533.54C2421.43 1533.58 2420.68 1533.41 2420.03 1533.06C2419.37 1532.7 2418.82 1532.17 2418.45 1531.52L2388.25 1471.52L2356.17 1531.66C2355.81 1532.27 2355.3 1532.77 2354.68 1533.11C2354.05 1533.45 2353.35 1533.61 2352.64 1533.58ZM2323.7 1443.84L2353.23 1520.29L2384.9 1461.07C2385.25 1460.46 2385.76 1459.95 2386.37 1459.6C2386.98 1459.25 2387.67 1459.06 2388.38 1459.06C2389.08 1459.06 2389.77 1459.25 2390.39 1459.6C2391 1459.95 2391.5 1460.46 2391.85 1461.07L2421.38 1519.77L2451.45 1438.02L2323.7 1443.84Z" fill="white"/>
<path d="M2203.28 907.664C2029.96 907.664 1888.96 766.66 1888.96 593.322C1888.96 419.984 2029.96 279 2203.28 279C2376.6 279 2517.62 420.004 2517.62 593.322C2517.62 766.64 2376.54 907.664 2203.28 907.664ZM2203.28 286.838C2034.29 286.838 1896.79 424.334 1896.79 593.322C1896.79 762.31 2034.29 899.826 2203.28 899.826C2372.27 899.826 2509.78 762.33 2509.78 593.322C2509.78 424.314 2372.21 286.838 2203.28 286.838Z" fill="black"/>
<path d="M272.406 1657.93C122.201 1657.93 0 1535.65 0 1385.52C0 1235.4 122.281 1113.14 272.406 1113.14C422.53 1113.14 544.791 1235.42 544.791 1385.52C544.791 1535.63 422.591 1657.93 272.406 1657.93ZM272.406 1120.97C126.531 1120.97 7.79791 1239.65 7.79791 1385.58C7.79791 1531.52 126.491 1650.19 272.406 1650.19C418.321 1650.19 537.013 1531.5 537.013 1385.58C537.013 1239.67 418.281 1120.97 272.406 1120.97Z" fill="black"/>
<path d="M2387.7 1657.93C2237.52 1657.93 2115.32 1535.65 2115.32 1385.52C2115.32 1235.4 2237.36 1113.14 2387.7 1113.14C2538.05 1113.14 2660.11 1235.42 2660.11 1385.52C2660.11 1535.63 2537.81 1657.93 2387.7 1657.93ZM2387.7 1120.97C2241.83 1120.97 2123.1 1239.65 2123.1 1385.58C2123.1 1531.52 2241.77 1650.19 2387.7 1650.19C2533.64 1650.19 2652.31 1531.5 2652.31 1385.58C2652.31 1239.67 2533.48 1120.97 2387.7 1120.97Z" fill="black"/>
<path d="M1336.39 628.664C1163.07 628.664 1022.05 487.66 1022.05 314.322C1022.05 140.984 1163.07 0 1336.39 0C1509.71 0 1650.73 141.004 1650.73 314.302C1650.73 487.6 1509.69 628.664 1336.39 628.664ZM1336.39 7.83801C1167.38 7.83801 1029.88 145.334 1029.88 314.322C1029.88 483.31 1167.38 620.826 1336.39 620.826C1505.4 620.826 1642.89 483.33 1642.89 314.322C1642.89 145.314 1505.4 7.83801 1336.39 7.83801Z" fill="black"/>
<path d="M2520.6 1368.02C2521.17 1350.44 2510.91 1335.84 2497.67 1335.41C2484.44 1334.98 2473.25 1348.88 2472.68 1366.46C2472.1 1384.05 2482.37 1398.65 2495.6 1399.08C2508.84 1399.51 2520.03 1385.6 2520.6 1368.02Z" fill="white"/>
<path d="M2497.22 1343.3C2505.39 1343.3 2512.41 1353.23 2512.87 1365.36C2513.37 1378.57 2506.22 1390.41 2497.24 1391.23H2496.27C2488.12 1391.23 2481.1 1381.31 2480.62 1369.18C2480.14 1355.97 2487.29 1344.13 2496.25 1343.3C2496.57 1343.28 2496.9 1343.28 2497.22 1343.3ZM2497.22 1335.47C2496.66 1335.44 2496.11 1335.44 2495.55 1335.47C2482.32 1336.67 2472.14 1351.88 2472.8 1369.42C2473.44 1386.24 2483.79 1399.09 2496.27 1399.09C2496.83 1399.12 2497.4 1399.12 2497.96 1399.09C2511.19 1397.89 2521.37 1382.67 2520.71 1365.13C2520.07 1348.32 2509.72 1335.47 2497.22 1335.47Z" fill="black"/>
<path d="M2497.96 1380.17C2497.24 1380.17 2496.55 1379.97 2495.94 1379.6C2495.33 1379.23 2494.83 1378.7 2494.5 1378.07C2494.17 1377.44 2494.02 1376.73 2494.06 1376.02C2494.11 1375.31 2494.34 1374.62 2494.75 1374.04C2500.76 1365.3 2495.27 1359.32 2494.63 1358.68C2494.12 1357.92 2493.89 1357 2493.98 1356.09C2494.06 1355.18 2494.46 1354.32 2495.1 1353.66C2495.74 1353.01 2496.58 1352.59 2497.49 1352.48C2498.41 1352.37 2499.33 1352.58 2500.1 1353.07C2503.97 1356.82 2509.16 1366.92 2501.2 1378.49C2500.84 1379 2500.35 1379.43 2499.78 1379.72C2499.22 1380.01 2498.59 1380.17 2497.96 1380.17Z" fill="black"/>
<path d="M2280.49 1402.54C2293.7 1401.7 2303.51 1386.79 2302.4 1369.23C2301.28 1351.67 2289.67 1338.12 2276.45 1338.96C2263.24 1339.8 2253.43 1354.71 2254.54 1372.27C2255.66 1389.82 2267.27 1403.38 2280.49 1402.54Z" fill="white"/>
<path d="M2277.59 1346.67H2278.23C2287.23 1347.21 2294.75 1358.84 2294.67 1372.05C2294.67 1384.5 2287.73 1394.64 2279.39 1394.64H2278.75C2269.75 1394.1 2262.24 1382.47 2262.32 1369.26C2262.4 1356.84 2269.25 1346.67 2277.59 1346.67ZM2277.59 1338.83C2264.84 1338.83 2254.6 1352.14 2254.48 1369.22C2254.36 1386.78 2265 1401.66 2278.27 1402.46C2278.65 1402.48 2279.02 1402.48 2279.39 1402.46C2292.14 1402.46 2302.39 1389.15 2302.51 1372.09C2302.63 1354.51 2291.98 1339.64 2278.71 1338.83C2278.34 1338.81 2277.96 1338.81 2277.59 1338.83Z" fill="black"/>
<path d="M2277.63 1383.58C2277.02 1383.57 2276.41 1383.42 2275.86 1383.15C2275.31 1382.87 2274.83 1382.47 2274.46 1381.97C2266.17 1370.69 2271.04 1360.4 2274.79 1356.56C2275.55 1356.05 2276.45 1355.82 2277.36 1355.91C2278.27 1355.99 2279.12 1356.38 2279.78 1357.02C2280.43 1357.65 2280.86 1358.49 2280.97 1359.39C2281.09 1360.29 2280.89 1361.21 2280.42 1361.99C2279.78 1362.67 2274.4 1368.8 2280.78 1377.32C2281.38 1378.17 2281.63 1379.21 2281.47 1380.24C2281.32 1381.26 2280.78 1382.18 2279.96 1382.82C2279.28 1383.31 2278.47 1383.57 2277.63 1383.58Z" fill="black"/>
<path d="M2387 1472.5C2444.16 1472.5 2490.5 1426.16 2490.5 1369C2490.5 1311.84 2444.16 1265.51 2387 1265.51C2329.84 1265.51 2283.5 1311.84 2283.5 1369C2283.5 1426.16 2329.84 1472.5 2387 1472.5Z" fill="white"/>
<path d="M2387.1 1273.34C2408.1 1273.34 2428.52 1280.25 2445.2 1293C2461.89 1305.75 2473.91 1323.64 2479.43 1343.9C2484.94 1364.16 2483.64 1385.67 2475.71 1405.12C2467.79 1424.57 2453.69 1440.87 2435.59 1451.51C2417.48 1462.15 2396.38 1466.54 2375.54 1464C2354.69 1461.46 2335.26 1452.14 2320.24 1437.46C2305.22 1422.79 2295.45 1403.58 2292.42 1382.8C2289.4 1362.02 2293.29 1340.82 2303.51 1322.48C2311.81 1307.59 2323.93 1295.19 2338.63 1286.55C2353.32 1277.91 2370.06 1273.35 2387.1 1273.34ZM2387.1 1265.51C2361.91 1265.47 2337.58 1274.63 2318.65 1291.25C2299.73 1307.87 2287.52 1330.82 2284.3 1355.81C2281.08 1380.79 2287.09 1406.08 2301.18 1426.96C2315.28 1447.83 2336.5 1462.85 2360.88 1469.2C2385.25 1475.55 2411.11 1472.79 2433.59 1461.45C2456.08 1450.1 2473.66 1430.95 2483.04 1407.57C2492.42 1384.2 2492.96 1358.2 2484.55 1334.46C2476.14 1310.72 2459.36 1290.86 2437.36 1278.6C2421.99 1270.03 2404.69 1265.53 2387.1 1265.51Z" fill="black"/>
<path d="M2410.2 1400.24H2372.91C2372.33 1400.36 2371.72 1400.36 2371.14 1400.22C2370.56 1400.08 2370.01 1399.81 2369.55 1399.44C2369.08 1399.06 2368.71 1398.59 2368.45 1398.05C2368.19 1397.51 2368.06 1396.92 2368.06 1396.32C2368.06 1395.72 2368.19 1395.13 2368.45 1394.59C2368.71 1394.05 2369.08 1393.57 2369.55 1393.2C2370.01 1392.82 2370.56 1392.56 2371.14 1392.42C2371.72 1392.28 2372.33 1392.27 2372.91 1392.4H2397.39C2391.37 1384.64 2385.7 1369.23 2387.62 1338.53C2387.53 1337.94 2387.58 1337.34 2387.75 1336.76C2387.93 1336.19 2388.23 1335.66 2388.63 1335.22C2389.04 1334.78 2389.54 1334.44 2390.09 1334.21C2390.65 1333.99 2391.25 1333.89 2391.84 1333.93C2392.44 1333.97 2393.02 1334.14 2393.55 1334.43C2394.07 1334.73 2394.52 1335.13 2394.87 1335.62C2395.21 1336.11 2395.44 1336.67 2395.54 1337.26C2395.64 1337.85 2395.61 1338.46 2395.44 1339.04C2392.3 1389.39 2410.4 1392.42 2410.58 1392.44C2411.57 1392.52 2412.5 1392.98 2413.17 1393.72C2413.83 1394.47 2414.18 1395.45 2414.15 1396.45C2414.09 1397.46 2413.65 1398.42 2412.92 1399.12C2412.18 1399.82 2411.21 1400.22 2410.2 1400.24Z" fill="black"/>
<path d="M2434.46 1353.93C2434.89 1346.74 2432.65 1340.75 2429.45 1340.55C2426.24 1340.36 2423.29 1346.03 2422.85 1353.22C2422.41 1360.42 2424.65 1366.41 2427.86 1366.6C2431.06 1366.8 2434.02 1361.12 2434.46 1353.93Z" fill="black"/>
<path d="M2353.41 1353.94C2353.85 1346.75 2351.61 1340.76 2348.4 1340.56C2345.2 1340.37 2342.24 1346.04 2341.8 1353.23C2341.37 1360.43 2343.61 1366.42 2346.81 1366.61C2350.02 1366.81 2352.97 1361.13 2353.41 1353.94Z" fill="black"/>
<path d="M2292.16 1329.47C2292.16 1329.47 2253.25 1285.37 2332.26 1241.27C2403.68 1201.36 2464.28 1245.56 2464.28 1245.56L2454.94 1261.94C2454.94 1261.94 2507.06 1265.55 2480.86 1326.09L2444.29 1291.85C2324.08 1336.45 2292.16 1329.47 2292.16 1329.47Z" fill="black"/>
<path d="M2116.34 671.904L2200.47 851.055L2291.44 669.939L2116.34 671.904Z" fill="#03C3A6"/>
<path d="M2200.47 854.964C2199.74 854.957 2199.02 854.743 2198.4 854.346C2197.79 853.948 2197.3 853.384 2196.99 852.719L2112.79 673.568C2112.51 672.976 2112.39 672.323 2112.43 671.67C2112.47 671.017 2112.67 670.384 2113.02 669.83C2113.36 669.275 2113.84 668.816 2114.41 668.496C2114.98 668.175 2115.63 668.003 2116.28 667.995L2291.4 665.99C2292.07 665.991 2292.73 666.161 2293.32 666.483C2293.91 666.805 2294.41 667.27 2294.77 667.834C2295.13 668.403 2295.33 669.054 2295.36 669.725C2295.4 670.396 2295.25 671.064 2294.95 671.663L2203.98 852.779C2203.65 853.428 2203.15 853.974 2202.53 854.359C2201.91 854.744 2201.2 854.953 2200.47 854.964ZM2122.47 675.753L2200.65 842.135L2285.11 673.969L2122.47 675.753Z" fill="black"/>
<path d="M272.405 1657.93C271.342 1657.93 270.322 1657.51 269.57 1656.75C268.818 1656 268.396 1654.98 268.396 1653.92L269.198 1507.78L193.484 1533.32C192.808 1533.52 192.092 1533.54 191.407 1533.37C190.723 1533.21 190.094 1532.87 189.583 1532.38C189.073 1531.89 188.7 1531.28 188.502 1530.61C188.303 1529.93 188.286 1529.21 188.452 1528.53L216.517 1431.59C216.558 1430.99 216.732 1430.41 217.027 1429.89C217.321 1429.37 217.727 1428.92 218.217 1428.58C218.706 1428.24 219.266 1428.01 219.855 1427.91C220.445 1427.81 221.049 1427.85 221.623 1428.01C222.197 1428.18 222.727 1428.47 223.174 1428.87C223.622 1429.26 223.975 1429.75 224.208 1430.3C224.441 1430.85 224.548 1431.45 224.521 1432.05C224.495 1432.64 224.335 1433.23 224.054 1433.75L198.134 1523.5L271.944 1498.6C272.537 1498.41 273.166 1498.36 273.782 1498.45C274.398 1498.55 274.983 1498.78 275.492 1499.14C275.994 1499.51 276.402 1500 276.683 1500.55C276.965 1501.11 277.113 1501.73 277.116 1502.35L276.294 1653.96C276.284 1654.99 275.873 1655.99 275.149 1656.73C274.424 1657.47 273.44 1657.9 272.405 1657.93Z" fill="black"/>
<path d="M2336.48 618.21C2352.48 617.872 2365.09 600.361 2364.64 579.098C2364.19 557.835 2350.86 540.872 2334.85 541.21C2318.84 541.548 2306.23 559.059 2306.68 580.322C2307.13 601.585 2320.47 618.548 2336.48 618.21Z" fill="white"/>
<path d="M2335.24 541.304V549.142C2335.73 549.112 2336.22 549.112 2336.71 549.142C2348.37 550.344 2357.54 565.539 2356.75 582.338C2355.97 598.074 2346.89 610.402 2336.05 610.402H2334.56C2322.9 609.2 2313.73 593.985 2314.52 577.206C2315.3 561.45 2324.4 549.142 2335.24 549.142V541.304ZM2335.24 541.304C2320.25 541.304 2307.7 556.639 2306.7 576.825C2305.66 598.034 2317.74 616.557 2333.72 618.22C2334.48 618.22 2335.24 618.321 2336.01 618.321C2351 618.321 2363.55 602.985 2364.55 582.799C2365.59 561.59 2353.49 543.068 2337.51 541.424C2336.76 541.344 2336 541.304 2335.24 541.304Z" fill="black"/>
<path d="M2336.12 597.573C2335.59 597.568 2335.07 597.457 2334.58 597.248C2334.09 597.038 2333.65 596.733 2333.28 596.35C2332.59 595.587 2332.21 594.586 2332.24 593.556C2332.27 592.525 2332.69 591.545 2333.42 590.817C2334.26 589.975 2341.44 582.438 2333.86 571.212C2333.52 570.359 2333.48 569.415 2333.75 568.536C2334.02 567.658 2334.58 566.899 2335.35 566.387C2336.11 565.875 2337.03 565.64 2337.94 565.723C2338.86 565.806 2339.72 566.201 2340.37 566.842C2349.54 580.454 2343.36 592.2 2338.81 596.49C2338.09 597.185 2337.13 597.573 2336.12 597.573Z" fill="black"/>
<path d="M2072.16 621.341C2088.16 620.755 2100.5 603.05 2099.72 581.797C2098.94 560.543 2085.34 543.79 2069.34 544.376C2053.34 544.963 2041.01 562.668 2041.79 583.921C2042.57 605.174 2056.17 621.928 2072.16 621.341Z" fill="white"/>
<path d="M2070.17 544.17V552.008H2071.42C2083.1 553.03 2092.51 568.045 2091.94 584.884C2091.42 600.54 2082.22 613.289 2071.46 613.289C2071.03 613.289 2070.61 613.289 2070.19 613.289C2058.51 612.266 2049.11 597.252 2049.67 580.413C2050.21 564.757 2059.39 552.008 2070.17 552.008V544.17ZM2070.17 544.17C2055.04 544.17 2042.55 559.786 2041.87 580.153C2041.15 601.361 2053.54 619.703 2069.53 621.107C2070.17 621.107 2070.84 621.107 2071.54 621.107C2086.67 621.107 2099.16 605.491 2099.86 585.124C2100.56 563.915 2088.18 545.573 2072.18 544.19C2071.54 544.19 2070.88 544.09 2070.17 544.09V544.17Z" fill="black"/>
<path d="M2069.47 597.393C2068.85 597.386 2068.23 597.232 2067.67 596.943C2067.11 596.654 2066.63 596.238 2066.27 595.729C2056.88 582.258 2062.88 570.431 2067.35 566.061C2068.12 565.579 2069.04 565.374 2069.94 565.481C2070.85 565.587 2071.69 565.999 2072.33 566.648C2072.97 567.297 2073.37 568.144 2073.46 569.051C2073.55 569.957 2073.33 570.868 2072.84 571.634C2072 572.496 2064.98 580.153 2072.7 591.239C2073.27 592.099 2073.49 593.146 2073.3 594.162C2073.12 595.178 2072.55 596.084 2071.72 596.691C2071.06 597.153 2070.28 597.398 2069.47 597.393Z" fill="black"/>
<path d="M2203.44 712.516C2272.54 712.516 2328.55 656.504 2328.55 587.409C2328.55 518.314 2272.54 462.302 2203.44 462.302C2134.35 462.302 2078.33 518.314 2078.33 587.409C2078.33 656.504 2134.35 712.516 2203.44 712.516Z" fill="white"/>
<path d="M2203.5 470.12C2228.73 470.132 2253.29 478.281 2273.52 493.358C2293.75 508.435 2308.58 529.635 2315.8 553.811C2323.03 577.986 2322.26 603.847 2313.62 627.552C2304.98 651.258 2288.92 671.545 2267.84 685.399C2246.75 699.254 2221.75 705.937 2196.57 704.457C2171.38 702.977 2147.34 693.412 2128.02 677.184C2108.7 660.955 2095.13 638.927 2089.32 614.373C2083.52 589.818 2085.79 564.046 2095.79 540.883C2104.77 519.781 2119.78 501.804 2138.94 489.213C2158.11 476.622 2180.57 469.98 2203.5 470.12ZM2203.5 462.282C2172.5 462.237 2142.59 473.696 2119.55 494.439C2096.51 515.182 2081.99 543.735 2078.8 574.569C2075.6 605.404 2083.96 636.327 2102.26 661.353C2120.55 686.378 2147.48 703.725 2177.83 710.036C2208.18 716.346 2239.8 711.172 2266.55 695.514C2293.3 679.856 2313.3 654.828 2322.66 625.276C2332.02 595.723 2330.09 563.749 2317.23 535.542C2304.37 507.335 2281.5 484.902 2253.05 472.586C2237.41 465.812 2220.55 462.305 2203.5 462.282Z" fill="black"/>
<path d="M2205.58 628.283L2160.54 627.261C2159.75 627.245 2158.98 626.989 2158.34 626.527C2157.7 626.064 2157.21 625.418 2156.94 624.672C2156.67 623.927 2156.64 623.118 2156.84 622.352C2157.04 621.586 2157.47 620.901 2158.08 620.385C2158.36 620.124 2186.7 595.087 2189.71 543.749C2189.61 543.157 2189.65 542.551 2189.83 541.977C2190 541.402 2190.29 540.873 2190.7 540.429C2191.1 539.984 2191.6 539.636 2192.15 539.409C2192.71 539.182 2193.31 539.083 2193.9 539.118C2194.5 539.154 2195.09 539.323 2195.61 539.613C2196.13 539.904 2196.59 540.308 2196.93 540.797C2197.28 541.285 2197.52 541.845 2197.62 542.436C2197.72 543.027 2197.69 543.633 2197.53 544.21C2195.2 583.941 2178.88 608.618 2169.58 619.643L2205.66 620.445C2206.56 620.638 2207.36 621.133 2207.94 621.846C2208.51 622.559 2208.83 623.448 2208.83 624.364C2208.83 625.281 2208.51 626.169 2207.94 626.882C2207.36 627.596 2206.56 628.09 2205.66 628.283H2205.58Z" fill="black"/>
<path d="M2253.05 472.666C2284.81 486.839 2318.61 529.657 2314.6 547.037C2314.6 547.037 2249.71 512.678 2220.58 482.248C2200.53 502.996 2085.49 564.036 2086.03 561.931C2110.09 467.494 2200.27 448.972 2253.05 472.666Z" fill="black"/>
<path d="M2244.23 562.221C2244.28 553.508 2241.18 546.426 2237.31 546.402C2233.43 546.378 2230.25 553.422 2230.2 562.135C2230.14 570.848 2233.24 577.93 2237.11 577.954C2240.99 577.978 2244.17 570.934 2244.23 562.221Z" fill="black"/>
<path d="M2171.43 564.836C2171.52 556.123 2168.45 549.028 2164.57 548.989C2160.7 548.951 2157.48 555.982 2157.4 564.695C2157.31 573.408 2160.38 580.503 2164.26 580.542C2168.13 580.581 2171.34 573.549 2171.43 564.836Z" fill="black"/>
<path d="M2205.28 682.107C2195.56 682.107 2188.13 671.944 2187.58 658.052C2187.44 654.825 2187.1 646.245 2192.8 644.401C2197.21 642.957 2201.94 647.107 2205.47 651.417C2209.01 647.207 2213.76 643.178 2218.13 644.621C2223.81 646.505 2223.43 655.025 2223.29 658.252C2222.64 671.884 2214.95 682.107 2205.28 682.107ZM2195.54 652.6C2195.28 654.311 2195.21 656.044 2195.32 657.771C2195.68 666.993 2200.05 674.249 2205.35 674.269C2210.52 674.269 2215.05 666.952 2215.37 657.912C2215.47 656.192 2215.41 654.466 2215.17 652.76C2212.63 654.927 2210.41 657.437 2208.57 660.217C2208.21 660.739 2207.72 661.166 2207.15 661.462C2206.59 661.758 2205.96 661.916 2205.33 661.921C2204.69 661.918 2204.06 661.758 2203.49 661.453C2202.93 661.149 2202.45 660.711 2202.1 660.177C2200.29 657.36 2198.1 654.81 2195.58 652.6H2195.54Z" fill="black"/>
<path d="M1396.81 333.227V545.835L1488.76 497.383L1442.79 221.39L1396.81 333.227Z" fill="black"/>
<path d="M1205.43 311.586C1222.01 309.612 1233.33 290.152 1230.7 268.121C1228.08 246.09 1212.51 229.831 1195.94 231.805C1179.36 233.779 1168.04 253.239 1170.67 275.269C1173.29 297.3 1188.86 313.56 1205.43 311.586Z" fill="#03C3A6"/>
<path d="M1198.65 239.591C1209.32 239.591 1219.52 250.957 1222.41 266.012C1225.73 283.392 1218.4 300.611 1206.37 303.578C1205.18 303.872 1203.96 304.021 1202.74 304.019C1192.08 304.019 1181.85 292.673 1178.99 277.618C1175.66 260.218 1183 243.019 1195.02 240.032C1196.21 239.745 1197.43 239.597 1198.65 239.591ZM1198.65 231.753C1196.79 231.753 1194.94 231.982 1193.14 232.434C1176.88 236.444 1167.08 257.332 1171.23 279.082C1174.92 298.366 1188.35 311.857 1202.68 311.857C1204.54 311.853 1206.39 311.631 1208.19 311.195C1224.45 307.186 1234.25 286.278 1230.1 264.528C1226.42 245.244 1212.99 231.753 1198.65 231.753Z" fill="black"/>
<path d="M1202.12 290.087C1201.32 290.084 1200.53 289.832 1199.88 289.365C1194.6 285.596 1186.58 274.471 1194.02 259.176C1194.59 258.45 1195.38 257.94 1196.28 257.732C1197.17 257.523 1198.11 257.628 1198.94 258.03C1199.77 258.432 1200.43 259.105 1200.82 259.938C1201.21 260.77 1201.3 261.712 1201.08 262.604C1194.84 275.413 1203.44 282.249 1204.45 282.99C1205.07 283.504 1205.52 284.192 1205.75 284.967C1205.97 285.742 1205.96 286.566 1205.7 287.332C1205.45 288.099 1204.98 288.772 1204.34 289.263C1203.7 289.754 1202.93 290.042 1202.12 290.087Z" fill="black"/>
<path d="M1502.27 277.159C1504.89 255.128 1493.58 235.668 1477 233.694C1460.42 231.72 1444.86 247.98 1442.23 270.011C1439.61 292.042 1450.92 311.502 1467.5 313.475C1484.08 315.449 1499.65 299.19 1502.27 277.159Z" fill="#03C3A6"/>
<path d="M1474.15 241.315C1475.37 241.31 1476.59 241.459 1477.77 241.756C1489.8 244.742 1497.2 261.942 1493.81 279.342C1490.94 294.397 1480.72 305.743 1470.06 305.743C1468.83 305.744 1467.61 305.596 1466.43 305.302C1454.4 302.315 1447.02 285.115 1450.39 267.715C1453.26 252.661 1463.46 241.315 1474.15 241.315ZM1474.15 233.477C1459.81 233.477 1446.38 246.968 1442.69 266.252C1438.54 288.002 1448.35 308.89 1464.62 312.899C1466.42 313.352 1468.26 313.581 1470.12 313.581C1484.45 313.581 1497.9 300.09 1501.57 280.805C1505.68 259.055 1495.9 238.127 1479.62 234.118C1477.82 233.665 1475.96 233.436 1474.11 233.437L1474.15 233.477Z" fill="black"/>
<path d="M1470.64 291.809C1469.84 291.757 1469.07 291.464 1468.43 290.97C1467.8 290.476 1467.33 289.803 1467.08 289.038C1466.84 288.273 1466.83 287.451 1467.05 286.68C1467.28 285.909 1467.73 285.224 1468.35 284.713C1469.35 283.951 1477.93 277.116 1471.7 264.326C1471.48 263.434 1471.57 262.493 1471.96 261.66C1472.35 260.828 1473.01 260.154 1473.84 259.753C1474.67 259.351 1475.61 259.246 1476.5 259.454C1477.4 259.663 1478.19 260.173 1478.76 260.898C1486.19 276.194 1478.17 287.319 1472.9 291.068C1472.25 291.55 1471.45 291.81 1470.64 291.809Z" fill="black"/>
<path d="M1336.71 395.849C1408.77 395.849 1467.19 337.431 1467.19 265.369C1467.19 193.307 1408.77 134.89 1336.71 134.89C1264.65 134.89 1206.23 193.307 1206.23 265.369C1206.23 337.431 1264.65 395.849 1336.71 395.849Z" fill="#03C3A6"/>
<path d="M1336.59 142.728C1365.87 142.697 1394.2 153.143 1416.45 172.178C1438.7 191.213 1453.4 217.582 1457.91 246.515C1462.41 275.449 1456.41 305.038 1440.99 329.934C1425.58 354.83 1401.76 373.388 1373.86 382.254C1345.95 391.121 1315.79 389.709 1288.83 378.276C1261.88 366.842 1239.9 346.14 1226.88 319.914C1213.85 293.687 1210.64 263.667 1217.83 235.28C1225.01 206.893 1242.12 182.014 1266.05 165.14C1286.7 150.597 1311.33 142.771 1336.59 142.728ZM1336.59 134.89C1307.37 134.916 1279 144.752 1256.03 162.82C1233.06 180.889 1216.83 206.144 1209.92 234.54C1203.02 262.936 1205.84 292.827 1217.95 319.425C1230.06 346.022 1250.74 367.785 1276.69 381.227C1302.64 394.669 1332.35 399.011 1361.06 393.557C1389.77 388.104 1415.81 373.17 1435.02 351.15C1454.24 329.13 1465.5 301.297 1467.01 272.113C1468.52 242.929 1460.19 214.083 1443.35 190.197C1431.33 173.058 1415.34 159.079 1396.76 149.449C1378.17 139.819 1357.52 134.825 1336.59 134.89Z" fill="black"/>
<path d="M1332.86 312.698C1331.96 312.524 1331.15 312.046 1330.56 311.345C1329.97 310.644 1329.63 309.761 1329.62 308.844C1329.6 307.927 1329.89 307.032 1330.45 306.307C1331.02 305.582 1331.81 305.071 1332.7 304.86L1370.79 303.237C1360.91 292.111 1343.15 266.673 1339.88 225.057C1340 224.146 1340.43 223.305 1341.09 222.672C1341.76 222.04 1342.62 221.655 1343.54 221.582C1344.45 221.509 1345.36 221.753 1346.12 222.272C1346.88 222.792 1347.43 223.555 1347.7 224.436C1351.91 278.219 1382.03 303.557 1382.34 303.798C1382.91 304.321 1383.32 305 1383.52 305.752C1383.71 306.504 1383.68 307.296 1383.44 308.033C1383.19 308.77 1382.74 309.42 1382.13 309.903C1381.52 310.386 1380.78 310.681 1380.01 310.754L1333.06 312.758L1332.86 312.698Z" fill="black"/>
<path d="M1261.54 158.724C1248.13 168.186 1219.92 205.732 1215.87 238.587L1271.14 182.619C1271.14 182.619 1461.7 226.72 1460.7 224.716C1412.67 128.635 1310.83 123.984 1261.54 158.724Z" fill="black"/>
<path d="M1294.5 257.325C1298.54 257.219 1301.62 249.777 1301.39 240.701C1301.15 231.626 1297.68 224.355 1293.64 224.461C1289.6 224.567 1286.52 232.009 1286.76 241.084C1287 250.16 1290.46 257.431 1294.5 257.325Z" fill="black"/>
<path d="M1379.71 255.096C1383.75 254.99 1386.83 247.547 1386.6 238.472C1386.36 229.397 1382.89 222.126 1378.85 222.231C1374.81 222.337 1371.73 229.78 1371.97 238.855C1372.21 247.93 1375.67 255.201 1379.71 255.096Z" fill="black"/>
<path d="M1337.05 368.807C1327.23 368.807 1319.21 358.443 1318.31 344.471C1318.09 341.164 1317.53 332.444 1323.28 330.339C1327.79 328.755 1332.82 332.925 1336.59 337.255C1340.16 332.684 1344.99 328.194 1349.6 329.577C1355.43 331.341 1355.27 340.201 1355.21 343.609C1354.93 358.002 1347.45 368.627 1337.41 368.887L1337.05 368.807ZM1326.27 338.357C1325.99 340.235 1325.94 342.14 1326.13 344.03C1326.73 353.472 1331.62 361.029 1337.05 361.029H1337.29C1342.8 360.889 1347.31 353.171 1347.45 343.449C1347.55 341.542 1347.41 339.631 1347.05 337.756C1344.37 340.158 1342.04 342.933 1340.14 345.995C1339.78 346.519 1339.3 346.95 1338.75 347.255C1338.19 347.559 1337.57 347.726 1336.94 347.744C1336.3 347.762 1335.67 347.629 1335.1 347.356C1334.53 347.083 1334.03 346.678 1333.64 346.175C1331.59 343.212 1329.1 340.576 1326.27 338.357Z" fill="black"/>
<path d="M322.28 619.83C338.444 619.215 350.884 601.299 350.066 579.815C349.248 558.33 335.482 541.412 319.319 542.028C303.156 542.643 290.716 560.558 291.534 582.043C292.351 603.527 306.117 620.445 322.28 619.83Z" fill="white"/>
<path d="M320.175 541.985V549.823H321.438C333.285 550.846 342.847 566.081 342.306 583.12C341.784 598.996 332.463 611.926 321.518 611.926H320.255C308.408 610.904 298.846 595.649 299.387 578.63C299.908 562.733 309.23 549.803 320.175 549.803V541.985ZM320.175 541.985C304.86 541.985 292.231 557.802 291.569 578.389C290.867 599.838 303.416 618.361 319.634 619.744C320.275 619.744 320.916 619.744 321.638 619.744C336.953 619.744 349.582 603.948 350.244 583.34C350.945 561.891 338.397 543.389 322.179 541.985C321.538 541.985 320.896 541.985 320.175 541.985Z" fill="black"/>
<path d="M319.514 595.748C318.887 595.741 318.27 595.587 317.712 595.298C317.155 595.009 316.674 594.593 316.307 594.084C306.825 580.493 312.839 568.565 317.349 564.135C318.124 563.634 319.047 563.415 319.965 563.515C320.882 563.615 321.736 564.029 322.384 564.686C323.032 565.343 323.433 566.204 323.52 567.122C323.607 568.041 323.375 568.961 322.862 569.728C322 570.59 314.843 578.368 322.722 589.594C323.293 590.452 323.512 591.497 323.333 592.513C323.154 593.528 322.59 594.435 321.759 595.046C321.102 595.507 320.317 595.753 319.514 595.748Z" fill="black"/>
<path d="M622.078 581.847C622.727 560.357 610.146 542.539 593.979 542.051C577.811 541.563 564.179 558.588 563.53 580.079C562.881 601.569 575.461 619.386 591.628 619.874C607.796 620.363 621.428 603.337 622.078 581.847Z" fill="white"/>
<path d="M593.303 549.823C604.368 549.823 613.549 562.412 614.191 578.469C614.872 595.508 605.451 610.823 593.584 611.926C593.13 611.957 592.674 611.957 592.22 611.926C581.155 611.926 571.974 599.337 571.332 583.26C570.651 566.241 580.073 550.926 591.94 549.803C592.381 549.843 592.842 549.823 593.303 549.823ZM593.303 541.985C592.601 541.985 591.9 541.985 591.198 542.086C575.041 543.609 562.632 562.132 563.494 583.661C564.316 604.168 576.985 619.844 592.22 619.844C592.922 619.844 593.624 619.844 594.325 619.744C610.482 618.22 622.891 599.598 622.029 578.168C621.207 557.661 608.538 541.985 593.303 541.985Z" fill="black"/>
<path d="M594.186 595.747C593.389 595.752 592.611 595.506 591.961 595.045C591.129 594.441 590.561 593.54 590.375 592.529C590.188 591.518 590.397 590.474 590.959 589.613C598.977 577.946 590.959 570.088 590.678 569.747C590.17 569.431 589.74 569.005 589.419 568.501C589.097 567.997 588.893 567.427 588.82 566.833C588.747 566.24 588.808 565.638 588.998 565.071C589.188 564.504 589.503 563.986 589.919 563.557C590.334 563.127 590.841 562.796 591.402 562.587C591.962 562.379 592.562 562.299 593.158 562.352C593.753 562.405 594.329 562.591 594.844 562.896C595.358 563.201 595.798 563.617 596.13 564.114C600.661 568.484 606.775 580.392 597.413 594.043C597.049 594.562 596.566 594.987 596.005 595.283C595.444 595.58 594.82 595.738 594.186 595.747Z" fill="black"/>
<path d="M456.988 713.86C526.825 713.86 583.439 657.246 583.439 587.409C583.439 517.573 526.825 460.959 456.988 460.959C387.152 460.959 330.538 517.573 330.538 587.409C330.538 657.246 387.152 713.86 456.988 713.86Z" fill="white"/>
<path d="M456.869 468.776C477.79 468.795 498.336 474.328 516.436 484.82C534.536 495.311 549.551 510.389 559.965 528.534C572.898 551.173 578.008 577.443 574.505 603.279C571.002 629.115 559.081 653.077 540.587 671.455C522.094 689.833 498.058 701.603 472.2 704.944C446.342 708.284 420.104 703.009 397.547 689.934C374.99 676.859 357.371 656.714 347.417 632.617C337.463 608.519 335.729 581.812 342.484 556.63C349.239 531.447 364.105 509.193 384.783 493.312C405.46 477.43 430.796 468.807 456.869 468.776ZM456.869 460.938C429.055 460.959 402.025 470.148 379.961 487.082C357.898 504.016 342.032 527.752 334.819 554.613C327.607 581.475 329.451 609.965 340.065 635.674C350.679 661.382 369.472 682.874 393.534 696.823C417.597 710.772 445.586 716.401 473.17 712.837C500.754 709.272 526.394 696.715 546.12 677.108C565.846 657.501 578.559 631.938 582.291 604.376C586.022 576.814 580.564 548.791 566.761 524.645C555.737 505.236 539.751 489.107 520.44 477.912C501.13 466.718 479.189 460.86 456.869 460.938Z" fill="black"/>
<path d="M447.449 619.523C446.547 619.354 445.731 618.88 445.136 618.182C444.541 617.484 444.203 616.602 444.18 615.685C444.157 614.768 444.448 613.87 445.007 613.142C445.565 612.414 446.356 611.9 447.248 611.685L482.369 609.68C471.724 601.502 456.75 585.124 452.601 556.017C452.392 555.456 452.313 554.855 452.367 554.259C452.422 553.662 452.609 553.086 452.915 552.571C453.222 552.057 453.64 551.618 454.138 551.286C454.636 550.954 455.203 550.738 455.796 550.654C456.388 550.57 456.992 550.619 457.564 550.799C458.135 550.979 458.658 551.284 459.096 551.693C459.534 552.102 459.874 552.603 460.093 553.161C460.311 553.718 460.402 554.317 460.358 554.915C466.232 596.109 496.241 609.159 496.441 609.299C497.191 609.694 497.797 610.316 498.171 611.077C498.546 611.837 498.669 612.697 498.524 613.532C498.38 614.367 497.974 615.135 497.366 615.725C496.757 616.315 495.977 616.697 495.138 616.817L447.569 619.463L447.449 619.523Z" fill="black"/>
<path d="M394.206 477.638C380.816 485.285 368.94 495.32 359.165 507.246L549.723 501.452C530.299 480.504 504.356 466.749 476.117 462.424C447.879 458.1 419.008 463.462 394.206 477.638Z" fill="black"/>
<path d="M416.045 579.64C419.963 579.545 422.966 572.335 422.753 563.536C422.539 554.737 419.19 547.681 415.272 547.776C411.354 547.871 408.351 555.081 408.564 563.88C408.778 572.679 412.127 579.735 416.045 579.64Z" fill="black"/>
<path d="M498.641 577.637C502.559 577.542 505.562 570.332 505.348 561.533C505.135 552.734 501.786 545.678 497.868 545.773C493.95 545.868 490.947 553.078 491.16 561.877C491.374 570.676 494.723 577.732 498.641 577.637Z" fill="black"/>
<path d="M165.625 1413.85C178.806 1412.6 188.145 1397.39 186.484 1379.88C184.822 1362.36 172.789 1349.18 159.607 1350.43C146.425 1351.68 137.086 1366.89 138.748 1384.41C140.41 1401.92 152.443 1415.1 165.625 1413.85Z" fill="#03C3A6"/>
<path d="M161.251 1358.18H161.551C170.572 1358.46 178.45 1369.83 178.771 1383.04C178.951 1390.71 176.546 1397.89 172.316 1402.22C171.238 1403.4 169.936 1404.35 168.487 1405.01C167.038 1405.68 165.471 1406.05 163.877 1406.11H163.556C154.555 1405.85 146.677 1394.46 146.357 1381.25C146.156 1373.58 148.582 1366.42 152.811 1362.09C153.888 1360.91 155.189 1359.96 156.638 1359.29C158.087 1358.61 159.655 1358.24 161.251 1358.18ZM161.251 1350.34C148.221 1350.34 138.098 1364.13 138.519 1381.45C138.939 1398.77 150.045 1413.53 163.336 1413.95H163.877C176.887 1413.95 187.03 1400.18 186.609 1382.86C186.188 1365.54 175.062 1350.78 161.792 1350.36L161.251 1350.34Z" fill="black"/>
<path d="M161.971 1395.06C161.377 1395.06 160.792 1394.92 160.259 1394.66C159.725 1394.4 159.255 1394.02 158.884 1393.56C150.224 1382.52 154.875 1372.09 158.403 1368.12C159.117 1367.38 160.091 1366.94 161.121 1366.89C162.152 1366.85 163.16 1367.2 163.936 1367.88C164.317 1368.22 164.627 1368.64 164.848 1369.1C165.069 1369.56 165.196 1370.06 165.222 1370.57C165.248 1371.08 165.173 1371.59 165 1372.07C164.827 1372.55 164.561 1373 164.216 1373.37C163.595 1374.1 158.523 1380.39 165.058 1388.71C165.483 1389.3 165.74 1389.99 165.803 1390.71C165.866 1391.43 165.732 1392.16 165.415 1392.81C165.099 1393.46 164.611 1394.02 164.005 1394.41C163.398 1394.81 162.695 1395.04 161.971 1395.06Z" fill="black"/>
<path d="M406.125 1383.31C407.787 1365.79 398.448 1350.58 385.266 1349.33C372.084 1348.08 360.051 1361.26 358.39 1378.78C356.728 1396.29 366.067 1411.5 379.249 1412.75C392.431 1414 404.464 1400.82 406.125 1383.31Z" fill="#03C3A6"/>
<path d="M383.561 1357C385.156 1357.05 386.723 1357.43 388.172 1358.09C389.621 1358.76 390.922 1359.71 392.001 1360.89C396.23 1365.22 398.636 1372.39 398.456 1380.05C398.135 1393.26 390.257 1404.65 381.236 1404.91H380.935C379.341 1404.85 377.774 1404.48 376.325 1403.81C374.876 1403.14 373.574 1402.19 372.496 1401.02C368.266 1396.69 365.841 1389.51 366.041 1381.85C366.362 1368.64 374.24 1357.26 383.241 1357H383.561ZM383.561 1349.16H383.1C369.81 1349.54 358.704 1364.09 358.283 1381.65C357.862 1399.21 367.905 1412.83 380.935 1412.83H381.477C394.747 1412.44 405.873 1397.89 406.294 1380.33C406.715 1362.77 396.571 1349.24 383.561 1349.24V1349.16Z" fill="black"/>
<path d="M382.819 1393.86C382.1 1393.83 381.404 1393.6 380.803 1393.2C380.202 1392.8 379.72 1392.25 379.406 1391.6C379.092 1390.96 378.959 1390.23 379.02 1389.52C379.081 1388.8 379.334 1388.11 379.752 1387.53C386.528 1378.89 380.855 1372.47 380.614 1372.21C380.125 1371.86 379.721 1371.41 379.429 1370.89C379.138 1370.36 378.968 1369.78 378.932 1369.18C378.896 1368.59 378.994 1367.99 379.22 1367.43C379.445 1366.88 379.792 1366.38 380.236 1365.98C380.679 1365.57 381.207 1365.27 381.781 1365.1C382.355 1364.93 382.96 1364.89 383.552 1364.98C384.144 1365.07 384.708 1365.3 385.202 1365.63C385.696 1365.97 386.108 1366.42 386.407 1366.94C390.016 1370.95 394.566 1381.33 385.906 1392.36C385.535 1392.82 385.066 1393.2 384.532 1393.46C383.998 1393.72 383.413 1393.85 382.819 1393.86Z" fill="black"/>
<path d="M273.147 1469.57C330.307 1469.57 376.645 1423.24 376.645 1366.08C376.645 1308.92 330.307 1262.58 273.147 1262.58C215.987 1262.58 169.649 1308.92 169.649 1366.08C169.649 1423.24 215.987 1469.57 273.147 1469.57Z" fill="#03C3A6"/>
<path d="M273.068 1262.48V1270.3C296.492 1270.26 319.117 1278.81 336.66 1294.34C354.203 1309.86 365.447 1331.27 368.263 1354.53C371.079 1377.78 365.273 1401.26 351.942 1420.52C338.612 1439.78 318.683 1453.49 295.927 1459.05C273.172 1464.6 249.169 1461.62 228.462 1450.67C207.754 1439.72 191.78 1421.56 183.563 1399.62C175.345 1377.69 175.454 1353.5 183.87 1331.64C192.285 1309.78 208.422 1291.77 229.227 1281C242.775 1273.98 257.809 1270.31 273.068 1270.3V1262.48ZM273.068 1262.48C250.497 1262.47 228.542 1269.85 210.55 1283.47C192.557 1297.1 179.512 1316.24 173.403 1337.97C167.294 1359.69 168.456 1382.82 176.711 1403.83C184.966 1424.84 199.863 1442.57 219.13 1454.33C238.398 1466.08 260.981 1471.22 283.438 1468.95C305.895 1466.68 326.995 1457.14 343.522 1441.76C360.05 1426.39 371.1 1406.04 374.988 1383.81C378.876 1361.57 375.39 1338.68 365.059 1318.61C356.406 1301.67 343.23 1287.46 326.992 1277.55C310.754 1267.64 292.09 1262.43 273.068 1262.48Z" fill="black"/>
<path d="M359.525 1308.42C334.307 1269.53 278.298 1257.99 232.653 1274.23C202.705 1284.89 182.338 1329.81 170.511 1352.75C184.655 1330.08 202.582 1310 223.512 1293.39C305.02 1316.42 359.525 1308.42 359.525 1308.42Z" fill="black"/>
<path d="M270.581 1406.45C269.689 1406.27 268.884 1405.8 268.299 1405.1C267.713 1404.4 267.381 1403.53 267.358 1402.62C267.334 1401.71 267.621 1400.82 268.17 1400.1C268.72 1399.37 269.499 1398.86 270.381 1398.63L298.886 1397.17C290.727 1387.73 277.517 1367.84 274.831 1336.11C274.763 1335.08 275.096 1334.06 275.761 1333.27C276.426 1332.47 277.371 1331.97 278.399 1331.86C279.431 1331.79 280.449 1332.12 281.241 1332.79C282.033 1333.45 282.537 1334.4 282.649 1335.43C286.297 1377.52 310.112 1397.41 310.352 1397.57C310.919 1398.09 311.323 1398.76 311.518 1399.51C311.713 1400.25 311.689 1401.03 311.45 1401.77C311.212 1402.5 310.768 1403.14 310.171 1403.63C309.575 1404.12 308.851 1404.42 308.087 1404.51L270.862 1406.51L270.581 1406.45Z" fill="black"/>
<path d="M239.915 1357.99C243.123 1357.88 245.523 1351.95 245.274 1344.74C245.025 1337.54 242.222 1331.79 239.013 1331.9C235.804 1332.01 233.405 1337.94 233.654 1345.15C233.903 1352.35 236.706 1358.1 239.915 1357.99Z" fill="black"/>
<path d="M307.509 1355.65C310.718 1355.54 313.118 1349.61 312.869 1342.41C312.619 1335.21 309.816 1329.46 306.608 1329.57C303.399 1329.68 301 1335.61 301.249 1342.81C301.498 1350.01 304.301 1355.76 307.509 1355.65Z" fill="black"/>
<path d="M243.76 1565.34C249.827 1565.34 254.745 1560.42 254.745 1554.35C254.745 1548.28 249.827 1543.37 243.76 1543.37C237.693 1543.37 232.774 1548.28 232.774 1554.35C232.774 1560.42 237.693 1565.34 243.76 1565.34Z" fill="#03C3A6"/>
<path d="M243.76 1619.6C249.827 1619.6 254.745 1614.68 254.745 1608.61C254.745 1602.55 249.827 1597.63 243.76 1597.63C237.693 1597.63 232.774 1602.55 232.774 1608.61C232.774 1614.68 237.693 1619.6 243.76 1619.6Z" fill="#03C3A6"/>
<path d="M359.166 830.587C358.385 830.589 357.622 830.351 356.981 829.905L304.741 794.644C304.208 794.287 303.771 793.804 303.471 793.237C303.17 792.671 303.014 792.038 303.017 791.397V758.742C303.043 757.696 303.477 756.702 304.226 755.972C304.975 755.241 305.98 754.833 307.026 754.833H415.756C416.802 754.833 417.807 755.241 418.556 755.972C419.305 756.702 419.739 757.696 419.765 758.742V791.397C419.757 792.061 419.584 792.713 419.263 793.294C418.941 793.874 418.479 794.366 417.921 794.725L361.25 829.986C360.624 830.374 359.903 830.582 359.166 830.587ZM310.935 789.392L359.346 822.087L411.847 789.312V762.671H310.935V789.392Z" fill="white"/>
<path d="M1338.29 497.101C1333.64 497.105 1329.09 495.728 1325.21 493.145C1321.34 490.561 1318.32 486.887 1316.54 482.587C1314.75 478.287 1314.28 473.555 1315.19 468.988C1316.1 464.422 1318.34 460.227 1321.63 456.933C1324.92 453.64 1329.11 451.397 1333.68 450.487C1338.24 449.577 1342.97 450.042 1347.28 451.823C1351.58 453.603 1355.25 456.62 1357.84 460.49C1360.43 464.361 1361.81 468.912 1361.81 473.567C1361.8 479.804 1359.32 485.784 1354.92 490.195C1350.51 494.607 1344.53 497.091 1338.29 497.101ZM1338.29 457.891C1335.19 457.887 1332.15 458.805 1329.57 460.528C1326.98 462.251 1324.97 464.703 1323.78 467.571C1322.59 470.44 1322.27 473.598 1322.88 476.645C1323.48 479.691 1324.98 482.49 1327.18 484.686C1329.37 486.882 1332.17 488.378 1335.22 488.983C1338.26 489.588 1341.42 489.275 1344.29 488.085C1347.16 486.894 1349.61 484.879 1351.33 482.295C1353.06 479.711 1353.97 476.673 1353.97 473.567C1353.97 469.41 1352.32 465.422 1349.38 462.483C1346.44 459.543 1342.45 457.891 1338.29 457.891Z" fill="black"/>
<path d="M1287.86 468.135C1284.31 468.142 1280.82 467.235 1277.72 465.502C1274.63 463.768 1272.03 461.267 1270.19 458.238C1268.34 455.209 1267.3 451.756 1267.18 448.21C1267.05 444.665 1267.85 441.147 1269.48 437.997C1271.11 434.846 1273.52 432.169 1276.49 430.223C1279.45 428.277 1282.87 427.128 1286.41 426.887C1289.95 426.647 1293.49 427.322 1296.7 428.848C1299.9 430.374 1302.65 432.699 1304.7 435.6C1306.87 438.689 1308.16 442.316 1308.41 446.085C1308.67 449.855 1307.89 453.622 1306.15 456.978C1304.41 460.333 1301.79 463.148 1298.56 465.115C1295.34 467.082 1291.64 468.127 1287.86 468.135ZM1287.86 434.678C1284.99 434.685 1282.21 435.654 1279.96 437.431C1277.7 439.207 1276.11 441.687 1275.44 444.475C1274.76 447.262 1275.04 450.195 1276.24 452.804C1277.43 455.414 1279.46 457.548 1282 458.865C1284.55 460.182 1287.47 460.607 1290.28 460.071C1293.1 459.534 1295.66 458.068 1297.54 455.906C1299.43 453.745 1300.53 451.014 1300.68 448.15C1300.83 445.286 1300.01 442.455 1298.36 440.11C1297.17 438.421 1295.58 437.046 1293.74 436.1C1291.91 435.154 1289.86 434.666 1287.8 434.678H1287.86Z" fill="black"/>
<path d="M1256.1 424.115C1253.46 424.12 1250.86 423.488 1248.52 422.274C1246.17 421.059 1244.15 419.298 1242.63 417.139C1240.51 414.126 1239.46 410.488 1239.65 406.807C1239.84 403.126 1241.26 399.616 1243.68 396.838C1246.11 394.061 1249.39 392.177 1253.01 391.489C1256.63 390.8 1260.38 391.348 1263.65 393.043C1266.93 394.738 1269.54 397.482 1271.06 400.837C1272.59 404.191 1272.95 407.961 1272.08 411.543C1271.21 415.124 1269.16 418.31 1266.26 420.59C1263.37 422.869 1259.79 424.111 1256.1 424.115ZM1256.1 399.077C1254.18 399.085 1252.32 399.737 1250.82 400.928C1249.31 402.119 1248.25 403.78 1247.8 405.646C1247.35 407.513 1247.54 409.476 1248.34 411.222C1249.13 412.968 1250.49 414.396 1252.2 415.278C1253.9 416.16 1255.86 416.444 1257.74 416.086C1259.63 415.727 1261.34 414.746 1262.6 413.3C1263.87 411.854 1264.61 410.027 1264.71 408.109C1264.81 406.192 1264.26 404.297 1263.16 402.726C1262.51 401.799 1261.69 401.011 1260.73 400.409C1259.77 399.806 1258.7 399.401 1257.59 399.218C1257.09 399.12 1256.58 399.073 1256.06 399.077H1256.1Z" fill="black"/>
<path d="M1388.75 468.135C1384.67 468.135 1380.68 466.924 1377.28 464.655C1373.88 462.386 1371.24 459.162 1369.68 455.389C1368.11 451.616 1367.7 447.464 1368.5 443.459C1369.3 439.454 1371.26 435.775 1374.15 432.887C1377.04 430 1380.72 428.033 1384.72 427.237C1388.73 426.44 1392.88 426.849 1396.65 428.412C1400.43 429.974 1403.65 432.621 1405.92 436.016C1408.19 439.412 1409.4 443.404 1409.4 447.487C1409.39 452.962 1407.22 458.21 1403.34 462.081C1399.47 465.952 1394.23 468.129 1388.75 468.135ZM1388.75 434.678C1386.22 434.678 1383.74 435.429 1381.63 436.837C1379.53 438.244 1377.89 440.245 1376.92 442.585C1375.95 444.926 1375.69 447.501 1376.19 449.986C1376.68 452.471 1377.9 454.753 1379.69 456.545C1381.48 458.336 1383.77 459.556 1386.25 460.051C1388.74 460.545 1391.31 460.291 1393.65 459.322C1395.99 458.352 1397.99 456.71 1399.4 454.604C1400.81 452.497 1401.56 450.021 1401.56 447.487C1401.56 444.092 1400.2 440.837 1397.8 438.435C1395.4 436.034 1392.15 434.683 1388.75 434.678Z" fill="black"/>
<path d="M2390.79 1526.19C2395.45 1526.19 2399.23 1522.41 2399.23 1517.75C2399.23 1513.09 2395.45 1509.31 2390.79 1509.31C2386.13 1509.31 2382.35 1513.09 2382.35 1517.75C2382.35 1522.41 2386.13 1526.19 2390.79 1526.19Z" fill="white"/>
<path d="M2390.79 1569.16C2395.45 1569.16 2399.23 1565.39 2399.23 1560.73C2399.23 1556.06 2395.45 1552.29 2390.79 1552.29C2386.13 1552.29 2382.35 1556.06 2382.35 1560.73C2382.35 1565.39 2386.13 1569.16 2390.79 1569.16Z" fill="white"/>
<path d="M2390.79 1608.65C2395.45 1608.65 2399.23 1604.88 2399.23 1600.21C2399.23 1595.55 2395.45 1591.78 2390.79 1591.78C2386.13 1591.78 2382.35 1595.55 2382.35 1600.21C2382.35 1604.88 2386.13 1608.65 2390.79 1608.65Z" fill="white"/>
<path d="M1340.73 1573.79C1457.62 1573.79 1552.39 1636.78 1552.39 1714.46C1552.39 1739.37 1542.6 1762.75 1525.51 1783.03L1526.13 1782.74C1472.22 1859.68 1357.2 1952.45 1357.2 1952.45C1357.2 1952.45 1382.83 1888.28 1380.07 1852.62C1367 1854.23 1353.85 1855.02 1340.68 1855C1223.77 1855 1129 1792.04 1129 1714.36C1129 1636.69 1223.81 1573.79 1340.73 1573.79Z" fill="white"/>
</svg>
